<mxfile host="app.diagrams.net" modified="2023-12-23T15:29:50.982Z" agent="Mozilla/5.0 (X11; Ubuntu; Linux x86_64; rv:109.0) Gecko/20100101 Firefox/119.0" etag="bnkZL7KGi2J6FFAXEPbv" version="22.1.11" type="device">
  <diagram id="C5RBs43oDa-KdzZeNtuy" name="Page-1">
    <mxGraphModel dx="3088" dy="1964" grid="1" gridSize="10" guides="1" tooltips="1" connect="1" arrows="1" fold="1" page="1" pageScale="1" pageWidth="827" pageHeight="1169" math="0" shadow="0">
      <root>
        <mxCell id="WIyWlLk6GJQsqaUBKTNV-0" />
        <mxCell id="WIyWlLk6GJQsqaUBKTNV-1" parent="WIyWlLk6GJQsqaUBKTNV-0" />
        <mxCell id="zkfFHV4jXpPFQw0GAbJ--0" value="Game" style="swimlane;fontStyle=1;align=center;verticalAlign=top;childLayout=stackLayout;horizontal=1;startSize=26;horizontalStack=0;resizeParent=1;resizeLast=0;collapsible=1;marginBottom=0;rounded=0;shadow=0;strokeWidth=1;" parent="WIyWlLk6GJQsqaUBKTNV-1" vertex="1">
          <mxGeometry x="40" y="40" width="160" height="180" as="geometry">
            <mxRectangle x="230" y="140" width="160" height="26" as="alternateBounds" />
          </mxGeometry>
        </mxCell>
        <mxCell id="zkfFHV4jXpPFQw0GAbJ--1" value="- gui : LanternaGUI" style="text;align=left;verticalAlign=top;spacingLeft=4;spacingRight=4;overflow=hidden;rotatable=0;points=[[0,0.5],[1,0.5]];portConstraint=eastwest;rounded=0;" parent="zkfFHV4jXpPFQw0GAbJ--0" vertex="1">
          <mxGeometry y="26" width="160" height="26" as="geometry" />
        </mxCell>
        <mxCell id="zkfFHV4jXpPFQw0GAbJ--2" value="- state : StateÂ " style="text;align=left;verticalAlign=top;spacingLeft=4;spacingRight=4;overflow=hidden;rotatable=0;points=[[0,0.5],[1,0.5]];portConstraint=eastwest;rounded=0;shadow=0;html=0;" parent="zkfFHV4jXpPFQw0GAbJ--0" vertex="1">
          <mxGeometry y="52" width="160" height="26" as="geometry" />
        </mxCell>
        <mxCell id="zkfFHV4jXpPFQw0GAbJ--4" value="" style="line;html=1;strokeWidth=1;align=left;verticalAlign=middle;spacingTop=-1;spacingLeft=3;spacingRight=3;rotatable=0;labelPosition=right;points=[];portConstraint=eastwest;rounded=0;" parent="zkfFHV4jXpPFQw0GAbJ--0" vertex="1">
          <mxGeometry y="78" width="160" height="8" as="geometry" />
        </mxCell>
        <mxCell id="zkfFHV4jXpPFQw0GAbJ--5" value="- start()" style="text;align=left;verticalAlign=top;spacingLeft=4;spacingRight=4;overflow=hidden;rotatable=0;points=[[0,0.5],[1,0.5]];portConstraint=eastwest;rounded=0;" parent="zkfFHV4jXpPFQw0GAbJ--0" vertex="1">
          <mxGeometry y="86" width="160" height="26" as="geometry" />
        </mxCell>
        <mxCell id="2D_pqOBESdX0pPicwGaX-0" value="&amp;nbsp;+ setState(state : State)" style="text;html=1;align=left;verticalAlign=middle;resizable=0;points=[];autosize=1;strokeColor=none;fillColor=none;rounded=0;" parent="zkfFHV4jXpPFQw0GAbJ--0" vertex="1">
          <mxGeometry y="112" width="160" height="30" as="geometry" />
        </mxCell>
        <mxCell id="2D_pqOBESdX0pPicwGaX-94" value="&amp;nbsp;+ getState() : State" style="text;html=1;strokeColor=none;fillColor=none;align=left;verticalAlign=middle;whiteSpace=wrap;rounded=0;" parent="zkfFHV4jXpPFQw0GAbJ--0" vertex="1">
          <mxGeometry y="142" width="160" height="30" as="geometry" />
        </mxCell>
        <mxCell id="zkfFHV4jXpPFQw0GAbJ--17" value="State&lt;T&gt;" style="swimlane;fontStyle=3;align=center;verticalAlign=top;childLayout=stackLayout;horizontal=1;startSize=26;horizontalStack=0;resizeParent=1;resizeLast=0;collapsible=1;marginBottom=0;rounded=0;shadow=0;strokeWidth=1;labelBackgroundColor=none;fillColor=#fff2cc;strokeColor=#d6b656;" parent="WIyWlLk6GJQsqaUBKTNV-1" vertex="1">
          <mxGeometry x="350" y="40" width="190" height="234" as="geometry">
            <mxRectangle x="550" y="140" width="160" height="26" as="alternateBounds" />
          </mxGeometry>
        </mxCell>
        <mxCell id="zkfFHV4jXpPFQw0GAbJ--18" value="- model : T" style="text;align=left;verticalAlign=top;spacingLeft=4;spacingRight=4;overflow=hidden;rotatable=0;points=[[0,0.5],[1,0.5]];portConstraint=eastwest;fontStyle=0;rounded=0;fillColor=#fff2cc;strokeColor=#d6b656;" parent="zkfFHV4jXpPFQw0GAbJ--17" vertex="1">
          <mxGeometry y="26" width="190" height="26" as="geometry" />
        </mxCell>
        <mxCell id="zkfFHV4jXpPFQw0GAbJ--19" value="- controller : Controller&lt;T&gt;" style="text;align=left;verticalAlign=top;spacingLeft=4;spacingRight=4;overflow=hidden;rotatable=0;points=[[0,0.5],[1,0.5]];portConstraint=eastwest;rounded=0;shadow=0;html=0;labelBackgroundColor=none;fillColor=#fff2cc;strokeColor=#d6b656;" parent="zkfFHV4jXpPFQw0GAbJ--17" vertex="1">
          <mxGeometry y="52" width="190" height="26" as="geometry" />
        </mxCell>
        <mxCell id="zkfFHV4jXpPFQw0GAbJ--20" value="- viewer : Viewer&lt;T&gt;" style="text;align=left;verticalAlign=top;spacingLeft=4;spacingRight=4;overflow=hidden;rotatable=0;points=[[0,0.5],[1,0.5]];portConstraint=eastwest;rounded=0;shadow=0;html=0;labelBackgroundColor=none;fillColor=#fff2cc;strokeColor=#d6b656;" parent="zkfFHV4jXpPFQw0GAbJ--17" vertex="1">
          <mxGeometry y="78" width="190" height="26" as="geometry" />
        </mxCell>
        <mxCell id="zkfFHV4jXpPFQw0GAbJ--23" value="" style="line;html=1;strokeWidth=1;align=left;verticalAlign=middle;spacingTop=-1;spacingLeft=3;spacingRight=3;rotatable=0;labelPosition=right;points=[];portConstraint=eastwest;rounded=0;labelBackgroundColor=none;" parent="zkfFHV4jXpPFQw0GAbJ--17" vertex="1">
          <mxGeometry y="104" width="190" height="8" as="geometry" />
        </mxCell>
        <mxCell id="zkfFHV4jXpPFQw0GAbJ--24" value="# getController() : Controller&lt;T&gt;" style="text;align=left;verticalAlign=top;spacingLeft=4;spacingRight=4;overflow=hidden;rotatable=0;points=[[0,0.5],[1,0.5]];portConstraint=eastwest;fontStyle=2;rounded=0;labelBackgroundColor=none;fillColor=#f8cecc;strokeColor=#b85450;" parent="zkfFHV4jXpPFQw0GAbJ--17" vertex="1">
          <mxGeometry y="112" width="190" height="26" as="geometry" />
        </mxCell>
        <mxCell id="zkfFHV4jXpPFQw0GAbJ--25" value="# getViewer() : Viewer&lt;T&gt;" style="text;align=left;verticalAlign=top;spacingLeft=4;spacingRight=4;overflow=hidden;rotatable=0;points=[[0,0.5],[1,0.5]];portConstraint=eastwest;fontStyle=2;rounded=0;labelBackgroundColor=none;fillColor=#f8cecc;strokeColor=#b85450;" parent="zkfFHV4jXpPFQw0GAbJ--17" vertex="1">
          <mxGeometry y="138" width="190" height="26" as="geometry" />
        </mxCell>
        <mxCell id="2D_pqOBESdX0pPicwGaX-1" value="&amp;nbsp;+ getModel() : T" style="text;html=1;align=left;verticalAlign=middle;resizable=0;points=[];autosize=1;strokeColor=#d6b656;fillColor=#fff2cc;rounded=0;labelBackgroundColor=none;" parent="zkfFHV4jXpPFQw0GAbJ--17" vertex="1">
          <mxGeometry y="164" width="190" height="30" as="geometry" />
        </mxCell>
        <mxCell id="2D_pqOBESdX0pPicwGaX-2" value="&amp;nbsp;+ step(game : Game, gui : GUI,&lt;br&gt;&amp;nbsp;time : long)" style="text;html=1;align=left;verticalAlign=middle;resizable=0;points=[];autosize=1;strokeColor=#d6b656;fillColor=#fff2cc;rounded=0;labelBackgroundColor=none;" parent="zkfFHV4jXpPFQw0GAbJ--17" vertex="1">
          <mxGeometry y="194" width="190" height="40" as="geometry" />
        </mxCell>
        <mxCell id="zkfFHV4jXpPFQw0GAbJ--26" value="" style="endArrow=open;shadow=0;strokeWidth=1;rounded=0;endFill=1;edgeStyle=elbowEdgeStyle;elbow=vertical;" parent="WIyWlLk6GJQsqaUBKTNV-1" source="zkfFHV4jXpPFQw0GAbJ--0" target="zkfFHV4jXpPFQw0GAbJ--17" edge="1">
          <mxGeometry x="0.5" y="41" relative="1" as="geometry">
            <mxPoint x="380" y="192" as="sourcePoint" />
            <mxPoint x="540" y="192" as="targetPoint" />
            <mxPoint x="-40" y="32" as="offset" />
          </mxGeometry>
        </mxCell>
        <mxCell id="zkfFHV4jXpPFQw0GAbJ--28" value="1" style="resizable=0;align=right;verticalAlign=bottom;labelBackgroundColor=none;fontSize=12;rounded=0;" parent="zkfFHV4jXpPFQw0GAbJ--26" connectable="0" vertex="1">
          <mxGeometry x="1" relative="1" as="geometry">
            <mxPoint x="-7" y="4" as="offset" />
          </mxGeometry>
        </mxCell>
        <mxCell id="2D_pqOBESdX0pPicwGaX-4" value="&lt;i&gt;Controller&amp;lt;T&amp;gt;&lt;/i&gt;" style="swimlane;fontStyle=1;align=center;verticalAlign=top;childLayout=stackLayout;horizontal=1;startSize=26;horizontalStack=0;resizeParent=1;resizeParentMax=0;resizeLast=0;collapsible=1;marginBottom=0;whiteSpace=wrap;html=1;fillColor=#d5e8d4;strokeColor=#82b366;rounded=0;" parent="WIyWlLk6GJQsqaUBKTNV-1" vertex="1">
          <mxGeometry x="365" y="-168" width="160" height="116" as="geometry" />
        </mxCell>
        <mxCell id="2D_pqOBESdX0pPicwGaX-5" value="- model : T" style="text;strokeColor=#82b366;fillColor=#d5e8d4;align=left;verticalAlign=top;spacingLeft=4;spacingRight=4;overflow=hidden;rotatable=0;points=[[0,0.5],[1,0.5]];portConstraint=eastwest;whiteSpace=wrap;html=1;rounded=0;" parent="2D_pqOBESdX0pPicwGaX-4" vertex="1">
          <mxGeometry y="26" width="160" height="26" as="geometry" />
        </mxCell>
        <mxCell id="2D_pqOBESdX0pPicwGaX-6" value="" style="line;strokeWidth=1;fillColor=#d5e8d4;align=left;verticalAlign=middle;spacingTop=-1;spacingLeft=3;spacingRight=3;rotatable=0;labelPosition=right;points=[];portConstraint=eastwest;strokeColor=#82b366;rounded=0;" parent="2D_pqOBESdX0pPicwGaX-4" vertex="1">
          <mxGeometry y="52" width="160" height="8" as="geometry" />
        </mxCell>
        <mxCell id="2D_pqOBESdX0pPicwGaX-7" value="+ getModel() : T" style="text;strokeColor=#82b366;fillColor=#d5e8d4;align=left;verticalAlign=top;spacingLeft=4;spacingRight=4;overflow=hidden;rotatable=0;points=[[0,0.5],[1,0.5]];portConstraint=eastwest;whiteSpace=wrap;html=1;rounded=0;" parent="2D_pqOBESdX0pPicwGaX-4" vertex="1">
          <mxGeometry y="60" width="160" height="26" as="geometry" />
        </mxCell>
        <mxCell id="2D_pqOBESdX0pPicwGaX-8" value="&lt;i&gt;&amp;nbsp;+ step(game : Game, action : GUI.ACTION, time : long)&lt;/i&gt;" style="text;strokeColor=#82b366;align=left;fillColor=#d5e8d4;html=1;verticalAlign=middle;whiteSpace=wrap;rounded=0;" parent="2D_pqOBESdX0pPicwGaX-4" vertex="1">
          <mxGeometry y="86" width="160" height="30" as="geometry" />
        </mxCell>
        <mxCell id="2D_pqOBESdX0pPicwGaX-14" style="edgeStyle=orthogonalEdgeStyle;rounded=0;orthogonalLoop=1;jettySize=auto;html=1;exitX=0.5;exitY=1;exitDx=0;exitDy=0;fillColor=#dae8fc;strokeColor=#6c8ebf;" parent="WIyWlLk6GJQsqaUBKTNV-1" edge="1">
          <mxGeometry relative="1" as="geometry">
            <mxPoint x="1010" y="20" as="sourcePoint" />
            <mxPoint x="1010" y="20" as="targetPoint" />
          </mxGeometry>
        </mxCell>
        <mxCell id="ExHl49rjy0cBEna2JtWI-72" style="edgeStyle=orthogonalEdgeStyle;rounded=0;orthogonalLoop=1;jettySize=auto;html=1;exitX=0.5;exitY=0;exitDx=0;exitDy=0;fillColor=#d5e8d4;strokeColor=#82b366;" parent="WIyWlLk6GJQsqaUBKTNV-1" source="2D_pqOBESdX0pPicwGaX-32" target="2D_pqOBESdX0pPicwGaX-4" edge="1">
          <mxGeometry relative="1" as="geometry" />
        </mxCell>
        <mxCell id="2D_pqOBESdX0pPicwGaX-32" value="MainMenuController" style="swimlane;fontStyle=1;align=center;verticalAlign=top;childLayout=stackLayout;horizontal=1;startSize=26;horizontalStack=0;resizeParent=1;resizeParentMax=0;resizeLast=0;collapsible=1;marginBottom=0;whiteSpace=wrap;html=1;fillColor=#d5e8d4;strokeColor=#82b366;rounded=0;" parent="WIyWlLk6GJQsqaUBKTNV-1" vertex="1">
          <mxGeometry x="150" y="-260" width="160" height="80" as="geometry" />
        </mxCell>
        <mxCell id="2D_pqOBESdX0pPicwGaX-33" value="&amp;nbsp;+ step(game : Game, action : GUI.ACTION, time : long)" style="text;strokeColor=#82b366;fillColor=#d5e8d4;align=left;verticalAlign=top;spacingLeft=4;spacingRight=4;overflow=hidden;rotatable=0;points=[[0,0.5],[1,0.5]];portConstraint=eastwest;whiteSpace=wrap;html=1;rounded=0;" parent="2D_pqOBESdX0pPicwGaX-32" vertex="1">
          <mxGeometry y="26" width="160" height="54" as="geometry" />
        </mxCell>
        <mxCell id="2D_pqOBESdX0pPicwGaX-40" value="&lt;i&gt;&lt;b&gt;GameController&lt;/b&gt;&lt;/i&gt;" style="html=1;whiteSpace=wrap;fillColor=#d5e8d4;strokeColor=#82b366;rounded=0;" parent="WIyWlLk6GJQsqaUBKTNV-1" vertex="1">
          <mxGeometry x="525" y="-300" width="110" height="34" as="geometry" />
        </mxCell>
        <mxCell id="2D_pqOBESdX0pPicwGaX-41" value="ArenaController" style="swimlane;fontStyle=1;align=center;verticalAlign=top;childLayout=stackLayout;horizontal=1;startSize=26;horizontalStack=0;resizeParent=1;resizeLast=0;collapsible=1;marginBottom=0;rounded=0;shadow=0;strokeWidth=1;fillColor=#d5e8d4;strokeColor=#82b366;" parent="WIyWlLk6GJQsqaUBKTNV-1" vertex="1">
          <mxGeometry x="205" y="-550" width="320" height="130" as="geometry">
            <mxRectangle x="230" y="140" width="160" height="26" as="alternateBounds" />
          </mxGeometry>
        </mxCell>
        <mxCell id="2D_pqOBESdX0pPicwGaX-42" value="- playerController : PlayerController" style="text;align=left;verticalAlign=top;spacingLeft=4;spacingRight=4;overflow=hidden;rotatable=0;points=[[0,0.5],[1,0.5]];portConstraint=eastwest;fillColor=#d5e8d4;strokeColor=#82b366;rounded=0;" parent="2D_pqOBESdX0pPicwGaX-41" vertex="1">
          <mxGeometry y="26" width="320" height="26" as="geometry" />
        </mxCell>
        <mxCell id="2D_pqOBESdX0pPicwGaX-43" value="- monsterController : MonsterController" style="text;align=left;verticalAlign=top;spacingLeft=4;spacingRight=4;overflow=hidden;rotatable=0;points=[[0,0.5],[1,0.5]];portConstraint=eastwest;rounded=0;shadow=0;html=0;fillColor=#d5e8d4;strokeColor=#82b366;" parent="2D_pqOBESdX0pPicwGaX-41" vertex="1">
          <mxGeometry y="52" width="320" height="26" as="geometry" />
        </mxCell>
        <mxCell id="2D_pqOBESdX0pPicwGaX-44" value="" style="line;html=1;strokeWidth=1;align=left;verticalAlign=middle;spacingTop=-1;spacingLeft=3;spacingRight=3;rotatable=0;labelPosition=right;points=[];portConstraint=eastwest;fillColor=#d5e8d4;strokeColor=#82b366;rounded=0;" parent="2D_pqOBESdX0pPicwGaX-41" vertex="1">
          <mxGeometry y="78" width="320" height="22" as="geometry" />
        </mxCell>
        <mxCell id="2D_pqOBESdX0pPicwGaX-46" value="&lt;i style=&quot;&quot;&gt;&amp;nbsp;+ step(game : Game, action : GUI.ACTION, time : long)&lt;/i&gt;" style="text;html=1;align=left;verticalAlign=middle;resizable=0;points=[];autosize=1;strokeColor=#82b366;fillColor=#d5e8d4;rounded=0;" parent="2D_pqOBESdX0pPicwGaX-41" vertex="1">
          <mxGeometry y="100" width="320" height="30" as="geometry" />
        </mxCell>
        <mxCell id="2D_pqOBESdX0pPicwGaX-53" value="Â«interfaceÂ»&#xa;MonsterController" style="swimlane;fontStyle=1;align=center;verticalAlign=top;childLayout=stackLayout;horizontal=1;startSize=50;horizontalStack=0;resizeParent=1;resizeLast=0;collapsible=1;marginBottom=0;rounded=0;shadow=0;strokeWidth=1;fillColor=#d5e8d4;strokeColor=#82b366;" parent="WIyWlLk6GJQsqaUBKTNV-1" vertex="1">
          <mxGeometry x="900" y="-555" width="320" height="110" as="geometry">
            <mxRectangle x="230" y="140" width="160" height="26" as="alternateBounds" />
          </mxGeometry>
        </mxCell>
        <mxCell id="2D_pqOBESdX0pPicwGaX-57" value="&lt;i style=&quot;&quot;&gt;&amp;nbsp;+ step(game : Game, action : GUI.ACTION, time : long)&lt;/i&gt;" style="text;html=1;align=left;verticalAlign=middle;resizable=0;points=[];autosize=1;strokeColor=#82b366;fillColor=#d5e8d4;rounded=0;" parent="2D_pqOBESdX0pPicwGaX-53" vertex="1">
          <mxGeometry y="50" width="320" height="30" as="geometry" />
        </mxCell>
        <mxCell id="2D_pqOBESdX0pPicwGaX-59" value="&amp;nbsp;+ moveMonster(monster : Monster, position : Position)" style="text;html=1;align=left;verticalAlign=middle;resizable=0;points=[];autosize=1;strokeColor=#82b366;fillColor=#d5e8d4;rounded=0;" parent="2D_pqOBESdX0pPicwGaX-53" vertex="1">
          <mxGeometry y="80" width="320" height="30" as="geometry" />
        </mxCell>
        <mxCell id="2D_pqOBESdX0pPicwGaX-70" value="MonsterEasyController" style="swimlane;fontStyle=1;align=center;verticalAlign=top;childLayout=stackLayout;horizontal=1;startSize=26;horizontalStack=0;resizeParent=1;resizeParentMax=0;resizeLast=0;collapsible=1;marginBottom=0;whiteSpace=wrap;html=1;fillColor=#d5e8d4;strokeColor=#82b366;rounded=0;" parent="WIyWlLk6GJQsqaUBKTNV-1" vertex="1">
          <mxGeometry x="1250" y="-720" width="220" height="120" as="geometry" />
        </mxCell>
        <mxCell id="2D_pqOBESdX0pPicwGaX-71" value="&amp;nbsp;- lastMovement : long" style="text;strokeColor=#82b366;fillColor=#d5e8d4;align=left;verticalAlign=top;spacingLeft=4;spacingRight=4;overflow=hidden;rotatable=0;points=[[0,0.5],[1,0.5]];portConstraint=eastwest;whiteSpace=wrap;html=1;rounded=0;" parent="2D_pqOBESdX0pPicwGaX-70" vertex="1">
          <mxGeometry y="26" width="220" height="26" as="geometry" />
        </mxCell>
        <mxCell id="2D_pqOBESdX0pPicwGaX-72" value="" style="line;strokeWidth=1;fillColor=#d5e8d4;align=left;verticalAlign=middle;spacingTop=-1;spacingLeft=3;spacingRight=3;rotatable=0;labelPosition=right;points=[];portConstraint=eastwest;strokeColor=#82b366;rounded=0;" parent="2D_pqOBESdX0pPicwGaX-70" vertex="1">
          <mxGeometry y="52" width="220" height="8" as="geometry" />
        </mxCell>
        <mxCell id="2D_pqOBESdX0pPicwGaX-73" value="+ step(game, action, time)" style="text;strokeColor=#314354;fillColor=#647687;align=left;verticalAlign=top;spacingLeft=4;spacingRight=4;overflow=hidden;rotatable=0;points=[[0,0.5],[1,0.5]];portConstraint=eastwest;whiteSpace=wrap;html=1;rounded=0;fontColor=#ffffff;" parent="2D_pqOBESdX0pPicwGaX-70" vertex="1">
          <mxGeometry y="60" width="220" height="30" as="geometry" />
        </mxCell>
        <mxCell id="2D_pqOBESdX0pPicwGaX-74" value="&amp;nbsp;+ moveMonster(monster, position)" style="text;html=1;strokeColor=#314354;fillColor=#647687;align=left;verticalAlign=middle;whiteSpace=wrap;rounded=0;fontColor=#ffffff;" parent="2D_pqOBESdX0pPicwGaX-70" vertex="1">
          <mxGeometry y="90" width="220" height="30" as="geometry" />
        </mxCell>
        <mxCell id="2D_pqOBESdX0pPicwGaX-75" value="MonsterMediumController" style="swimlane;fontStyle=1;align=center;verticalAlign=top;childLayout=stackLayout;horizontal=1;startSize=26;horizontalStack=0;resizeParent=1;resizeParentMax=0;resizeLast=0;collapsible=1;marginBottom=0;whiteSpace=wrap;html=1;fillColor=#d5e8d4;strokeColor=#82b366;rounded=0;" parent="WIyWlLk6GJQsqaUBKTNV-1" vertex="1">
          <mxGeometry x="1250" y="-565" width="220" height="120" as="geometry" />
        </mxCell>
        <mxCell id="2D_pqOBESdX0pPicwGaX-76" value="&amp;nbsp;- lastMovement : long" style="text;strokeColor=#82b366;fillColor=#d5e8d4;align=left;verticalAlign=top;spacingLeft=4;spacingRight=4;overflow=hidden;rotatable=0;points=[[0,0.5],[1,0.5]];portConstraint=eastwest;whiteSpace=wrap;html=1;rounded=0;" parent="2D_pqOBESdX0pPicwGaX-75" vertex="1">
          <mxGeometry y="26" width="220" height="26" as="geometry" />
        </mxCell>
        <mxCell id="2D_pqOBESdX0pPicwGaX-77" value="" style="line;strokeWidth=1;fillColor=#d5e8d4;align=left;verticalAlign=middle;spacingTop=-1;spacingLeft=3;spacingRight=3;rotatable=0;labelPosition=right;points=[];portConstraint=eastwest;strokeColor=#82b366;rounded=0;" parent="2D_pqOBESdX0pPicwGaX-75" vertex="1">
          <mxGeometry y="52" width="220" height="8" as="geometry" />
        </mxCell>
        <mxCell id="2D_pqOBESdX0pPicwGaX-78" value="+ step(game, action, time)" style="text;strokeColor=#314354;fillColor=#647687;align=left;verticalAlign=top;spacingLeft=4;spacingRight=4;overflow=hidden;rotatable=0;points=[[0,0.5],[1,0.5]];portConstraint=eastwest;whiteSpace=wrap;html=1;rounded=0;fontColor=#ffffff;" parent="2D_pqOBESdX0pPicwGaX-75" vertex="1">
          <mxGeometry y="60" width="220" height="30" as="geometry" />
        </mxCell>
        <mxCell id="2D_pqOBESdX0pPicwGaX-79" value="&amp;nbsp;+ moveMonster(monster, position)" style="text;html=1;strokeColor=#314354;fillColor=#647687;align=left;verticalAlign=middle;whiteSpace=wrap;rounded=0;fontColor=#ffffff;" parent="2D_pqOBESdX0pPicwGaX-75" vertex="1">
          <mxGeometry y="90" width="220" height="30" as="geometry" />
        </mxCell>
        <mxCell id="2D_pqOBESdX0pPicwGaX-80" value="MonsterHardController" style="swimlane;fontStyle=1;align=center;verticalAlign=top;childLayout=stackLayout;horizontal=1;startSize=26;horizontalStack=0;resizeParent=1;resizeParentMax=0;resizeLast=0;collapsible=1;marginBottom=0;whiteSpace=wrap;html=1;fillColor=#d5e8d4;strokeColor=#82b366;rounded=0;" parent="WIyWlLk6GJQsqaUBKTNV-1" vertex="1">
          <mxGeometry x="1250" y="-410" width="220" height="120" as="geometry" />
        </mxCell>
        <mxCell id="2D_pqOBESdX0pPicwGaX-81" value="&amp;nbsp;- lastMovement : long" style="text;strokeColor=#82b366;fillColor=#d5e8d4;align=left;verticalAlign=top;spacingLeft=4;spacingRight=4;overflow=hidden;rotatable=0;points=[[0,0.5],[1,0.5]];portConstraint=eastwest;whiteSpace=wrap;html=1;rounded=0;" parent="2D_pqOBESdX0pPicwGaX-80" vertex="1">
          <mxGeometry y="26" width="220" height="26" as="geometry" />
        </mxCell>
        <mxCell id="2D_pqOBESdX0pPicwGaX-82" value="" style="line;strokeWidth=1;fillColor=#d5e8d4;align=left;verticalAlign=middle;spacingTop=-1;spacingLeft=3;spacingRight=3;rotatable=0;labelPosition=right;points=[];portConstraint=eastwest;strokeColor=#82b366;rounded=0;" parent="2D_pqOBESdX0pPicwGaX-80" vertex="1">
          <mxGeometry y="52" width="220" height="8" as="geometry" />
        </mxCell>
        <mxCell id="2D_pqOBESdX0pPicwGaX-83" value="+ step(game, action, time)" style="text;strokeColor=#314354;fillColor=#647687;align=left;verticalAlign=top;spacingLeft=4;spacingRight=4;overflow=hidden;rotatable=0;points=[[0,0.5],[1,0.5]];portConstraint=eastwest;whiteSpace=wrap;html=1;rounded=0;fontColor=#ffffff;" parent="2D_pqOBESdX0pPicwGaX-80" vertex="1">
          <mxGeometry y="60" width="220" height="30" as="geometry" />
        </mxCell>
        <mxCell id="2D_pqOBESdX0pPicwGaX-84" value="&amp;nbsp;+ moveMonster(monster, position)" style="text;html=1;strokeColor=#314354;fillColor=#647687;align=left;verticalAlign=middle;whiteSpace=wrap;rounded=0;fontColor=#ffffff;" parent="2D_pqOBESdX0pPicwGaX-80" vertex="1">
          <mxGeometry y="90" width="220" height="30" as="geometry" />
        </mxCell>
        <mxCell id="2D_pqOBESdX0pPicwGaX-89" value="PlayerCharacterController" style="swimlane;fontStyle=1;align=center;verticalAlign=top;childLayout=stackLayout;horizontal=1;startSize=26;horizontalStack=0;resizeParent=1;resizeParentMax=0;resizeLast=0;collapsible=1;marginBottom=0;whiteSpace=wrap;html=1;fillColor=#d5e8d4;strokeColor=#82b366;rounded=0;" parent="WIyWlLk6GJQsqaUBKTNV-1" vertex="1">
          <mxGeometry x="560" y="-555" width="320" height="180" as="geometry">
            <mxRectangle x="1030" y="450" width="100" height="30" as="alternateBounds" />
          </mxGeometry>
        </mxCell>
        <mxCell id="2D_pqOBESdX0pPicwGaX-92" value="+ movePlayerLeft()&lt;br&gt;+ movePlayerRight()&lt;br&gt;+ movePlayerUp()&lt;br&gt;+ movePlayerDown()&lt;br&gt;+ movePlayer(position : Position)&lt;br&gt;+ doAction()&lt;br&gt;&lt;i&gt;&amp;nbsp;+ step(game : Game, action : GUI.ACTION, time : long)&lt;/i&gt;" style="text;strokeColor=#82b366;fillColor=#d5e8d4;align=left;verticalAlign=top;spacingLeft=4;spacingRight=4;overflow=hidden;rotatable=0;points=[[0,0.5],[1,0.5]];portConstraint=eastwest;whiteSpace=wrap;html=1;rounded=0;" parent="2D_pqOBESdX0pPicwGaX-89" vertex="1">
          <mxGeometry y="26" width="320" height="154" as="geometry" />
        </mxCell>
        <mxCell id="2D_pqOBESdX0pPicwGaX-96" value="&lt;i&gt;Viewer&amp;lt;T&amp;gt;&lt;/i&gt;" style="swimlane;fontStyle=1;align=center;verticalAlign=top;childLayout=stackLayout;horizontal=1;startSize=26;horizontalStack=0;resizeParent=1;resizeParentMax=0;resizeLast=0;collapsible=1;marginBottom=0;whiteSpace=wrap;html=1;fillColor=#dae8fc;strokeColor=#6c8ebf;rounded=0;" parent="WIyWlLk6GJQsqaUBKTNV-1" vertex="1">
          <mxGeometry x="650" y="82" width="170" height="150" as="geometry" />
        </mxCell>
        <mxCell id="2D_pqOBESdX0pPicwGaX-97" value="- model : T" style="text;strokeColor=#6c8ebf;fillColor=#dae8fc;align=left;verticalAlign=top;spacingLeft=4;spacingRight=4;overflow=hidden;rotatable=0;points=[[0,0.5],[1,0.5]];portConstraint=eastwest;whiteSpace=wrap;html=1;rounded=0;" parent="2D_pqOBESdX0pPicwGaX-96" vertex="1">
          <mxGeometry y="26" width="170" height="26" as="geometry" />
        </mxCell>
        <mxCell id="2D_pqOBESdX0pPicwGaX-98" value="" style="line;strokeWidth=1;fillColor=none;align=left;verticalAlign=middle;spacingTop=-1;spacingLeft=3;spacingRight=3;rotatable=0;labelPosition=right;points=[];portConstraint=eastwest;strokeColor=inherit;rounded=0;" parent="2D_pqOBESdX0pPicwGaX-96" vertex="1">
          <mxGeometry y="52" width="170" height="8" as="geometry" />
        </mxCell>
        <mxCell id="2D_pqOBESdX0pPicwGaX-99" value="+ getModel() : T" style="text;strokeColor=#6c8ebf;fillColor=#dae8fc;align=left;verticalAlign=top;spacingLeft=4;spacingRight=4;overflow=hidden;rotatable=0;points=[[0,0.5],[1,0.5]];portConstraint=eastwest;whiteSpace=wrap;html=1;rounded=0;" parent="2D_pqOBESdX0pPicwGaX-96" vertex="1">
          <mxGeometry y="60" width="170" height="26" as="geometry" />
        </mxCell>
        <mxCell id="2D_pqOBESdX0pPicwGaX-100" value="&amp;nbsp;+ draw(gui : GUI)" style="text;strokeColor=#6c8ebf;align=left;fillColor=#dae8fc;html=1;verticalAlign=middle;whiteSpace=wrap;rounded=0;" parent="2D_pqOBESdX0pPicwGaX-96" vertex="1">
          <mxGeometry y="86" width="170" height="34" as="geometry" />
        </mxCell>
        <mxCell id="2D_pqOBESdX0pPicwGaX-101" value="&lt;i&gt;&amp;nbsp;# drawElements(gui : GUI)&lt;/i&gt;" style="text;html=1;align=left;verticalAlign=middle;resizable=0;points=[];autosize=1;strokeColor=#6c8ebf;fillColor=#dae8fc;rounded=0;" parent="2D_pqOBESdX0pPicwGaX-96" vertex="1">
          <mxGeometry y="120" width="170" height="30" as="geometry" />
        </mxCell>
        <mxCell id="2D_pqOBESdX0pPicwGaX-102" value="&lt;b&gt;GameViewer&lt;/b&gt;" style="swimlane;fontStyle=0;childLayout=stackLayout;horizontal=1;startSize=26;fillColor=#dae8fc;horizontalStack=0;resizeParent=1;resizeParentMax=0;resizeLast=0;collapsible=1;marginBottom=0;whiteSpace=wrap;html=1;strokeColor=#6c8ebf;rounded=0;" parent="WIyWlLk6GJQsqaUBKTNV-1" vertex="1">
          <mxGeometry x="870" y="-38" width="410" height="120" as="geometry" />
        </mxCell>
        <mxCell id="2D_pqOBESdX0pPicwGaX-103" value="+ drawElements(gui : GUI)" style="text;strokeColor=#6c8ebf;fillColor=#dae8fc;align=left;verticalAlign=top;spacingLeft=4;spacingRight=4;overflow=hidden;rotatable=0;points=[[0,0.5],[1,0.5]];portConstraint=eastwest;whiteSpace=wrap;html=1;rounded=0;" parent="2D_pqOBESdX0pPicwGaX-102" vertex="1">
          <mxGeometry y="26" width="410" height="26" as="geometry" />
        </mxCell>
        <mxCell id="2D_pqOBESdX0pPicwGaX-104" value="- drawElements(gui : GUI, elements : List&amp;lt;T&amp;gt;, viewer : ElementViewer&amp;lt;T&amp;gt;)" style="text;strokeColor=#6c8ebf;fillColor=#dae8fc;align=left;verticalAlign=top;spacingLeft=4;spacingRight=4;overflow=hidden;rotatable=0;points=[[0,0.5],[1,0.5]];portConstraint=eastwest;whiteSpace=wrap;html=1;rounded=0;" parent="2D_pqOBESdX0pPicwGaX-102" vertex="1">
          <mxGeometry y="52" width="410" height="26" as="geometry" />
        </mxCell>
        <mxCell id="2D_pqOBESdX0pPicwGaX-105" value="- drawElement(gui : GUI, element : List&amp;lt;T&amp;gt;, viewer : ElementViewer&amp;lt;T&amp;gt;)&lt;br&gt;&lt;span style=&quot;background-color: rgb(205, 162, 190);&quot;&gt;+ updateScore(newScore : int)&lt;/span&gt;" style="text;strokeColor=#6c8ebf;fillColor=#dae8fc;align=left;verticalAlign=top;spacingLeft=4;spacingRight=4;overflow=hidden;rotatable=0;points=[[0,0.5],[1,0.5]];portConstraint=eastwest;whiteSpace=wrap;html=1;rounded=0;" parent="2D_pqOBESdX0pPicwGaX-102" vertex="1">
          <mxGeometry y="78" width="410" height="42" as="geometry" />
        </mxCell>
        <mxCell id="ExHl49rjy0cBEna2JtWI-99" style="edgeStyle=orthogonalEdgeStyle;rounded=0;orthogonalLoop=1;jettySize=auto;html=1;exitX=0.5;exitY=0;exitDx=0;exitDy=0;fillColor=#dae8fc;strokeColor=#6c8ebf;" parent="WIyWlLk6GJQsqaUBKTNV-1" source="2D_pqOBESdX0pPicwGaX-106" target="2D_pqOBESdX0pPicwGaX-96" edge="1">
          <mxGeometry relative="1" as="geometry">
            <Array as="points">
              <mxPoint x="995" y="253" />
              <mxPoint x="840" y="253" />
              <mxPoint x="840" y="157" />
            </Array>
          </mxGeometry>
        </mxCell>
        <mxCell id="2D_pqOBESdX0pPicwGaX-106" value="&lt;b&gt;MainMenuView&lt;/b&gt;" style="swimlane;fontStyle=0;childLayout=stackLayout;horizontal=1;startSize=26;fillColor=#dae8fc;horizontalStack=0;resizeParent=1;resizeParentMax=0;resizeLast=0;collapsible=1;marginBottom=0;whiteSpace=wrap;html=1;strokeColor=#6c8ebf;rounded=0;" parent="WIyWlLk6GJQsqaUBKTNV-1" vertex="1">
          <mxGeometry x="870" y="274" width="250" height="52" as="geometry" />
        </mxCell>
        <mxCell id="2D_pqOBESdX0pPicwGaX-107" value="+ drawElements(gui : GUI)" style="text;strokeColor=#6c8ebf;fillColor=#dae8fc;align=left;verticalAlign=top;spacingLeft=4;spacingRight=4;overflow=hidden;rotatable=0;points=[[0,0.5],[1,0.5]];portConstraint=eastwest;whiteSpace=wrap;html=1;rounded=0;" parent="2D_pqOBESdX0pPicwGaX-106" vertex="1">
          <mxGeometry y="26" width="250" height="26" as="geometry" />
        </mxCell>
        <mxCell id="2D_pqOBESdX0pPicwGaX-112" value="" style="swimlane;startSize=0;fillColor=#dae8fc;strokeColor=#6c8ebf;rounded=0;" parent="WIyWlLk6GJQsqaUBKTNV-1" vertex="1">
          <mxGeometry x="1770" y="-136" width="170" height="36" as="geometry" />
        </mxCell>
        <mxCell id="2D_pqOBESdX0pPicwGaX-113" value="+ draw(element : T, gui : GUI)" style="text;html=1;align=center;verticalAlign=middle;resizable=0;points=[];autosize=1;strokeColor=#6c8ebf;fillColor=#dae8fc;rounded=0;" parent="2D_pqOBESdX0pPicwGaX-112" vertex="1">
          <mxGeometry x="-5" width="180" height="30" as="geometry" />
        </mxCell>
        <mxCell id="ExHl49rjy0cBEna2JtWI-110" style="edgeStyle=orthogonalEdgeStyle;rounded=0;orthogonalLoop=1;jettySize=auto;html=1;exitX=0;exitY=0.5;exitDx=0;exitDy=0;fillColor=#dae8fc;strokeColor=#6c8ebf;" parent="WIyWlLk6GJQsqaUBKTNV-1" source="2D_pqOBESdX0pPicwGaX-110" target="2D_pqOBESdX0pPicwGaX-102" edge="1">
          <mxGeometry relative="1" as="geometry">
            <Array as="points">
              <mxPoint x="1230" y="-161" />
            </Array>
          </mxGeometry>
        </mxCell>
        <mxCell id="2D_pqOBESdX0pPicwGaX-110" value="&lt;b&gt;Â«interfaceÂ»&lt;br&gt;ElementViewer&lt;/b&gt;" style="html=1;whiteSpace=wrap;fillColor=#dae8fc;strokeColor=#6c8ebf;rounded=0;" parent="WIyWlLk6GJQsqaUBKTNV-1" vertex="1">
          <mxGeometry x="1770" y="-186" width="170" height="50" as="geometry" />
        </mxCell>
        <mxCell id="2D_pqOBESdX0pPicwGaX-114" value="PlayerViewer" style="swimlane;fontStyle=1;align=center;verticalAlign=top;childLayout=stackLayout;horizontal=1;startSize=26;horizontalStack=0;resizeParent=1;resizeParentMax=0;resizeLast=0;collapsible=1;marginBottom=0;whiteSpace=wrap;html=1;fillColor=#dae8fc;strokeColor=#6c8ebf;rounded=0;" parent="WIyWlLk6GJQsqaUBKTNV-1" vertex="1">
          <mxGeometry x="1370" y="-28" width="190" height="70" as="geometry" />
        </mxCell>
        <mxCell id="2D_pqOBESdX0pPicwGaX-115" value="+ draw(player : Player, gui : GUI, playerNumber : int)" style="text;strokeColor=#6c8ebf;fillColor=#dae8fc;align=left;verticalAlign=top;spacingLeft=4;spacingRight=4;overflow=hidden;rotatable=0;points=[[0,0.5],[1,0.5]];portConstraint=eastwest;whiteSpace=wrap;html=1;rounded=0;" parent="2D_pqOBESdX0pPicwGaX-114" vertex="1">
          <mxGeometry y="26" width="190" height="44" as="geometry" />
        </mxCell>
        <mxCell id="2D_pqOBESdX0pPicwGaX-118" value="MonsterViewer" style="swimlane;fontStyle=1;align=center;verticalAlign=top;childLayout=stackLayout;horizontal=1;startSize=26;horizontalStack=0;resizeParent=1;resizeParentMax=0;resizeLast=0;collapsible=1;marginBottom=0;whiteSpace=wrap;html=1;fillColor=#dae8fc;strokeColor=#6c8ebf;rounded=0;" parent="WIyWlLk6GJQsqaUBKTNV-1" vertex="1">
          <mxGeometry x="1585" y="-28" width="210" height="70" as="geometry" />
        </mxCell>
        <mxCell id="2D_pqOBESdX0pPicwGaX-119" value="+ draw(monster : Monster, gui : GUI, type : int)" style="text;strokeColor=#6c8ebf;fillColor=#dae8fc;align=left;verticalAlign=top;spacingLeft=4;spacingRight=4;overflow=hidden;rotatable=0;points=[[0,0.5],[1,0.5]];portConstraint=eastwest;whiteSpace=wrap;html=1;rounded=0;" parent="2D_pqOBESdX0pPicwGaX-118" vertex="1">
          <mxGeometry y="26" width="210" height="44" as="geometry" />
        </mxCell>
        <mxCell id="2D_pqOBESdX0pPicwGaX-126" value="WallViewer" style="swimlane;fontStyle=1;align=center;verticalAlign=top;childLayout=stackLayout;horizontal=1;startSize=26;horizontalStack=0;resizeParent=1;resizeParentMax=0;resizeLast=0;collapsible=1;marginBottom=0;whiteSpace=wrap;html=1;fillColor=#dae8fc;strokeColor=#6c8ebf;rounded=0;" parent="WIyWlLk6GJQsqaUBKTNV-1" vertex="1">
          <mxGeometry x="1815" y="-28" width="210" height="52" as="geometry" />
        </mxCell>
        <mxCell id="2D_pqOBESdX0pPicwGaX-127" value="+ draw(wall : Wall, gui : GUI)" style="text;strokeColor=#6c8ebf;fillColor=#dae8fc;align=left;verticalAlign=top;spacingLeft=4;spacingRight=4;overflow=hidden;rotatable=0;points=[[0,0.5],[1,0.5]];portConstraint=eastwest;whiteSpace=wrap;html=1;rounded=0;" parent="2D_pqOBESdX0pPicwGaX-126" vertex="1">
          <mxGeometry y="26" width="210" height="26" as="geometry" />
        </mxCell>
        <mxCell id="2D_pqOBESdX0pPicwGaX-128" value="IceViewer" style="swimlane;fontStyle=1;align=center;verticalAlign=top;childLayout=stackLayout;horizontal=1;startSize=26;horizontalStack=0;resizeParent=1;resizeParentMax=0;resizeLast=0;collapsible=1;marginBottom=0;whiteSpace=wrap;html=1;fillColor=#dae8fc;strokeColor=#6c8ebf;rounded=0;" parent="WIyWlLk6GJQsqaUBKTNV-1" vertex="1">
          <mxGeometry x="2055" y="-28" width="210" height="52" as="geometry" />
        </mxCell>
        <mxCell id="2D_pqOBESdX0pPicwGaX-129" value="+ draw(ice : Ice, gui : GUI)" style="text;strokeColor=#6c8ebf;fillColor=#dae8fc;align=left;verticalAlign=top;spacingLeft=4;spacingRight=4;overflow=hidden;rotatable=0;points=[[0,0.5],[1,0.5]];portConstraint=eastwest;whiteSpace=wrap;html=1;rounded=0;" parent="2D_pqOBESdX0pPicwGaX-128" vertex="1">
          <mxGeometry y="26" width="210" height="26" as="geometry" />
        </mxCell>
        <mxCell id="2D_pqOBESdX0pPicwGaX-130" value="&lt;b&gt;GameState&lt;/b&gt;" style="swimlane;fontStyle=0;childLayout=stackLayout;horizontal=1;startSize=26;fillColor=#fff2cc;horizontalStack=0;resizeParent=1;resizeParentMax=0;resizeLast=0;collapsible=1;marginBottom=0;whiteSpace=wrap;html=1;rounded=0;labelBackgroundColor=none;strokeColor=#d6b656;" parent="WIyWlLk6GJQsqaUBKTNV-1" vertex="1">
          <mxGeometry x="170" y="360" width="220" height="78" as="geometry" />
        </mxCell>
        <mxCell id="2D_pqOBESdX0pPicwGaX-131" value="# getViewer() : Viewer&amp;lt;Arena&amp;gt;" style="text;align=left;verticalAlign=top;spacingLeft=4;spacingRight=4;overflow=hidden;rotatable=0;points=[[0,0.5],[1,0.5]];portConstraint=eastwest;whiteSpace=wrap;html=1;rounded=0;labelBackgroundColor=none;fillColor=#f8cecc;strokeColor=#b85450;" parent="2D_pqOBESdX0pPicwGaX-130" vertex="1">
          <mxGeometry y="26" width="220" height="26" as="geometry" />
        </mxCell>
        <mxCell id="2D_pqOBESdX0pPicwGaX-132" value="# getController() : Controller&amp;lt;Arena&amp;gt;" style="text;align=left;verticalAlign=top;spacingLeft=4;spacingRight=4;overflow=hidden;rotatable=0;points=[[0,0.5],[1,0.5]];portConstraint=eastwest;whiteSpace=wrap;html=1;rounded=0;labelBackgroundColor=none;fillColor=#f8cecc;strokeColor=#b85450;" parent="2D_pqOBESdX0pPicwGaX-130" vertex="1">
          <mxGeometry y="52" width="220" height="26" as="geometry" />
        </mxCell>
        <mxCell id="2D_pqOBESdX0pPicwGaX-134" value="Arena" style="swimlane;fontStyle=1;align=center;verticalAlign=top;childLayout=stackLayout;horizontal=1;startSize=26;horizontalStack=0;resizeParent=1;resizeParentMax=0;resizeLast=0;collapsible=1;marginBottom=0;whiteSpace=wrap;html=1;fillColor=#ffe6cc;strokeColor=#d79b00;rounded=0;" parent="WIyWlLk6GJQsqaUBKTNV-1" vertex="1">
          <mxGeometry x="200" y="550" width="290" height="480" as="geometry" />
        </mxCell>
        <mxCell id="2D_pqOBESdX0pPicwGaX-135" value="- width : int&lt;br&gt;- height : int&lt;br&gt;- playerCharacter : PlayerCharacter&lt;br&gt;- playerCharacter2 : PlayerCharacter&lt;br&gt;- monsters : List&amp;lt;Monster&amp;gt;&lt;br&gt;- walls : List&amp;lt;Wall&amp;gt;&lt;br&gt;- iceBlocks : List&amp;lt;Ice&amp;gt;&lt;br&gt;- powerUp : PowerUp&lt;br&gt;- fruit : List&amp;lt;Fruit&amp;gt;" style="text;strokeColor=#d79b00;fillColor=#ffe6cc;align=left;verticalAlign=top;spacingLeft=4;spacingRight=4;overflow=hidden;rotatable=0;points=[[0,0.5],[1,0.5]];portConstraint=eastwest;whiteSpace=wrap;html=1;rounded=0;" parent="2D_pqOBESdX0pPicwGaX-134" vertex="1">
          <mxGeometry y="26" width="290" height="134" as="geometry" />
        </mxCell>
        <mxCell id="2D_pqOBESdX0pPicwGaX-136" value="" style="line;strokeWidth=1;fillColor=#ffe6cc;align=left;verticalAlign=middle;spacingTop=-1;spacingLeft=3;spacingRight=3;rotatable=0;labelPosition=right;points=[];portConstraint=eastwest;strokeColor=#d79b00;rounded=0;" parent="2D_pqOBESdX0pPicwGaX-134" vertex="1">
          <mxGeometry y="160" width="290" height="8" as="geometry" />
        </mxCell>
        <mxCell id="2D_pqOBESdX0pPicwGaX-137" value="+ getWidth() : int&lt;br&gt;+ getHeight() : int&lt;br&gt;+ getPlayer1() : Player&lt;br&gt;+ getPlayer2() : Player&lt;br&gt;+ setPlayer1(player : Player)&lt;br&gt;+ setPlayer2(player : Player)&lt;br&gt;+ getMonsters() : List&amp;lt;Monster&amp;gt;&lt;br&gt;+ setMonsters(monsters : List&amp;lt;Monster&amp;gt;&lt;br&gt;+ getWalls() : List&amp;lt;Wall&amp;gt;&lt;br&gt;+setWalls(walls : List&amp;lt;Wall&amp;gt;)&lt;br&gt;+ isEmpty(position : Position) : boolean&lt;br&gt;+ isMonster(position : Position) : boolean&lt;br&gt;+ getIceBlocks() : List&amp;lt;Ice&amp;gt;&lt;br&gt;+ setIceBlocks(iceBlocks : List&amp;lt;Ice&amp;gt;)&lt;br&gt;+ createIce(position : Position, direction : Direction)&lt;br&gt;+ destroyIce(position Position, direction : Direction)&lt;br&gt;+ setPowerUp(powerUp : PowerUp)&lt;br&gt;+ existsPowerUp() : boolean&lt;br&gt;+ removePowerUp()&lt;br&gt;+ getFruit() : List&amp;lt;Fruit&amp;gt;&lt;br&gt;+ setFruit(fruit : List&amp;lt;Fruit&amp;gt;)" style="text;strokeColor=#d79b00;fillColor=#ffe6cc;align=left;verticalAlign=top;spacingLeft=4;spacingRight=4;overflow=hidden;rotatable=0;points=[[0,0.5],[1,0.5]];portConstraint=eastwest;whiteSpace=wrap;html=1;rounded=0;" parent="2D_pqOBESdX0pPicwGaX-134" vertex="1">
          <mxGeometry y="168" width="290" height="312" as="geometry" />
        </mxCell>
        <mxCell id="2D_pqOBESdX0pPicwGaX-139" value="PowerUpViewer" style="swimlane;fontStyle=1;align=center;verticalAlign=top;childLayout=stackLayout;horizontal=1;startSize=26;horizontalStack=0;resizeParent=1;resizeParentMax=0;resizeLast=0;collapsible=1;marginBottom=0;whiteSpace=wrap;html=1;fillColor=#dae8fc;strokeColor=#6c8ebf;rounded=0;" parent="WIyWlLk6GJQsqaUBKTNV-1" vertex="1">
          <mxGeometry x="1980" y="-187" width="210" height="60" as="geometry" />
        </mxCell>
        <mxCell id="2D_pqOBESdX0pPicwGaX-140" value="+ draw(powerUp : PowerUp, gui : GUI)" style="text;strokeColor=#6c8ebf;fillColor=#dae8fc;align=left;verticalAlign=top;spacingLeft=4;spacingRight=4;overflow=hidden;rotatable=0;points=[[0,0.5],[1,0.5]];portConstraint=eastwest;whiteSpace=wrap;html=1;rounded=0;" parent="2D_pqOBESdX0pPicwGaX-139" vertex="1">
          <mxGeometry y="26" width="210" height="34" as="geometry" />
        </mxCell>
        <mxCell id="2D_pqOBESdX0pPicwGaX-141" value="LoaderArenaBuilder" style="swimlane;fontStyle=1;align=center;verticalAlign=top;childLayout=stackLayout;horizontal=1;startSize=26;horizontalStack=0;resizeParent=1;resizeParentMax=0;resizeLast=0;collapsible=1;marginBottom=0;whiteSpace=wrap;html=1;fillColor=#ffe6cc;strokeColor=#d79b00;rounded=0;" parent="WIyWlLk6GJQsqaUBKTNV-1" vertex="1">
          <mxGeometry x="200" y="1050" width="290" height="230" as="geometry" />
        </mxCell>
        <mxCell id="2D_pqOBESdX0pPicwGaX-142" value="- level : int&lt;br&gt;- lines : List&amp;lt;String&amp;gt;" style="text;strokeColor=#d79b00;fillColor=#ffe6cc;align=left;verticalAlign=top;spacingLeft=4;spacingRight=4;overflow=hidden;rotatable=0;points=[[0,0.5],[1,0.5]];portConstraint=eastwest;whiteSpace=wrap;html=1;rounded=0;" parent="2D_pqOBESdX0pPicwGaX-141" vertex="1">
          <mxGeometry y="26" width="290" height="34" as="geometry" />
        </mxCell>
        <mxCell id="Sui0xf1oX-jlDOztc1R0-41" value="" style="endArrow=none;html=1;rounded=0;exitX=0.001;exitY=0.197;exitDx=0;exitDy=0;exitPerimeter=0;" parent="2D_pqOBESdX0pPicwGaX-141" source="Sui0xf1oX-jlDOztc1R0-40" edge="1">
          <mxGeometry width="50" height="50" relative="1" as="geometry">
            <mxPoint x="270" y="100" as="sourcePoint" />
            <mxPoint x="320" y="50" as="targetPoint" />
            <Array as="points">
              <mxPoint x="320" y="135" />
            </Array>
          </mxGeometry>
        </mxCell>
        <mxCell id="2D_pqOBESdX0pPicwGaX-143" value="" style="line;strokeWidth=1;fillColor=#ffe6cc;align=left;verticalAlign=middle;spacingTop=-1;spacingLeft=3;spacingRight=3;rotatable=0;labelPosition=right;points=[];portConstraint=eastwest;strokeColor=#d79b00;rounded=0;" parent="2D_pqOBESdX0pPicwGaX-141" vertex="1">
          <mxGeometry y="60" width="290" height="8" as="geometry" />
        </mxCell>
        <mxCell id="2D_pqOBESdX0pPicwGaX-144" value="+ createArena() : Arena&lt;br&gt;- readLines(br : BufferedReader) : List&amp;lt;String&amp;gt;&lt;br&gt;- getWidth() : int&lt;br&gt;- getHeight() : int&lt;br&gt;- createWalls() : List&amp;lt;Wall&amp;gt;&lt;br&gt;- createMonsters() : List&amp;lt;Monster&amp;gt;&lt;br&gt;- createPlayer() : Player&lt;br&gt;- createPlayer2() : Player&lt;br&gt;&amp;nbsp;- createIce() : List&amp;lt;Ice&amp;gt;" style="text;strokeColor=#d79b00;fillColor=#ffe6cc;align=left;verticalAlign=top;spacingLeft=4;spacingRight=4;overflow=hidden;rotatable=0;points=[[0,0.5],[1,0.5]];portConstraint=eastwest;whiteSpace=wrap;html=1;rounded=0;" parent="2D_pqOBESdX0pPicwGaX-141" vertex="1">
          <mxGeometry y="68" width="290" height="162" as="geometry" />
        </mxCell>
        <mxCell id="2D_pqOBESdX0pPicwGaX-145" value="PlayerCharacter" style="swimlane;fontStyle=1;align=center;verticalAlign=top;childLayout=stackLayout;horizontal=1;startSize=26;horizontalStack=0;resizeParent=1;resizeParentMax=0;resizeLast=0;collapsible=1;marginBottom=0;whiteSpace=wrap;html=1;fillColor=#ffe6cc;strokeColor=#d79b00;rounded=0;" parent="WIyWlLk6GJQsqaUBKTNV-1" vertex="1">
          <mxGeometry x="-1010" y="550" width="280" height="340" as="geometry" />
        </mxCell>
        <mxCell id="2D_pqOBESdX0pPicwGaX-146" value="- hp : int&lt;br&gt;- powerUps : List&amp;lt;PowerUp&amp;gt;&lt;br&gt;- facingDirection : Direction&lt;br&gt;- score : int&lt;br&gt;- observers : List&amp;lt;ScoreObserver&amp;gt;&lt;br&gt;- playerNumber : int" style="text;strokeColor=#d79b00;fillColor=#ffe6cc;align=left;verticalAlign=top;spacingLeft=4;spacingRight=4;overflow=hidden;rotatable=0;points=[[0,0.5],[1,0.5]];portConstraint=eastwest;whiteSpace=wrap;html=1;rounded=0;" parent="2D_pqOBESdX0pPicwGaX-145" vertex="1">
          <mxGeometry y="26" width="280" height="94" as="geometry" />
        </mxCell>
        <mxCell id="2D_pqOBESdX0pPicwGaX-147" value="" style="line;strokeWidth=1;fillColor=#ffe6cc;align=left;verticalAlign=middle;spacingTop=-1;spacingLeft=3;spacingRight=3;rotatable=0;labelPosition=right;points=[];portConstraint=eastwest;strokeColor=#d79b00;rounded=0;" parent="2D_pqOBESdX0pPicwGaX-145" vertex="1">
          <mxGeometry y="120" width="280" height="8" as="geometry" />
        </mxCell>
        <mxCell id="2D_pqOBESdX0pPicwGaX-148" value="+ decreaseHp()&lt;br&gt;+ getHp() : int&lt;br&gt;+ setDirection(direction : Direction)&lt;br&gt;+ getDirection() : Direction&lt;br&gt;+ consumePowerUp(slotNumber : int)&lt;br&gt;+ pickUpPowerUp(powerUp : PowerUp)&lt;br&gt;+ getFront() : Position&lt;br&gt;+ pickUpFruit(fruit : Fruit)&lt;br&gt;&lt;span style=&quot;background-color: rgb(205, 162, 190);&quot;&gt;- notifyObservers()&lt;/span&gt;&lt;br&gt;+ addScore(newScore : int)&lt;br&gt;+ getPlayerNumber() : int&lt;br&gt;+ setPlayerNumber(n : int)" style="text;strokeColor=#d79b00;fillColor=#ffe6cc;align=left;verticalAlign=top;spacingLeft=4;spacingRight=4;overflow=hidden;rotatable=0;points=[[0,0.5],[1,0.5]];portConstraint=eastwest;whiteSpace=wrap;html=1;rounded=0;" parent="2D_pqOBESdX0pPicwGaX-145" vertex="1">
          <mxGeometry y="128" width="280" height="212" as="geometry" />
        </mxCell>
        <mxCell id="2D_pqOBESdX0pPicwGaX-153" value="Wall" style="swimlane;fontStyle=1;align=center;verticalAlign=top;childLayout=stackLayout;horizontal=1;startSize=26;horizontalStack=0;resizeParent=1;resizeParentMax=0;resizeLast=0;collapsible=1;marginBottom=0;whiteSpace=wrap;html=1;fillColor=#ffe6cc;strokeColor=#d79b00;rounded=0;" parent="WIyWlLk6GJQsqaUBKTNV-1" vertex="1">
          <mxGeometry x="-530" y="551" width="160" height="34" as="geometry" />
        </mxCell>
        <mxCell id="2D_pqOBESdX0pPicwGaX-155" value="" style="line;strokeWidth=1;fillColor=#ffe6cc;align=left;verticalAlign=middle;spacingTop=-1;spacingLeft=3;spacingRight=3;rotatable=0;labelPosition=right;points=[];portConstraint=eastwest;strokeColor=#d79b00;rounded=0;" parent="2D_pqOBESdX0pPicwGaX-153" vertex="1">
          <mxGeometry y="26" width="160" height="8" as="geometry" />
        </mxCell>
        <mxCell id="2D_pqOBESdX0pPicwGaX-157" value="Ice" style="swimlane;fontStyle=1;align=center;verticalAlign=top;childLayout=stackLayout;horizontal=1;startSize=26;horizontalStack=0;resizeParent=1;resizeParentMax=0;resizeLast=0;collapsible=1;marginBottom=0;whiteSpace=wrap;html=1;fillColor=#ffe6cc;strokeColor=#d79b00;rounded=0;" parent="WIyWlLk6GJQsqaUBKTNV-1" vertex="1">
          <mxGeometry x="-359" y="551" width="160" height="34" as="geometry" />
        </mxCell>
        <mxCell id="2D_pqOBESdX0pPicwGaX-159" value="" style="line;strokeWidth=1;fillColor=#ffe6cc;align=left;verticalAlign=middle;spacingTop=-1;spacingLeft=3;spacingRight=3;rotatable=0;labelPosition=right;points=[];portConstraint=eastwest;strokeColor=#d79b00;rounded=0;" parent="2D_pqOBESdX0pPicwGaX-157" vertex="1">
          <mxGeometry y="26" width="160" height="8" as="geometry" />
        </mxCell>
        <mxCell id="2D_pqOBESdX0pPicwGaX-161" value="PowerUp" style="swimlane;fontStyle=1;align=center;verticalAlign=top;childLayout=stackLayout;horizontal=1;startSize=26;horizontalStack=0;resizeParent=1;resizeParentMax=0;resizeLast=0;collapsible=1;marginBottom=0;whiteSpace=wrap;html=1;fillColor=#ffe6cc;strokeColor=#d79b00;rounded=0;" parent="WIyWlLk6GJQsqaUBKTNV-1" vertex="1">
          <mxGeometry y="551" width="160" height="130" as="geometry" />
        </mxCell>
        <mxCell id="2D_pqOBESdX0pPicwGaX-162" value="- type : String" style="text;strokeColor=#d79b00;fillColor=#ffe6cc;align=left;verticalAlign=top;spacingLeft=4;spacingRight=4;overflow=hidden;rotatable=0;points=[[0,0.5],[1,0.5]];portConstraint=eastwest;whiteSpace=wrap;html=1;rounded=0;" parent="2D_pqOBESdX0pPicwGaX-161" vertex="1">
          <mxGeometry y="26" width="160" height="26" as="geometry" />
        </mxCell>
        <mxCell id="2D_pqOBESdX0pPicwGaX-163" value="" style="line;strokeWidth=1;fillColor=#ffe6cc;align=left;verticalAlign=middle;spacingTop=-1;spacingLeft=3;spacingRight=3;rotatable=0;labelPosition=right;points=[];portConstraint=eastwest;strokeColor=#d79b00;rounded=0;" parent="2D_pqOBESdX0pPicwGaX-161" vertex="1">
          <mxGeometry y="52" width="160" height="8" as="geometry" />
        </mxCell>
        <mxCell id="2D_pqOBESdX0pPicwGaX-164" value="+ getPowerUpType() : String&lt;br&gt;+ setPowerUpType( type : String)" style="text;strokeColor=#d79b00;fillColor=#ffe6cc;align=left;verticalAlign=top;spacingLeft=4;spacingRight=4;overflow=hidden;rotatable=0;points=[[0,0.5],[1,0.5]];portConstraint=eastwest;whiteSpace=wrap;html=1;rounded=0;" parent="2D_pqOBESdX0pPicwGaX-161" vertex="1">
          <mxGeometry y="60" width="160" height="70" as="geometry" />
        </mxCell>
        <mxCell id="2D_pqOBESdX0pPicwGaX-167" value="Monster" style="swimlane;fontStyle=1;align=center;verticalAlign=top;childLayout=stackLayout;horizontal=1;startSize=26;horizontalStack=0;resizeParent=1;resizeParentMax=0;resizeLast=0;collapsible=1;marginBottom=0;whiteSpace=wrap;html=1;fillColor=#ffe6cc;strokeColor=#d79b00;rounded=0;" parent="WIyWlLk6GJQsqaUBKTNV-1" vertex="1">
          <mxGeometry x="-700" y="550" width="160" height="100" as="geometry" />
        </mxCell>
        <mxCell id="2D_pqOBESdX0pPicwGaX-168" value="- type : int" style="text;strokeColor=#d79b00;fillColor=#ffe6cc;align=left;verticalAlign=top;spacingLeft=4;spacingRight=4;overflow=hidden;rotatable=0;points=[[0,0.5],[1,0.5]];portConstraint=eastwest;whiteSpace=wrap;html=1;rounded=0;" parent="2D_pqOBESdX0pPicwGaX-167" vertex="1">
          <mxGeometry y="26" width="160" height="26" as="geometry" />
        </mxCell>
        <mxCell id="2D_pqOBESdX0pPicwGaX-169" value="" style="line;strokeWidth=1;fillColor=#ffe6cc;align=left;verticalAlign=middle;spacingTop=-1;spacingLeft=3;spacingRight=3;rotatable=0;labelPosition=right;points=[];portConstraint=eastwest;strokeColor=#d79b00;rounded=0;" parent="2D_pqOBESdX0pPicwGaX-167" vertex="1">
          <mxGeometry y="52" width="160" height="8" as="geometry" />
        </mxCell>
        <mxCell id="2D_pqOBESdX0pPicwGaX-170" value="+ getMonsterType() : int&lt;br&gt;+ setMonsterType(type : int)" style="text;strokeColor=#d79b00;fillColor=#ffe6cc;align=left;verticalAlign=top;spacingLeft=4;spacingRight=4;overflow=hidden;rotatable=0;points=[[0,0.5],[1,0.5]];portConstraint=eastwest;whiteSpace=wrap;html=1;rounded=0;" parent="2D_pqOBESdX0pPicwGaX-167" vertex="1">
          <mxGeometry y="60" width="160" height="40" as="geometry" />
        </mxCell>
        <mxCell id="2D_pqOBESdX0pPicwGaX-171" value="Element" style="swimlane;fontStyle=1;align=center;verticalAlign=top;childLayout=stackLayout;horizontal=1;startSize=26;horizontalStack=0;resizeParent=1;resizeParentMax=0;resizeLast=0;collapsible=1;marginBottom=0;whiteSpace=wrap;html=1;fillColor=#ffe6cc;strokeColor=#d79b00;rounded=0;" parent="WIyWlLk6GJQsqaUBKTNV-1" vertex="1">
          <mxGeometry x="-470" y="760" width="160" height="110" as="geometry" />
        </mxCell>
        <mxCell id="2D_pqOBESdX0pPicwGaX-172" value="- position : Position" style="text;strokeColor=#d79b00;fillColor=#ffe6cc;align=left;verticalAlign=top;spacingLeft=4;spacingRight=4;overflow=hidden;rotatable=0;points=[[0,0.5],[1,0.5]];portConstraint=eastwest;whiteSpace=wrap;html=1;rounded=0;" parent="2D_pqOBESdX0pPicwGaX-171" vertex="1">
          <mxGeometry y="26" width="160" height="26" as="geometry" />
        </mxCell>
        <mxCell id="2D_pqOBESdX0pPicwGaX-173" value="" style="line;strokeWidth=1;fillColor=#ffe6cc;align=left;verticalAlign=middle;spacingTop=-1;spacingLeft=3;spacingRight=3;rotatable=0;labelPosition=right;points=[];portConstraint=eastwest;strokeColor=#d79b00;rounded=0;" parent="2D_pqOBESdX0pPicwGaX-171" vertex="1">
          <mxGeometry y="52" width="160" height="8" as="geometry" />
        </mxCell>
        <mxCell id="2D_pqOBESdX0pPicwGaX-174" value="+ getPosition() : Position&lt;br&gt;+ setPosition( position : Position)" style="text;strokeColor=#d79b00;fillColor=#ffe6cc;align=left;verticalAlign=top;spacingLeft=4;spacingRight=4;overflow=hidden;rotatable=0;points=[[0,0.5],[1,0.5]];portConstraint=eastwest;whiteSpace=wrap;html=1;rounded=0;" parent="2D_pqOBESdX0pPicwGaX-171" vertex="1">
          <mxGeometry y="60" width="160" height="50" as="geometry" />
        </mxCell>
        <mxCell id="2D_pqOBESdX0pPicwGaX-175" value="Position" style="swimlane;fontStyle=1;align=center;verticalAlign=top;childLayout=stackLayout;horizontal=1;startSize=26;horizontalStack=0;resizeParent=1;resizeParentMax=0;resizeLast=0;collapsible=1;marginBottom=0;whiteSpace=wrap;html=1;fillColor=#ffe6cc;strokeColor=#d79b00;rounded=0;" parent="WIyWlLk6GJQsqaUBKTNV-1" vertex="1">
          <mxGeometry x="-235" y="710" width="160" height="250" as="geometry" />
        </mxCell>
        <mxCell id="2D_pqOBESdX0pPicwGaX-176" value="- x : int&lt;br&gt;- y : int" style="text;strokeColor=#d79b00;fillColor=#ffe6cc;align=left;verticalAlign=top;spacingLeft=4;spacingRight=4;overflow=hidden;rotatable=0;points=[[0,0.5],[1,0.5]];portConstraint=eastwest;whiteSpace=wrap;html=1;rounded=0;" parent="2D_pqOBESdX0pPicwGaX-175" vertex="1">
          <mxGeometry y="26" width="160" height="34" as="geometry" />
        </mxCell>
        <mxCell id="2D_pqOBESdX0pPicwGaX-177" value="" style="line;strokeWidth=1;fillColor=#ffe6cc;align=left;verticalAlign=middle;spacingTop=-1;spacingLeft=3;spacingRight=3;rotatable=0;labelPosition=right;points=[];portConstraint=eastwest;strokeColor=#d79b00;rounded=0;" parent="2D_pqOBESdX0pPicwGaX-175" vertex="1">
          <mxGeometry y="60" width="160" height="8" as="geometry" />
        </mxCell>
        <mxCell id="2D_pqOBESdX0pPicwGaX-178" value="+ getLeft() : Position&lt;br&gt;+ getRight() : Position&lt;br&gt;+ getUp() : Position&lt;br&gt;+ getDown() : Position&lt;br&gt;+getRandomNeighbour() : Position&lt;br&gt;+ getX() : int&lt;br&gt;+ getY() : int&lt;br&gt;+ equals(o : Object) : boolean&lt;br&gt;+ hashCode() : int" style="text;strokeColor=#d79b00;fillColor=#ffe6cc;align=left;verticalAlign=top;spacingLeft=4;spacingRight=4;overflow=hidden;rotatable=0;points=[[0,0.5],[1,0.5]];portConstraint=eastwest;whiteSpace=wrap;html=1;rounded=0;" parent="2D_pqOBESdX0pPicwGaX-175" vertex="1">
          <mxGeometry y="68" width="160" height="182" as="geometry" />
        </mxCell>
        <mxCell id="2D_pqOBESdX0pPicwGaX-179" value="Direction{enum}" style="swimlane;fontStyle=1;align=center;verticalAlign=top;childLayout=stackLayout;horizontal=1;startSize=26;horizontalStack=0;resizeParent=1;resizeParentMax=0;resizeLast=0;collapsible=1;marginBottom=0;whiteSpace=wrap;html=1;fillColor=#ffe6cc;strokeColor=#d79b00;rounded=0;" parent="WIyWlLk6GJQsqaUBKTNV-1" vertex="1">
          <mxGeometry x="-690" y="735" width="160" height="90" as="geometry" />
        </mxCell>
        <mxCell id="2D_pqOBESdX0pPicwGaX-180" value="RIGHT&lt;br&gt;LEFT&lt;br&gt;UP&lt;br&gt;DOWN" style="text;strokeColor=#d79b00;fillColor=#ffe6cc;align=left;verticalAlign=top;spacingLeft=4;spacingRight=4;overflow=hidden;rotatable=0;points=[[0,0.5],[1,0.5]];portConstraint=eastwest;whiteSpace=wrap;html=1;rounded=0;" parent="2D_pqOBESdX0pPicwGaX-179" vertex="1">
          <mxGeometry y="26" width="160" height="64" as="geometry" />
        </mxCell>
        <mxCell id="2D_pqOBESdX0pPicwGaX-183" value="MainMenuState" style="swimlane;fontStyle=1;align=center;verticalAlign=top;childLayout=stackLayout;horizontal=1;startSize=26;horizontalStack=0;resizeParent=1;resizeParentMax=0;resizeLast=0;collapsible=1;marginBottom=0;whiteSpace=wrap;html=1;rounded=0;fillColor=#fff2cc;strokeColor=#d6b656;" parent="WIyWlLk6GJQsqaUBKTNV-1" vertex="1">
          <mxGeometry x="550" y="460" width="250" height="70" as="geometry" />
        </mxCell>
        <mxCell id="2D_pqOBESdX0pPicwGaX-186" value="#getViewer() : Viewer&amp;lt;Menu&amp;gt;&lt;br&gt;#getController() Controller&amp;lt;Menu&amp;gt;" style="text;align=left;verticalAlign=top;spacingLeft=4;spacingRight=4;overflow=hidden;rotatable=0;points=[[0,0.5],[1,0.5]];portConstraint=eastwest;whiteSpace=wrap;html=1;rounded=0;fillColor=#f8cecc;strokeColor=#b85450;" parent="2D_pqOBESdX0pPicwGaX-183" vertex="1">
          <mxGeometry y="26" width="250" height="44" as="geometry" />
        </mxCell>
        <mxCell id="2D_pqOBESdX0pPicwGaX-187" value="&lt;i&gt;Menu&lt;/i&gt;" style="swimlane;fontStyle=1;align=center;verticalAlign=top;childLayout=stackLayout;horizontal=1;startSize=26;horizontalStack=0;resizeParent=1;resizeParentMax=0;resizeLast=0;collapsible=1;marginBottom=0;whiteSpace=wrap;html=1;fillColor=#ffe6cc;strokeColor=#d79b00;rounded=0;" parent="WIyWlLk6GJQsqaUBKTNV-1" vertex="1">
          <mxGeometry x="1370" y="610" width="160" height="160" as="geometry" />
        </mxCell>
        <mxCell id="2D_pqOBESdX0pPicwGaX-188" value="- entries : List&amp;lt;String&amp;gt;&lt;br&gt;- currentEntry : int = 0" style="text;strokeColor=#d79b00;fillColor=#ffe6cc;align=left;verticalAlign=top;spacingLeft=4;spacingRight=4;overflow=hidden;rotatable=0;points=[[0,0.5],[1,0.5]];portConstraint=eastwest;whiteSpace=wrap;html=1;rounded=0;" parent="2D_pqOBESdX0pPicwGaX-187" vertex="1">
          <mxGeometry y="26" width="160" height="34" as="geometry" />
        </mxCell>
        <mxCell id="2D_pqOBESdX0pPicwGaX-189" value="" style="line;strokeWidth=1;fillColor=#ffe6cc;align=left;verticalAlign=middle;spacingTop=-1;spacingLeft=3;spacingRight=3;rotatable=0;labelPosition=right;points=[];portConstraint=eastwest;strokeColor=#d79b00;rounded=0;" parent="2D_pqOBESdX0pPicwGaX-187" vertex="1">
          <mxGeometry y="60" width="160" height="8" as="geometry" />
        </mxCell>
        <mxCell id="2D_pqOBESdX0pPicwGaX-190" value="+ nextEntry()&lt;br&gt;+ previousEntry()&lt;br&gt;+ getEntry(i : int) : String&lt;br&gt;+ isSelected(i: int) : boolean&lt;br&gt;+ getNumberEntries() : int" style="text;strokeColor=#d79b00;fillColor=#ffe6cc;align=left;verticalAlign=top;spacingLeft=4;spacingRight=4;overflow=hidden;rotatable=0;points=[[0,0.5],[1,0.5]];portConstraint=eastwest;whiteSpace=wrap;html=1;rounded=0;" parent="2D_pqOBESdX0pPicwGaX-187" vertex="1">
          <mxGeometry y="68" width="160" height="92" as="geometry" />
        </mxCell>
        <mxCell id="2D_pqOBESdX0pPicwGaX-191" value="MainMenu" style="swimlane;fontStyle=1;align=center;verticalAlign=top;childLayout=stackLayout;horizontal=1;startSize=26;horizontalStack=0;resizeParent=1;resizeParentMax=0;resizeLast=0;collapsible=1;marginBottom=0;whiteSpace=wrap;html=1;fillColor=#ffe6cc;strokeColor=#d79b00;rounded=0;" parent="WIyWlLk6GJQsqaUBKTNV-1" vertex="1">
          <mxGeometry x="861" y="392" width="300" height="120" as="geometry" />
        </mxCell>
        <mxCell id="2D_pqOBESdX0pPicwGaX-194" value="+ isSelectedNew() : boolean&lt;br&gt;+ isSelectedLoad() : boolean&lt;br&gt;+ isSelectedInstructions() : boolean&lt;br&gt;+ isSelectedOptions() : boolean&lt;br&gt;+ isSelectedSave() : boolean&lt;br&gt;+ isSelectedExit() : boolean" style="text;strokeColor=#d79b00;fillColor=#ffe6cc;align=left;verticalAlign=top;spacingLeft=4;spacingRight=4;overflow=hidden;rotatable=0;points=[[0,0.5],[1,0.5]];portConstraint=eastwest;whiteSpace=wrap;html=1;rounded=0;" parent="2D_pqOBESdX0pPicwGaX-191" vertex="1">
          <mxGeometry y="26" width="300" height="94" as="geometry" />
        </mxCell>
        <mxCell id="2D_pqOBESdX0pPicwGaX-195" value="&lt;b&gt;Level&lt;/b&gt;&lt;b&gt;SelectMenu&lt;/b&gt;" style="swimlane;fontStyle=0;childLayout=stackLayout;horizontal=1;startSize=26;fillColor=#ffe6cc;horizontalStack=0;resizeParent=1;resizeParentMax=0;resizeLast=0;collapsible=1;marginBottom=0;whiteSpace=wrap;html=1;strokeColor=#d79b00;rounded=0;" parent="WIyWlLk6GJQsqaUBKTNV-1" vertex="1">
          <mxGeometry x="862" y="743" width="210" height="100" as="geometry" />
        </mxCell>
        <mxCell id="2D_pqOBESdX0pPicwGaX-196" value="+ isSelectedLevel1() : boolean&lt;br&gt;+ isSelectedLevel2() : boolean&lt;br&gt;+ isSelectedLevel3(): boolean&lt;br&gt;+isSelectedBack() : boolean" style="text;strokeColor=#d79b00;fillColor=#ffe6cc;align=left;verticalAlign=top;spacingLeft=4;spacingRight=4;overflow=hidden;rotatable=0;points=[[0,0.5],[1,0.5]];portConstraint=eastwest;whiteSpace=wrap;html=1;rounded=0;" parent="2D_pqOBESdX0pPicwGaX-195" vertex="1">
          <mxGeometry y="26" width="210" height="74" as="geometry" />
        </mxCell>
        <mxCell id="2D_pqOBESdX0pPicwGaX-199" value="&lt;b&gt;OptionsMenu&lt;/b&gt;" style="swimlane;fontStyle=0;childLayout=stackLayout;horizontal=1;startSize=26;fillColor=#ffe6cc;horizontalStack=0;resizeParent=1;resizeParentMax=0;resizeLast=0;collapsible=1;marginBottom=0;whiteSpace=wrap;html=1;strokeColor=#d79b00;rounded=0;" parent="WIyWlLk6GJQsqaUBKTNV-1" vertex="1">
          <mxGeometry x="861" y="857" width="210" height="80" as="geometry" />
        </mxCell>
        <mxCell id="2D_pqOBESdX0pPicwGaX-200" value="+ isSelectedSound() : boolean&lt;br&gt;+ isSelectedMusic() : boolean&lt;br&gt;+ isSelectedKeys() : boolean" style="text;strokeColor=#d79b00;fillColor=#ffe6cc;align=left;verticalAlign=top;spacingLeft=4;spacingRight=4;overflow=hidden;rotatable=0;points=[[0,0.5],[1,0.5]];portConstraint=eastwest;whiteSpace=wrap;html=1;rounded=0;" parent="2D_pqOBESdX0pPicwGaX-199" vertex="1">
          <mxGeometry y="26" width="210" height="54" as="geometry" />
        </mxCell>
        <mxCell id="2D_pqOBESdX0pPicwGaX-203" value="InstructionsMenu" style="swimlane;fontStyle=1;align=center;verticalAlign=top;childLayout=stackLayout;horizontal=1;startSize=26;horizontalStack=0;resizeParent=1;resizeParentMax=0;resizeLast=0;collapsible=1;marginBottom=0;whiteSpace=wrap;html=1;fillColor=#ffe6cc;strokeColor=#d79b00;rounded=0;" parent="WIyWlLk6GJQsqaUBKTNV-1" vertex="1">
          <mxGeometry x="860" y="534" width="160" height="100" as="geometry" />
        </mxCell>
        <mxCell id="2D_pqOBESdX0pPicwGaX-204" value="- instructions : String" style="text;strokeColor=#d79b00;fillColor=#ffe6cc;align=left;verticalAlign=top;spacingLeft=4;spacingRight=4;overflow=hidden;rotatable=0;points=[[0,0.5],[1,0.5]];portConstraint=eastwest;whiteSpace=wrap;html=1;rounded=0;" parent="2D_pqOBESdX0pPicwGaX-203" vertex="1">
          <mxGeometry y="26" width="160" height="26" as="geometry" />
        </mxCell>
        <mxCell id="2D_pqOBESdX0pPicwGaX-205" value="" style="line;strokeWidth=1;fillColor=#ffe6cc;align=left;verticalAlign=middle;spacingTop=-1;spacingLeft=3;spacingRight=3;rotatable=0;labelPosition=right;points=[];portConstraint=eastwest;strokeColor=#d79b00;rounded=0;" parent="2D_pqOBESdX0pPicwGaX-203" vertex="1">
          <mxGeometry y="52" width="160" height="8" as="geometry" />
        </mxCell>
        <mxCell id="2D_pqOBESdX0pPicwGaX-206" value="+printInstructions()&lt;br&gt;+isSelectedBack() : boolean" style="text;strokeColor=#d79b00;fillColor=#ffe6cc;align=left;verticalAlign=top;spacingLeft=4;spacingRight=4;overflow=hidden;rotatable=0;points=[[0,0.5],[1,0.5]];portConstraint=eastwest;whiteSpace=wrap;html=1;rounded=0;" parent="2D_pqOBESdX0pPicwGaX-203" vertex="1">
          <mxGeometry y="60" width="160" height="40" as="geometry" />
        </mxCell>
        <mxCell id="2D_pqOBESdX0pPicwGaX-207" value="HiscoresMenu" style="swimlane;fontStyle=1;align=center;verticalAlign=top;childLayout=stackLayout;horizontal=1;startSize=26;horizontalStack=0;resizeParent=1;resizeParentMax=0;resizeLast=0;collapsible=1;marginBottom=0;whiteSpace=wrap;html=1;fillColor=#ffe6cc;strokeColor=#d79b00;rounded=0;" parent="WIyWlLk6GJQsqaUBKTNV-1" vertex="1">
          <mxGeometry x="865" y="1120" width="200" height="100" as="geometry" />
        </mxCell>
        <mxCell id="2D_pqOBESdX0pPicwGaX-208" value="- hiscores : List&amp;lt;Hiscore&amp;gt;" style="text;strokeColor=#d79b00;fillColor=#ffe6cc;align=left;verticalAlign=top;spacingLeft=4;spacingRight=4;overflow=hidden;rotatable=0;points=[[0,0.5],[1,0.5]];portConstraint=eastwest;whiteSpace=wrap;html=1;rounded=0;" parent="2D_pqOBESdX0pPicwGaX-207" vertex="1">
          <mxGeometry y="26" width="200" height="26" as="geometry" />
        </mxCell>
        <mxCell id="2D_pqOBESdX0pPicwGaX-209" value="" style="line;strokeWidth=1;fillColor=#ffe6cc;align=left;verticalAlign=middle;spacingTop=-1;spacingLeft=3;spacingRight=3;rotatable=0;labelPosition=right;points=[];portConstraint=eastwest;strokeColor=#d79b00;rounded=0;" parent="2D_pqOBESdX0pPicwGaX-207" vertex="1">
          <mxGeometry y="52" width="200" height="8" as="geometry" />
        </mxCell>
        <mxCell id="2D_pqOBESdX0pPicwGaX-210" value="+ printHiscores()&lt;br&gt;+ isSelectedBack() : boolean" style="text;strokeColor=#d79b00;fillColor=#ffe6cc;align=left;verticalAlign=top;spacingLeft=4;spacingRight=4;overflow=hidden;rotatable=0;points=[[0,0.5],[1,0.5]];portConstraint=eastwest;whiteSpace=wrap;html=1;rounded=0;" parent="2D_pqOBESdX0pPicwGaX-207" vertex="1">
          <mxGeometry y="60" width="200" height="40" as="geometry" />
        </mxCell>
        <mxCell id="2D_pqOBESdX0pPicwGaX-219" value="NewHiscoreMenu" style="swimlane;fontStyle=1;align=center;verticalAlign=top;childLayout=stackLayout;horizontal=1;startSize=26;horizontalStack=0;resizeParent=1;resizeParentMax=0;resizeLast=0;collapsible=1;marginBottom=0;whiteSpace=wrap;html=1;fillColor=#ffe6cc;strokeColor=#d79b00;rounded=0;" parent="WIyWlLk6GJQsqaUBKTNV-1" vertex="1">
          <mxGeometry x="860" y="950" width="210" height="52" as="geometry" />
        </mxCell>
        <mxCell id="2D_pqOBESdX0pPicwGaX-220" value="- newHiscore : Hiscore" style="text;strokeColor=#d79b00;fillColor=#ffe6cc;align=left;verticalAlign=top;spacingLeft=4;spacingRight=4;overflow=hidden;rotatable=0;points=[[0,0.5],[1,0.5]];portConstraint=eastwest;whiteSpace=wrap;html=1;rounded=0;" parent="2D_pqOBESdX0pPicwGaX-219" vertex="1">
          <mxGeometry y="26" width="210" height="26" as="geometry" />
        </mxCell>
        <mxCell id="2D_pqOBESdX0pPicwGaX-223" value="Hiscore" style="swimlane;fontStyle=1;align=center;verticalAlign=top;childLayout=stackLayout;horizontal=1;startSize=26;horizontalStack=0;resizeParent=1;resizeParentMax=0;resizeLast=0;collapsible=1;marginBottom=0;whiteSpace=wrap;html=1;fillColor=#ffe6cc;strokeColor=#d79b00;rounded=0;" parent="WIyWlLk6GJQsqaUBKTNV-1" vertex="1">
          <mxGeometry x="1260" y="1140" width="160" height="220" as="geometry" />
        </mxCell>
        <mxCell id="2D_pqOBESdX0pPicwGaX-224" value="- rank : int&lt;br&gt;- name : String&lt;br&gt;- score : int" style="text;strokeColor=#d79b00;fillColor=#ffe6cc;align=left;verticalAlign=top;spacingLeft=4;spacingRight=4;overflow=hidden;rotatable=0;points=[[0,0.5],[1,0.5]];portConstraint=eastwest;whiteSpace=wrap;html=1;rounded=0;" parent="2D_pqOBESdX0pPicwGaX-223" vertex="1">
          <mxGeometry y="26" width="160" height="54" as="geometry" />
        </mxCell>
        <mxCell id="2D_pqOBESdX0pPicwGaX-225" value="" style="line;strokeWidth=1;fillColor=#ffe6cc;align=left;verticalAlign=middle;spacingTop=-1;spacingLeft=3;spacingRight=3;rotatable=0;labelPosition=right;points=[];portConstraint=eastwest;strokeColor=#d79b00;rounded=0;" parent="2D_pqOBESdX0pPicwGaX-223" vertex="1">
          <mxGeometry y="80" width="160" height="8" as="geometry" />
        </mxCell>
        <mxCell id="2D_pqOBESdX0pPicwGaX-226" value="+ getRank() : int&lt;br&gt;+ setRank(rank : int)&lt;br&gt;+ getName() : String&lt;br&gt;+ setName(name : String)&lt;br&gt;+ getScore() : int&lt;br&gt;+ setScore(score : int)" style="text;strokeColor=#d79b00;fillColor=#ffe6cc;align=left;verticalAlign=top;spacingLeft=4;spacingRight=4;overflow=hidden;rotatable=0;points=[[0,0.5],[1,0.5]];portConstraint=eastwest;whiteSpace=wrap;html=1;rounded=0;" parent="2D_pqOBESdX0pPicwGaX-223" vertex="1">
          <mxGeometry y="88" width="160" height="132" as="geometry" />
        </mxCell>
        <mxCell id="2D_pqOBESdX0pPicwGaX-231" value="Fruit" style="swimlane;fontStyle=1;align=center;verticalAlign=top;childLayout=stackLayout;horizontal=1;startSize=26;horizontalStack=0;resizeParent=1;resizeParentMax=0;resizeLast=0;collapsible=1;marginBottom=0;whiteSpace=wrap;html=1;fillColor=#ffe6cc;strokeColor=#d79b00;rounded=0;" parent="WIyWlLk6GJQsqaUBKTNV-1" vertex="1">
          <mxGeometry x="-180" y="551" width="160" height="100" as="geometry" />
        </mxCell>
        <mxCell id="2D_pqOBESdX0pPicwGaX-232" value="- type : String" style="text;strokeColor=#d79b00;fillColor=#ffe6cc;align=left;verticalAlign=top;spacingLeft=4;spacingRight=4;overflow=hidden;rotatable=0;points=[[0,0.5],[1,0.5]];portConstraint=eastwest;whiteSpace=wrap;html=1;rounded=0;" parent="2D_pqOBESdX0pPicwGaX-231" vertex="1">
          <mxGeometry y="26" width="160" height="26" as="geometry" />
        </mxCell>
        <mxCell id="2D_pqOBESdX0pPicwGaX-233" value="" style="line;strokeWidth=1;fillColor=#ffe6cc;align=left;verticalAlign=middle;spacingTop=-1;spacingLeft=3;spacingRight=3;rotatable=0;labelPosition=right;points=[];portConstraint=eastwest;strokeColor=#d79b00;rounded=0;" parent="2D_pqOBESdX0pPicwGaX-231" vertex="1">
          <mxGeometry y="52" width="160" height="8" as="geometry" />
        </mxCell>
        <mxCell id="2D_pqOBESdX0pPicwGaX-234" value="+getFruitType() : String&lt;br&gt;+setFruitType(type : String)" style="text;strokeColor=#d79b00;fillColor=#ffe6cc;align=left;verticalAlign=top;spacingLeft=4;spacingRight=4;overflow=hidden;rotatable=0;points=[[0,0.5],[1,0.5]];portConstraint=eastwest;whiteSpace=wrap;html=1;rounded=0;" parent="2D_pqOBESdX0pPicwGaX-231" vertex="1">
          <mxGeometry y="60" width="160" height="40" as="geometry" />
        </mxCell>
        <mxCell id="2D_pqOBESdX0pPicwGaX-235" value="&lt;b&gt;Â«interfaceÂ»&lt;br&gt;ScoreObserver&lt;/b&gt;" style="swimlane;fontStyle=0;childLayout=stackLayout;horizontal=1;startSize=40;fillColor=#e1d5e7;horizontalStack=0;resizeParent=1;resizeParentMax=0;resizeLast=0;collapsible=1;marginBottom=0;whiteSpace=wrap;html=1;strokeColor=#9673a6;rounded=0;gradientColor=none;" parent="WIyWlLk6GJQsqaUBKTNV-1" vertex="1">
          <mxGeometry x="870" y="-190" width="280" height="66" as="geometry" />
        </mxCell>
        <mxCell id="2D_pqOBESdX0pPicwGaX-236" value="+ updateScore(newScore : int)" style="text;strokeColor=#9673a6;fillColor=#e1d5e7;align=left;verticalAlign=top;spacingLeft=4;spacingRight=4;overflow=hidden;rotatable=0;points=[[0,0.5],[1,0.5]];portConstraint=eastwest;whiteSpace=wrap;html=1;rounded=0;" parent="2D_pqOBESdX0pPicwGaX-235" vertex="1">
          <mxGeometry y="40" width="280" height="26" as="geometry" />
        </mxCell>
        <mxCell id="2D_pqOBESdX0pPicwGaX-241" value="&lt;b&gt;FruitViewer&lt;/b&gt;" style="swimlane;fontStyle=0;childLayout=stackLayout;horizontal=1;startSize=26;fillColor=#dae8fc;horizontalStack=0;resizeParent=1;resizeParentMax=0;resizeLast=0;collapsible=1;marginBottom=0;whiteSpace=wrap;html=1;strokeColor=#6c8ebf;rounded=0;" parent="WIyWlLk6GJQsqaUBKTNV-1" vertex="1">
          <mxGeometry x="2285" y="-28" width="140" height="70" as="geometry" />
        </mxCell>
        <mxCell id="2D_pqOBESdX0pPicwGaX-242" value="+draw(fruit : Fruit, gui : GUI, type : String)" style="text;strokeColor=#6c8ebf;fillColor=#dae8fc;align=left;verticalAlign=top;spacingLeft=4;spacingRight=4;overflow=hidden;rotatable=0;points=[[0,0.5],[1,0.5]];portConstraint=eastwest;whiteSpace=wrap;html=1;rounded=0;" parent="2D_pqOBESdX0pPicwGaX-241" vertex="1">
          <mxGeometry y="26" width="140" height="44" as="geometry" />
        </mxCell>
        <mxCell id="2D_pqOBESdX0pPicwGaX-256" value="" style="endArrow=open;endFill=1;endSize=12;html=1;rounded=0;" parent="WIyWlLk6GJQsqaUBKTNV-1" edge="1">
          <mxGeometry width="160" relative="1" as="geometry">
            <mxPoint x="540" y="170" as="sourcePoint" />
            <mxPoint x="650" y="170" as="targetPoint" />
          </mxGeometry>
        </mxCell>
        <mxCell id="2D_pqOBESdX0pPicwGaX-257" value="" style="endArrow=open;endFill=1;endSize=12;html=1;rounded=0;" parent="WIyWlLk6GJQsqaUBKTNV-1" edge="1">
          <mxGeometry width="160" relative="1" as="geometry">
            <mxPoint x="440" y="39" as="sourcePoint" />
            <mxPoint x="440" y="-50" as="targetPoint" />
            <Array as="points">
              <mxPoint x="440" />
            </Array>
          </mxGeometry>
        </mxCell>
        <mxCell id="2D_pqOBESdX0pPicwGaX-258" style="edgeStyle=orthogonalEdgeStyle;rounded=0;orthogonalLoop=1;jettySize=auto;html=1;exitX=0;exitY=0.5;exitDx=0;exitDy=0;fillColor=#d5e8d4;strokeColor=#82b366;" parent="WIyWlLk6GJQsqaUBKTNV-1" source="2D_pqOBESdX0pPicwGaX-40" target="2D_pqOBESdX0pPicwGaX-4" edge="1">
          <mxGeometry relative="1" as="geometry">
            <Array as="points">
              <mxPoint x="525" y="-280" />
              <mxPoint x="445" y="-280" />
            </Array>
          </mxGeometry>
        </mxCell>
        <mxCell id="2D_pqOBESdX0pPicwGaX-269" value="" style="endArrow=none;html=1;rounded=0;fillColor=#d5e8d4;strokeColor=#82b366;" parent="WIyWlLk6GJQsqaUBKTNV-1" edge="1">
          <mxGeometry width="50" height="50" relative="1" as="geometry">
            <mxPoint x="720" y="-330" as="sourcePoint" />
            <mxPoint x="720" y="-375" as="targetPoint" />
          </mxGeometry>
        </mxCell>
        <mxCell id="2D_pqOBESdX0pPicwGaX-270" value="" style="endArrow=none;html=1;rounded=0;fillColor=#d5e8d4;strokeColor=#82b366;" parent="WIyWlLk6GJQsqaUBKTNV-1" edge="1">
          <mxGeometry width="50" height="50" relative="1" as="geometry">
            <mxPoint x="1060" y="-330" as="sourcePoint" />
            <mxPoint x="1060" y="-440" as="targetPoint" />
          </mxGeometry>
        </mxCell>
        <mxCell id="2D_pqOBESdX0pPicwGaX-271" value="" style="endArrow=none;html=1;rounded=0;fillColor=#d5e8d4;strokeColor=#82b366;" parent="WIyWlLk6GJQsqaUBKTNV-1" edge="1">
          <mxGeometry width="50" height="50" relative="1" as="geometry">
            <mxPoint x="360" y="-330" as="sourcePoint" />
            <mxPoint x="1060" y="-330" as="targetPoint" />
          </mxGeometry>
        </mxCell>
        <mxCell id="2D_pqOBESdX0pPicwGaX-272" value="" style="endArrow=none;html=1;rounded=0;fillColor=#d5e8d4;strokeColor=#82b366;" parent="WIyWlLk6GJQsqaUBKTNV-1" edge="1">
          <mxGeometry width="50" height="50" relative="1" as="geometry">
            <mxPoint x="360" y="-330" as="sourcePoint" />
            <mxPoint x="360" y="-410" as="targetPoint" />
          </mxGeometry>
        </mxCell>
        <mxCell id="2D_pqOBESdX0pPicwGaX-275" value="" style="endArrow=classic;html=1;rounded=0;fillColor=#d5e8d4;strokeColor=#82b366;" parent="WIyWlLk6GJQsqaUBKTNV-1" target="2D_pqOBESdX0pPicwGaX-40" edge="1">
          <mxGeometry width="50" height="50" relative="1" as="geometry">
            <mxPoint x="580" y="-330" as="sourcePoint" />
            <mxPoint x="930" y="-360" as="targetPoint" />
          </mxGeometry>
        </mxCell>
        <mxCell id="2D_pqOBESdX0pPicwGaX-276" value="" style="endArrow=none;html=1;rounded=0;fillColor=#d5e8d4;strokeColor=#82b366;" parent="WIyWlLk6GJQsqaUBKTNV-1" edge="1">
          <mxGeometry width="50" height="50" relative="1" as="geometry">
            <mxPoint x="1230" y="-660" as="sourcePoint" />
            <mxPoint x="1250" y="-660" as="targetPoint" />
          </mxGeometry>
        </mxCell>
        <mxCell id="2D_pqOBESdX0pPicwGaX-278" value="" style="endArrow=none;html=1;rounded=0;fillColor=#d5e8d4;strokeColor=#82b366;" parent="WIyWlLk6GJQsqaUBKTNV-1" edge="1">
          <mxGeometry width="50" height="50" relative="1" as="geometry">
            <mxPoint x="1230" y="-340" as="sourcePoint" />
            <mxPoint x="1230" y="-660" as="targetPoint" />
          </mxGeometry>
        </mxCell>
        <mxCell id="2D_pqOBESdX0pPicwGaX-280" value="" style="endArrow=none;html=1;rounded=0;entryX=0.014;entryY=0.267;entryDx=0;entryDy=0;entryPerimeter=0;fillColor=#d5e8d4;strokeColor=#82b366;" parent="WIyWlLk6GJQsqaUBKTNV-1" target="2D_pqOBESdX0pPicwGaX-83" edge="1">
          <mxGeometry width="50" height="50" relative="1" as="geometry">
            <mxPoint x="1230" y="-340" as="sourcePoint" />
            <mxPoint x="1250" y="-350" as="targetPoint" />
          </mxGeometry>
        </mxCell>
        <mxCell id="2D_pqOBESdX0pPicwGaX-281" value="" style="endArrow=classic;html=1;rounded=0;exitX=0;exitY=0.5;exitDx=0;exitDy=0;fillColor=#d5e8d4;strokeColor=#82b366;" parent="WIyWlLk6GJQsqaUBKTNV-1" source="2D_pqOBESdX0pPicwGaX-78" edge="1">
          <mxGeometry width="50" height="50" relative="1" as="geometry">
            <mxPoint x="880" y="-310" as="sourcePoint" />
            <mxPoint x="1220" y="-490" as="targetPoint" />
          </mxGeometry>
        </mxCell>
        <mxCell id="2D_pqOBESdX0pPicwGaX-285" value="" style="endArrow=block;dashed=1;endFill=0;endSize=12;html=1;rounded=0;exitX=0.5;exitY=1.077;exitDx=0;exitDy=0;exitPerimeter=0;entryX=0.344;entryY=0.008;entryDx=0;entryDy=0;entryPerimeter=0;fillColor=#dae8fc;strokeColor=#6c8ebf;" parent="WIyWlLk6GJQsqaUBKTNV-1" source="2D_pqOBESdX0pPicwGaX-236" target="2D_pqOBESdX0pPicwGaX-102" edge="1">
          <mxGeometry width="160" relative="1" as="geometry">
            <mxPoint x="790" y="-60" as="sourcePoint" />
            <mxPoint x="950" y="-60" as="targetPoint" />
          </mxGeometry>
        </mxCell>
        <mxCell id="2D_pqOBESdX0pPicwGaX-286" value="" style="endArrow=block;dashed=1;endFill=0;endSize=12;html=1;rounded=0;entryX=0.528;entryY=1.133;entryDx=0;entryDy=0;entryPerimeter=0;fillColor=#dae8fc;strokeColor=#6c8ebf;" parent="WIyWlLk6GJQsqaUBKTNV-1" target="2D_pqOBESdX0pPicwGaX-113" edge="1">
          <mxGeometry width="160" relative="1" as="geometry">
            <mxPoint x="1860" y="-64" as="sourcePoint" />
            <mxPoint x="1725" y="-114" as="targetPoint" />
          </mxGeometry>
        </mxCell>
        <mxCell id="2D_pqOBESdX0pPicwGaX-287" value="" style="endArrow=none;dashed=1;html=1;dashPattern=1 3;strokeWidth=2;rounded=0;fillColor=#dae8fc;strokeColor=#6c8ebf;" parent="WIyWlLk6GJQsqaUBKTNV-1" edge="1">
          <mxGeometry width="50" height="50" relative="1" as="geometry">
            <mxPoint x="1455" y="-28" as="sourcePoint" />
            <mxPoint x="1455" y="-64" as="targetPoint" />
          </mxGeometry>
        </mxCell>
        <mxCell id="2D_pqOBESdX0pPicwGaX-289" value="" style="endArrow=none;dashed=1;html=1;dashPattern=1 3;strokeWidth=2;rounded=0;fillColor=#dae8fc;strokeColor=#6c8ebf;" parent="WIyWlLk6GJQsqaUBKTNV-1" edge="1">
          <mxGeometry width="50" height="50" relative="1" as="geometry">
            <mxPoint x="1455" y="-64" as="sourcePoint" />
            <mxPoint x="2355" y="-64" as="targetPoint" />
          </mxGeometry>
        </mxCell>
        <mxCell id="2D_pqOBESdX0pPicwGaX-290" value="" style="endArrow=none;dashed=1;html=1;rounded=0;fillColor=#dae8fc;strokeColor=#6c8ebf;" parent="WIyWlLk6GJQsqaUBKTNV-1" edge="1">
          <mxGeometry width="50" height="50" relative="1" as="geometry">
            <mxPoint x="1665" y="-28" as="sourcePoint" />
            <mxPoint x="1665" y="-64" as="targetPoint" />
          </mxGeometry>
        </mxCell>
        <mxCell id="2D_pqOBESdX0pPicwGaX-291" value="" style="endArrow=none;dashed=1;html=1;rounded=0;fillColor=#dae8fc;strokeColor=#6c8ebf;" parent="WIyWlLk6GJQsqaUBKTNV-1" edge="1">
          <mxGeometry width="50" height="50" relative="1" as="geometry">
            <mxPoint x="1880" y="-28" as="sourcePoint" />
            <mxPoint x="1880" y="-64" as="targetPoint" />
          </mxGeometry>
        </mxCell>
        <mxCell id="2D_pqOBESdX0pPicwGaX-292" value="" style="endArrow=none;dashed=1;html=1;dashPattern=1 3;strokeWidth=2;rounded=0;fillColor=#dae8fc;strokeColor=#6c8ebf;" parent="WIyWlLk6GJQsqaUBKTNV-1" edge="1">
          <mxGeometry width="50" height="50" relative="1" as="geometry">
            <mxPoint x="2125" y="-28" as="sourcePoint" />
            <mxPoint x="2125" y="-64" as="targetPoint" />
          </mxGeometry>
        </mxCell>
        <mxCell id="2D_pqOBESdX0pPicwGaX-293" value="" style="endArrow=none;dashed=1;html=1;dashPattern=1 3;strokeWidth=2;rounded=0;exitX=0.5;exitY=0;exitDx=0;exitDy=0;fillColor=#dae8fc;strokeColor=#6c8ebf;" parent="WIyWlLk6GJQsqaUBKTNV-1" source="2D_pqOBESdX0pPicwGaX-241" edge="1">
          <mxGeometry width="50" height="50" relative="1" as="geometry">
            <mxPoint x="2315" y="-34" as="sourcePoint" />
            <mxPoint x="2355" y="-64" as="targetPoint" />
          </mxGeometry>
        </mxCell>
        <mxCell id="2D_pqOBESdX0pPicwGaX-294" value="" style="endArrow=none;dashed=1;html=1;dashPattern=1 3;strokeWidth=2;rounded=0;entryX=0.233;entryY=0.962;entryDx=0;entryDy=0;entryPerimeter=0;fillColor=#dae8fc;strokeColor=#6c8ebf;" parent="WIyWlLk6GJQsqaUBKTNV-1" target="2D_pqOBESdX0pPicwGaX-140" edge="1">
          <mxGeometry width="50" height="50" relative="1" as="geometry">
            <mxPoint x="2030" y="-60" as="sourcePoint" />
            <mxPoint x="1675" y="-144" as="targetPoint" />
          </mxGeometry>
        </mxCell>
        <mxCell id="2D_pqOBESdX0pPicwGaX-295" value="" style="endArrow=open;endFill=1;endSize=12;html=1;rounded=0;exitX=0.295;exitY=1.077;exitDx=0;exitDy=0;exitPerimeter=0;entryX=0.114;entryY=-0.002;entryDx=0;entryDy=0;entryPerimeter=0;" parent="WIyWlLk6GJQsqaUBKTNV-1" source="2D_pqOBESdX0pPicwGaX-132" target="2D_pqOBESdX0pPicwGaX-134" edge="1">
          <mxGeometry width="160" relative="1" as="geometry">
            <mxPoint x="210" y="480" as="sourcePoint" />
            <mxPoint x="370" y="480" as="targetPoint" />
          </mxGeometry>
        </mxCell>
        <mxCell id="2D_pqOBESdX0pPicwGaX-305" value="" style="endArrow=none;html=1;rounded=0;fillColor=#ffe6cc;strokeColor=#d79b00;" parent="WIyWlLk6GJQsqaUBKTNV-1" edge="1">
          <mxGeometry width="50" height="50" relative="1" as="geometry">
            <mxPoint x="-870" y="520" as="sourcePoint" />
            <mxPoint x="320" y="520" as="targetPoint" />
          </mxGeometry>
        </mxCell>
        <mxCell id="2D_pqOBESdX0pPicwGaX-306" value="" style="endArrow=none;html=1;rounded=0;exitX=0.41;exitY=-0.004;exitDx=0;exitDy=0;exitPerimeter=0;fillColor=#ffe6cc;strokeColor=#d79b00;" parent="WIyWlLk6GJQsqaUBKTNV-1" source="2D_pqOBESdX0pPicwGaX-134" edge="1">
          <mxGeometry width="50" height="50" relative="1" as="geometry">
            <mxPoint x="270" y="570" as="sourcePoint" />
            <mxPoint x="320" y="520" as="targetPoint" />
          </mxGeometry>
        </mxCell>
        <mxCell id="2D_pqOBESdX0pPicwGaX-308" value="" style="endArrow=open;endFill=1;endSize=12;html=1;rounded=0;entryX=0.5;entryY=0;entryDx=0;entryDy=0;fillColor=#ffe6cc;strokeColor=#d79b00;" parent="WIyWlLk6GJQsqaUBKTNV-1" target="2D_pqOBESdX0pPicwGaX-145" edge="1">
          <mxGeometry width="160" relative="1" as="geometry">
            <mxPoint x="-870" y="520" as="sourcePoint" />
            <mxPoint x="-560" y="700" as="targetPoint" />
          </mxGeometry>
        </mxCell>
        <mxCell id="2D_pqOBESdX0pPicwGaX-309" value="" style="endArrow=open;endFill=1;endSize=12;html=1;rounded=0;entryX=0.381;entryY=-0.02;entryDx=0;entryDy=0;entryPerimeter=0;fillColor=#ffe6cc;strokeColor=#d79b00;" parent="WIyWlLk6GJQsqaUBKTNV-1" target="2D_pqOBESdX0pPicwGaX-167" edge="1">
          <mxGeometry width="160" relative="1" as="geometry">
            <mxPoint x="-640" y="520" as="sourcePoint" />
            <mxPoint x="-560" y="700" as="targetPoint" />
          </mxGeometry>
        </mxCell>
        <mxCell id="2D_pqOBESdX0pPicwGaX-310" value="" style="endArrow=open;endFill=1;endSize=12;html=1;rounded=0;entryX=0.5;entryY=0;entryDx=0;entryDy=0;fillColor=#ffe6cc;strokeColor=#d79b00;" parent="WIyWlLk6GJQsqaUBKTNV-1" target="2D_pqOBESdX0pPicwGaX-153" edge="1">
          <mxGeometry width="160" relative="1" as="geometry">
            <mxPoint x="-450" y="520" as="sourcePoint" />
            <mxPoint x="-560" y="700" as="targetPoint" />
          </mxGeometry>
        </mxCell>
        <mxCell id="2D_pqOBESdX0pPicwGaX-311" value="" style="endArrow=open;endFill=1;endSize=12;html=1;rounded=0;entryX=0.5;entryY=0;entryDx=0;entryDy=0;fillColor=#ffe6cc;strokeColor=#d79b00;" parent="WIyWlLk6GJQsqaUBKTNV-1" target="2D_pqOBESdX0pPicwGaX-157" edge="1">
          <mxGeometry width="160" relative="1" as="geometry">
            <mxPoint x="-280" y="520" as="sourcePoint" />
            <mxPoint x="-560" y="700" as="targetPoint" />
          </mxGeometry>
        </mxCell>
        <mxCell id="2D_pqOBESdX0pPicwGaX-312" value="" style="endArrow=open;endFill=1;endSize=12;html=1;rounded=0;entryX=0.5;entryY=0;entryDx=0;entryDy=0;fillColor=#ffe6cc;strokeColor=#d79b00;" parent="WIyWlLk6GJQsqaUBKTNV-1" target="2D_pqOBESdX0pPicwGaX-231" edge="1">
          <mxGeometry width="160" relative="1" as="geometry">
            <mxPoint x="-100" y="520" as="sourcePoint" />
            <mxPoint x="-560" y="700" as="targetPoint" />
          </mxGeometry>
        </mxCell>
        <mxCell id="2D_pqOBESdX0pPicwGaX-313" value="" style="endArrow=open;endFill=1;endSize=12;html=1;rounded=0;entryX=0.563;entryY=0;entryDx=0;entryDy=0;entryPerimeter=0;fillColor=#ffe6cc;strokeColor=#d79b00;" parent="WIyWlLk6GJQsqaUBKTNV-1" target="2D_pqOBESdX0pPicwGaX-161" edge="1">
          <mxGeometry width="160" relative="1" as="geometry">
            <mxPoint x="90" y="520" as="sourcePoint" />
            <mxPoint x="-560" y="700" as="targetPoint" />
          </mxGeometry>
        </mxCell>
        <mxCell id="2D_pqOBESdX0pPicwGaX-314" value="" style="endArrow=none;html=1;rounded=0;fillColor=#ffe6cc;strokeColor=#d79b00;" parent="WIyWlLk6GJQsqaUBKTNV-1" edge="1">
          <mxGeometry width="50" height="50" relative="1" as="geometry">
            <mxPoint x="80" y="690" as="sourcePoint" />
            <mxPoint x="80" y="681" as="targetPoint" />
          </mxGeometry>
        </mxCell>
        <mxCell id="2D_pqOBESdX0pPicwGaX-315" value="" style="endArrow=none;html=1;rounded=0;exitX=1.014;exitY=0.057;exitDx=0;exitDy=0;exitPerimeter=0;fillColor=#ffe6cc;strokeColor=#d79b00;" parent="WIyWlLk6GJQsqaUBKTNV-1" source="2D_pqOBESdX0pPicwGaX-148" edge="1">
          <mxGeometry width="50" height="50" relative="1" as="geometry">
            <mxPoint x="30" y="740" as="sourcePoint" />
            <mxPoint x="80" y="690" as="targetPoint" />
          </mxGeometry>
        </mxCell>
        <mxCell id="2D_pqOBESdX0pPicwGaX-317" value="" style="endArrow=none;html=1;rounded=0;fillColor=#ffe6cc;strokeColor=#d79b00;" parent="WIyWlLk6GJQsqaUBKTNV-1" edge="1">
          <mxGeometry width="50" height="50" relative="1" as="geometry">
            <mxPoint x="-620" y="690" as="sourcePoint" />
            <mxPoint x="-620" y="651" as="targetPoint" />
          </mxGeometry>
        </mxCell>
        <mxCell id="2D_pqOBESdX0pPicwGaX-319" value="" style="endArrow=none;html=1;rounded=0;fillColor=#ffe6cc;strokeColor=#d79b00;" parent="WIyWlLk6GJQsqaUBKTNV-1" edge="1">
          <mxGeometry width="50" height="50" relative="1" as="geometry">
            <mxPoint x="-445" y="690" as="sourcePoint" />
            <mxPoint x="-445" y="585" as="targetPoint" />
          </mxGeometry>
        </mxCell>
        <mxCell id="2D_pqOBESdX0pPicwGaX-320" value="" style="endArrow=none;html=1;rounded=0;entryX=0.5;entryY=1;entryDx=0;entryDy=0;fillColor=#ffe6cc;strokeColor=#d79b00;" parent="WIyWlLk6GJQsqaUBKTNV-1" target="2D_pqOBESdX0pPicwGaX-157" edge="1">
          <mxGeometry width="50" height="50" relative="1" as="geometry">
            <mxPoint x="-280" y="690" as="sourcePoint" />
            <mxPoint x="-260" y="330" as="targetPoint" />
          </mxGeometry>
        </mxCell>
        <mxCell id="2D_pqOBESdX0pPicwGaX-321" value="" style="endArrow=none;html=1;rounded=0;entryX=0.481;entryY=1.05;entryDx=0;entryDy=0;entryPerimeter=0;fillColor=#ffe6cc;strokeColor=#d79b00;" parent="WIyWlLk6GJQsqaUBKTNV-1" target="2D_pqOBESdX0pPicwGaX-234" edge="1">
          <mxGeometry width="50" height="50" relative="1" as="geometry">
            <mxPoint x="-103" y="690" as="sourcePoint" />
            <mxPoint x="-120" y="330" as="targetPoint" />
          </mxGeometry>
        </mxCell>
        <mxCell id="2D_pqOBESdX0pPicwGaX-322" value="" style="endArrow=classic;html=1;rounded=0;entryX=0.5;entryY=0;entryDx=0;entryDy=0;fillColor=#ffe6cc;strokeColor=#d79b00;" parent="WIyWlLk6GJQsqaUBKTNV-1" target="2D_pqOBESdX0pPicwGaX-171" edge="1">
          <mxGeometry width="50" height="50" relative="1" as="geometry">
            <mxPoint x="-390" y="690" as="sourcePoint" />
            <mxPoint x="-260" y="420" as="targetPoint" />
          </mxGeometry>
        </mxCell>
        <mxCell id="2D_pqOBESdX0pPicwGaX-324" value="" style="endArrow=open;endFill=1;endSize=12;html=1;rounded=0;fillColor=#ffe6cc;strokeColor=#d79b00;" parent="WIyWlLk6GJQsqaUBKTNV-1" edge="1">
          <mxGeometry width="160" relative="1" as="geometry">
            <mxPoint x="-310" y="845" as="sourcePoint" />
            <mxPoint x="-235" y="845" as="targetPoint" />
          </mxGeometry>
        </mxCell>
        <mxCell id="ExHl49rjy0cBEna2JtWI-0" value="" style="endArrow=open;endFill=1;endSize=12;html=1;rounded=0;exitX=0.5;exitY=0;exitDx=0;exitDy=0;fillColor=#ffe6cc;strokeColor=#d79b00;" parent="WIyWlLk6GJQsqaUBKTNV-1" source="2D_pqOBESdX0pPicwGaX-141" target="2D_pqOBESdX0pPicwGaX-137" edge="1">
          <mxGeometry width="160" relative="1" as="geometry">
            <mxPoint x="205" y="1040" as="sourcePoint" />
            <mxPoint x="365" y="1040" as="targetPoint" />
          </mxGeometry>
        </mxCell>
        <mxCell id="ExHl49rjy0cBEna2JtWI-3" value="InstructionsMenuState" style="swimlane;fontStyle=1;align=center;verticalAlign=top;childLayout=stackLayout;horizontal=1;startSize=26;horizontalStack=0;resizeParent=1;resizeParentMax=0;resizeLast=0;collapsible=1;marginBottom=0;whiteSpace=wrap;html=1;rounded=0;fillColor=#fff2cc;strokeColor=#d6b656;" parent="WIyWlLk6GJQsqaUBKTNV-1" vertex="1">
          <mxGeometry x="550" y="585" width="250" height="70" as="geometry" />
        </mxCell>
        <mxCell id="ExHl49rjy0cBEna2JtWI-4" value="#getViewer() : Viewer&amp;lt;Menu&amp;gt;&lt;br&gt;#getController() Controller&amp;lt;Menu&amp;gt;" style="text;align=left;verticalAlign=top;spacingLeft=4;spacingRight=4;overflow=hidden;rotatable=0;points=[[0,0.5],[1,0.5]];portConstraint=eastwest;whiteSpace=wrap;html=1;rounded=0;fillColor=#f8cecc;strokeColor=#b85450;" parent="ExHl49rjy0cBEna2JtWI-3" vertex="1">
          <mxGeometry y="26" width="250" height="44" as="geometry" />
        </mxCell>
        <mxCell id="2D_pqOBESdX0pPicwGaX-211" value="&lt;b&gt;PauseMenu&lt;/b&gt;" style="swimlane;fontStyle=0;childLayout=stackLayout;horizontal=1;startSize=26;fillColor=#ffe6cc;horizontalStack=0;resizeParent=1;resizeParentMax=0;resizeLast=0;collapsible=1;marginBottom=0;whiteSpace=wrap;html=1;strokeColor=#d79b00;rounded=0;" parent="WIyWlLk6GJQsqaUBKTNV-1" vertex="1">
          <mxGeometry x="861" y="649" width="210" height="80" as="geometry" />
        </mxCell>
        <mxCell id="2D_pqOBESdX0pPicwGaX-212" value="+ isSelectedResume() : boolean&lt;br&gt;+ isSelectedOptions() : boolean&lt;br&gt;+ isSelectedQuit() : boolean" style="text;strokeColor=#d79b00;fillColor=#ffe6cc;align=left;verticalAlign=top;spacingLeft=4;spacingRight=4;overflow=hidden;rotatable=0;points=[[0,0.5],[1,0.5]];portConstraint=eastwest;whiteSpace=wrap;html=1;rounded=0;" parent="2D_pqOBESdX0pPicwGaX-211" vertex="1">
          <mxGeometry y="26" width="210" height="54" as="geometry" />
        </mxCell>
        <mxCell id="ExHl49rjy0cBEna2JtWI-7" value="PauseMenuState" style="swimlane;fontStyle=1;align=center;verticalAlign=top;childLayout=stackLayout;horizontal=1;startSize=26;horizontalStack=0;resizeParent=1;resizeParentMax=0;resizeLast=0;collapsible=1;marginBottom=0;whiteSpace=wrap;html=1;rounded=0;fillColor=#fff2cc;strokeColor=#d6b656;" parent="WIyWlLk6GJQsqaUBKTNV-1" vertex="1">
          <mxGeometry x="550" y="690" width="250" height="70" as="geometry" />
        </mxCell>
        <mxCell id="ExHl49rjy0cBEna2JtWI-8" value="#getViewer() : Viewer&amp;lt;Menu&amp;gt;&lt;br&gt;#getController() Controller&amp;lt;Menu&amp;gt;" style="text;align=left;verticalAlign=top;spacingLeft=4;spacingRight=4;overflow=hidden;rotatable=0;points=[[0,0.5],[1,0.5]];portConstraint=eastwest;whiteSpace=wrap;html=1;rounded=0;fillColor=#f8cecc;strokeColor=#b85450;" parent="ExHl49rjy0cBEna2JtWI-7" vertex="1">
          <mxGeometry y="26" width="250" height="44" as="geometry" />
        </mxCell>
        <mxCell id="ExHl49rjy0cBEna2JtWI-9" value="LevelSelectMenuState" style="swimlane;fontStyle=1;align=center;verticalAlign=top;childLayout=stackLayout;horizontal=1;startSize=26;horizontalStack=0;resizeParent=1;resizeParentMax=0;resizeLast=0;collapsible=1;marginBottom=0;whiteSpace=wrap;html=1;rounded=0;fillColor=#fff2cc;strokeColor=#d6b656;" parent="WIyWlLk6GJQsqaUBKTNV-1" vertex="1">
          <mxGeometry x="550" y="780" width="250" height="70" as="geometry" />
        </mxCell>
        <mxCell id="ExHl49rjy0cBEna2JtWI-10" value="#getViewer() : Viewer&amp;lt;Menu&amp;gt;&lt;br&gt;#getController() Controller&amp;lt;Menu&amp;gt;" style="text;align=left;verticalAlign=top;spacingLeft=4;spacingRight=4;overflow=hidden;rotatable=0;points=[[0,0.5],[1,0.5]];portConstraint=eastwest;whiteSpace=wrap;html=1;rounded=0;fillColor=#f8cecc;strokeColor=#b85450;" parent="ExHl49rjy0cBEna2JtWI-9" vertex="1">
          <mxGeometry y="26" width="250" height="44" as="geometry" />
        </mxCell>
        <mxCell id="ExHl49rjy0cBEna2JtWI-11" value="OptionsMenuState" style="swimlane;fontStyle=1;align=center;verticalAlign=top;childLayout=stackLayout;horizontal=1;startSize=26;horizontalStack=0;resizeParent=1;resizeParentMax=0;resizeLast=0;collapsible=1;marginBottom=0;whiteSpace=wrap;html=1;rounded=0;fillColor=#fff2cc;strokeColor=#d6b656;" parent="WIyWlLk6GJQsqaUBKTNV-1" vertex="1">
          <mxGeometry x="550" y="890" width="250" height="70" as="geometry" />
        </mxCell>
        <mxCell id="ExHl49rjy0cBEna2JtWI-12" value="#getViewer() : Viewer&amp;lt;Menu&amp;gt;&lt;br&gt;#getController() Controller&amp;lt;Menu&amp;gt;" style="text;align=left;verticalAlign=top;spacingLeft=4;spacingRight=4;overflow=hidden;rotatable=0;points=[[0,0.5],[1,0.5]];portConstraint=eastwest;whiteSpace=wrap;html=1;rounded=0;fillColor=#f8cecc;strokeColor=#b85450;" parent="ExHl49rjy0cBEna2JtWI-11" vertex="1">
          <mxGeometry y="26" width="250" height="44" as="geometry" />
        </mxCell>
        <mxCell id="ExHl49rjy0cBEna2JtWI-13" value="NewHiscoreMenuState" style="swimlane;fontStyle=1;align=center;verticalAlign=top;childLayout=stackLayout;horizontal=1;startSize=26;horizontalStack=0;resizeParent=1;resizeParentMax=0;resizeLast=0;collapsible=1;marginBottom=0;whiteSpace=wrap;html=1;rounded=0;fillColor=#fff2cc;strokeColor=#d6b656;" parent="WIyWlLk6GJQsqaUBKTNV-1" vertex="1">
          <mxGeometry x="550" y="980" width="250" height="70" as="geometry" />
        </mxCell>
        <mxCell id="ExHl49rjy0cBEna2JtWI-14" value="#getViewer() : Viewer&amp;lt;Menu&amp;gt;&lt;br&gt;#getController() Controller&amp;lt;Menu&amp;gt;" style="text;align=left;verticalAlign=top;spacingLeft=4;spacingRight=4;overflow=hidden;rotatable=0;points=[[0,0.5],[1,0.5]];portConstraint=eastwest;whiteSpace=wrap;html=1;rounded=0;fillColor=#f8cecc;strokeColor=#b85450;" parent="ExHl49rjy0cBEna2JtWI-13" vertex="1">
          <mxGeometry y="26" width="250" height="44" as="geometry" />
        </mxCell>
        <mxCell id="ExHl49rjy0cBEna2JtWI-15" value="HiscoresMenuState" style="swimlane;fontStyle=1;align=center;verticalAlign=top;childLayout=stackLayout;horizontal=1;startSize=26;horizontalStack=0;resizeParent=1;resizeParentMax=0;resizeLast=0;collapsible=1;marginBottom=0;whiteSpace=wrap;html=1;rounded=0;fillColor=#fff2cc;strokeColor=#d6b656;" parent="WIyWlLk6GJQsqaUBKTNV-1" vertex="1">
          <mxGeometry x="550" y="1060" width="250" height="70" as="geometry" />
        </mxCell>
        <mxCell id="ExHl49rjy0cBEna2JtWI-16" value="#getViewer() : Viewer&amp;lt;Menu&amp;gt;&lt;br&gt;#getController() Controller&amp;lt;Menu&amp;gt;" style="text;align=left;verticalAlign=top;spacingLeft=4;spacingRight=4;overflow=hidden;rotatable=0;points=[[0,0.5],[1,0.5]];portConstraint=eastwest;whiteSpace=wrap;html=1;rounded=0;fillColor=#f8cecc;strokeColor=#b85450;" parent="ExHl49rjy0cBEna2JtWI-15" vertex="1">
          <mxGeometry y="26" width="250" height="44" as="geometry" />
        </mxCell>
        <mxCell id="ExHl49rjy0cBEna2JtWI-28" value="" style="endArrow=none;html=1;rounded=0;fillColor=#fff2cc;strokeColor=#d6b656;" parent="WIyWlLk6GJQsqaUBKTNV-1" edge="1">
          <mxGeometry width="50" height="50" relative="1" as="geometry">
            <mxPoint x="280" y="360" as="sourcePoint" />
            <mxPoint x="280" y="320" as="targetPoint" />
          </mxGeometry>
        </mxCell>
        <mxCell id="ExHl49rjy0cBEna2JtWI-29" value="" style="endArrow=none;html=1;rounded=0;labelBackgroundColor=none;" parent="WIyWlLk6GJQsqaUBKTNV-1" edge="1">
          <mxGeometry width="50" height="50" relative="1" as="geometry">
            <mxPoint x="280" y="320" as="sourcePoint" />
            <mxPoint x="520" y="320" as="targetPoint" />
          </mxGeometry>
        </mxCell>
        <mxCell id="ExHl49rjy0cBEna2JtWI-30" value="" style="endArrow=none;html=1;rounded=0;labelBackgroundColor=none;" parent="WIyWlLk6GJQsqaUBKTNV-1" edge="1">
          <mxGeometry width="50" height="50" relative="1" as="geometry">
            <mxPoint x="520" y="1100" as="sourcePoint" />
            <mxPoint x="520" y="320" as="targetPoint" />
          </mxGeometry>
        </mxCell>
        <mxCell id="ExHl49rjy0cBEna2JtWI-31" value="" style="endArrow=classic;html=1;rounded=0;" parent="WIyWlLk6GJQsqaUBKTNV-1" edge="1">
          <mxGeometry width="50" height="50" relative="1" as="geometry">
            <mxPoint x="440" y="320" as="sourcePoint" />
            <mxPoint x="440" y="274" as="targetPoint" />
          </mxGeometry>
        </mxCell>
        <mxCell id="ExHl49rjy0cBEna2JtWI-32" value="" style="endArrow=none;html=1;rounded=0;labelBackgroundColor=none;" parent="WIyWlLk6GJQsqaUBKTNV-1" target="2D_pqOBESdX0pPicwGaX-186" edge="1">
          <mxGeometry width="50" height="50" relative="1" as="geometry">
            <mxPoint x="520" y="510" as="sourcePoint" />
            <mxPoint x="510" y="470" as="targetPoint" />
          </mxGeometry>
        </mxCell>
        <mxCell id="ExHl49rjy0cBEna2JtWI-33" value="" style="endArrow=none;html=1;rounded=0;labelBackgroundColor=none;" parent="WIyWlLk6GJQsqaUBKTNV-1" target="ExHl49rjy0cBEna2JtWI-4" edge="1">
          <mxGeometry width="50" height="50" relative="1" as="geometry">
            <mxPoint x="520" y="630" as="sourcePoint" />
            <mxPoint x="510" y="570" as="targetPoint" />
          </mxGeometry>
        </mxCell>
        <mxCell id="ExHl49rjy0cBEna2JtWI-34" value="" style="endArrow=none;html=1;rounded=0;labelBackgroundColor=none;" parent="WIyWlLk6GJQsqaUBKTNV-1" target="ExHl49rjy0cBEna2JtWI-8" edge="1">
          <mxGeometry width="50" height="50" relative="1" as="geometry">
            <mxPoint x="520" y="738" as="sourcePoint" />
            <mxPoint x="510" y="620" as="targetPoint" />
          </mxGeometry>
        </mxCell>
        <mxCell id="ExHl49rjy0cBEna2JtWI-35" value="" style="endArrow=none;html=1;rounded=0;labelBackgroundColor=none;" parent="WIyWlLk6GJQsqaUBKTNV-1" target="ExHl49rjy0cBEna2JtWI-10" edge="1">
          <mxGeometry width="50" height="50" relative="1" as="geometry">
            <mxPoint x="520" y="830" as="sourcePoint" />
            <mxPoint x="510" y="760" as="targetPoint" />
          </mxGeometry>
        </mxCell>
        <mxCell id="ExHl49rjy0cBEna2JtWI-36" value="" style="endArrow=none;html=1;rounded=0;labelBackgroundColor=none;" parent="WIyWlLk6GJQsqaUBKTNV-1" target="ExHl49rjy0cBEna2JtWI-12" edge="1">
          <mxGeometry width="50" height="50" relative="1" as="geometry">
            <mxPoint x="520" y="940" as="sourcePoint" />
            <mxPoint x="510" y="810" as="targetPoint" />
          </mxGeometry>
        </mxCell>
        <mxCell id="ExHl49rjy0cBEna2JtWI-37" value="" style="endArrow=none;html=1;rounded=0;labelBackgroundColor=none;" parent="WIyWlLk6GJQsqaUBKTNV-1" edge="1">
          <mxGeometry width="50" height="50" relative="1" as="geometry">
            <mxPoint x="520" y="1100" as="sourcePoint" />
            <mxPoint x="550" y="1100" as="targetPoint" />
          </mxGeometry>
        </mxCell>
        <mxCell id="ExHl49rjy0cBEna2JtWI-38" value="" style="endArrow=none;html=1;rounded=0;labelBackgroundColor=none;" parent="WIyWlLk6GJQsqaUBKTNV-1" target="ExHl49rjy0cBEna2JtWI-14" edge="1">
          <mxGeometry width="50" height="50" relative="1" as="geometry">
            <mxPoint x="520" y="1030" as="sourcePoint" />
            <mxPoint x="510" y="950" as="targetPoint" />
          </mxGeometry>
        </mxCell>
        <mxCell id="ExHl49rjy0cBEna2JtWI-39" value="" style="endArrow=open;endFill=1;endSize=12;html=1;rounded=0;entryX=0.002;entryY=0.24;entryDx=0;entryDy=0;entryPerimeter=0;exitX=0.996;exitY=0.197;exitDx=0;exitDy=0;exitPerimeter=0;" parent="WIyWlLk6GJQsqaUBKTNV-1" source="2D_pqOBESdX0pPicwGaX-186" target="2D_pqOBESdX0pPicwGaX-194" edge="1">
          <mxGeometry width="160" relative="1" as="geometry">
            <mxPoint x="460" y="530" as="sourcePoint" />
            <mxPoint x="620" y="530" as="targetPoint" />
            <Array as="points">
              <mxPoint x="820" y="495" />
              <mxPoint x="820" y="441" />
              <mxPoint x="841" y="440" />
            </Array>
          </mxGeometry>
        </mxCell>
        <mxCell id="ExHl49rjy0cBEna2JtWI-48" value="" style="endArrow=classic;html=1;rounded=0;fillColor=#ffe6cc;strokeColor=#d79b00;" parent="WIyWlLk6GJQsqaUBKTNV-1" source="2D_pqOBESdX0pPicwGaX-191" target="2D_pqOBESdX0pPicwGaX-187" edge="1">
          <mxGeometry width="50" height="50" relative="1" as="geometry">
            <mxPoint x="1060" y="640" as="sourcePoint" />
            <mxPoint x="1340" y="660" as="targetPoint" />
            <Array as="points">
              <mxPoint x="1240" y="452" />
              <mxPoint x="1240" y="690" />
            </Array>
          </mxGeometry>
        </mxCell>
        <mxCell id="ExHl49rjy0cBEna2JtWI-49" value="" style="endArrow=classic;html=1;rounded=0;fillColor=#ffe6cc;strokeColor=#d79b00;" parent="WIyWlLk6GJQsqaUBKTNV-1" source="2D_pqOBESdX0pPicwGaX-203" target="2D_pqOBESdX0pPicwGaX-187" edge="1">
          <mxGeometry width="50" height="50" relative="1" as="geometry">
            <mxPoint x="970" y="700" as="sourcePoint" />
            <mxPoint x="1020" y="650" as="targetPoint" />
            <Array as="points">
              <mxPoint x="1240" y="584" />
              <mxPoint x="1240" y="690" />
            </Array>
          </mxGeometry>
        </mxCell>
        <mxCell id="ExHl49rjy0cBEna2JtWI-50" style="edgeStyle=orthogonalEdgeStyle;rounded=0;orthogonalLoop=1;jettySize=auto;html=1;exitX=1;exitY=0.5;exitDx=0;exitDy=0;fillColor=#ffe6cc;strokeColor=#d79b00;" parent="WIyWlLk6GJQsqaUBKTNV-1" source="2D_pqOBESdX0pPicwGaX-212" target="2D_pqOBESdX0pPicwGaX-187" edge="1">
          <mxGeometry relative="1" as="geometry">
            <Array as="points">
              <mxPoint x="1068" y="690" />
            </Array>
          </mxGeometry>
        </mxCell>
        <mxCell id="ExHl49rjy0cBEna2JtWI-51" style="edgeStyle=orthogonalEdgeStyle;rounded=0;orthogonalLoop=1;jettySize=auto;html=1;exitX=1;exitY=0.5;exitDx=0;exitDy=0;fillColor=#ffe6cc;strokeColor=#d79b00;" parent="WIyWlLk6GJQsqaUBKTNV-1" source="2D_pqOBESdX0pPicwGaX-196" target="2D_pqOBESdX0pPicwGaX-187" edge="1">
          <mxGeometry relative="1" as="geometry">
            <Array as="points">
              <mxPoint x="1069" y="800" />
              <mxPoint x="1240" y="800" />
              <mxPoint x="1240" y="690" />
            </Array>
          </mxGeometry>
        </mxCell>
        <mxCell id="ExHl49rjy0cBEna2JtWI-52" style="edgeStyle=orthogonalEdgeStyle;rounded=0;orthogonalLoop=1;jettySize=auto;html=1;exitX=1;exitY=0.5;exitDx=0;exitDy=0;fillColor=#ffe6cc;strokeColor=#d79b00;" parent="WIyWlLk6GJQsqaUBKTNV-1" source="2D_pqOBESdX0pPicwGaX-200" target="2D_pqOBESdX0pPicwGaX-187" edge="1">
          <mxGeometry relative="1" as="geometry">
            <Array as="points">
              <mxPoint x="1071" y="900" />
              <mxPoint x="1240" y="900" />
              <mxPoint x="1240" y="690" />
            </Array>
          </mxGeometry>
        </mxCell>
        <mxCell id="ExHl49rjy0cBEna2JtWI-53" style="edgeStyle=orthogonalEdgeStyle;rounded=0;orthogonalLoop=1;jettySize=auto;html=1;exitX=1;exitY=0.5;exitDx=0;exitDy=0;fillColor=#ffe6cc;strokeColor=#d79b00;" parent="WIyWlLk6GJQsqaUBKTNV-1" source="2D_pqOBESdX0pPicwGaX-220" target="2D_pqOBESdX0pPicwGaX-187" edge="1">
          <mxGeometry relative="1" as="geometry">
            <Array as="points">
              <mxPoint x="1070" y="980" />
              <mxPoint x="1240" y="980" />
              <mxPoint x="1240" y="690" />
            </Array>
          </mxGeometry>
        </mxCell>
        <mxCell id="ExHl49rjy0cBEna2JtWI-56" value="" style="endArrow=open;endFill=1;endSize=12;html=1;rounded=0;fillColor=#ffe6cc;strokeColor=#d79b00;" parent="WIyWlLk6GJQsqaUBKTNV-1" target="2D_pqOBESdX0pPicwGaX-223" edge="1">
          <mxGeometry width="160" relative="1" as="geometry">
            <mxPoint x="1030" y="1220" as="sourcePoint" />
            <mxPoint x="980" y="1169" as="targetPoint" />
          </mxGeometry>
        </mxCell>
        <mxCell id="2D_pqOBESdX0pPicwGaX-323" value="" style="endArrow=open;endFill=1;endSize=12;html=1;rounded=0;entryX=0.002;entryY=0.361;entryDx=0;entryDy=0;entryPerimeter=0;fillColor=#ffe6cc;strokeColor=#d79b00;" parent="WIyWlLk6GJQsqaUBKTNV-1" source="2D_pqOBESdX0pPicwGaX-148" target="2D_pqOBESdX0pPicwGaX-180" edge="1">
          <mxGeometry width="160" relative="1" as="geometry">
            <mxPoint x="-850" y="790" as="sourcePoint" />
            <mxPoint x="-690" y="790" as="targetPoint" />
          </mxGeometry>
        </mxCell>
        <mxCell id="ExHl49rjy0cBEna2JtWI-73" style="edgeStyle=orthogonalEdgeStyle;rounded=0;orthogonalLoop=1;jettySize=auto;html=1;exitX=0.5;exitY=0;exitDx=0;exitDy=0;entryX=0.5;entryY=0;entryDx=0;entryDy=0;fillColor=#d5e8d4;strokeColor=#82b366;" parent="WIyWlLk6GJQsqaUBKTNV-1" source="ExHl49rjy0cBEna2JtWI-57" target="2D_pqOBESdX0pPicwGaX-4" edge="1">
          <mxGeometry relative="1" as="geometry" />
        </mxCell>
        <mxCell id="ExHl49rjy0cBEna2JtWI-57" value="InstructionsMenuController" style="swimlane;fontStyle=1;align=center;verticalAlign=top;childLayout=stackLayout;horizontal=1;startSize=26;horizontalStack=0;resizeParent=1;resizeParentMax=0;resizeLast=0;collapsible=1;marginBottom=0;whiteSpace=wrap;html=1;fillColor=#d5e8d4;strokeColor=#82b366;rounded=0;" parent="WIyWlLk6GJQsqaUBKTNV-1" vertex="1">
          <mxGeometry x="-30" y="-260" width="160" height="80" as="geometry" />
        </mxCell>
        <mxCell id="ExHl49rjy0cBEna2JtWI-58" value="&amp;nbsp;+ step(game : Game, action : GUI.ACTION, time : long)" style="text;strokeColor=#82b366;fillColor=#d5e8d4;align=left;verticalAlign=top;spacingLeft=4;spacingRight=4;overflow=hidden;rotatable=0;points=[[0,0.5],[1,0.5]];portConstraint=eastwest;whiteSpace=wrap;html=1;rounded=0;" parent="ExHl49rjy0cBEna2JtWI-57" vertex="1">
          <mxGeometry y="26" width="160" height="54" as="geometry" />
        </mxCell>
        <mxCell id="ExHl49rjy0cBEna2JtWI-74" style="edgeStyle=orthogonalEdgeStyle;rounded=0;orthogonalLoop=1;jettySize=auto;html=1;exitX=0.5;exitY=0;exitDx=0;exitDy=0;fillColor=#d5e8d4;strokeColor=#82b366;" parent="WIyWlLk6GJQsqaUBKTNV-1" source="ExHl49rjy0cBEna2JtWI-59" target="2D_pqOBESdX0pPicwGaX-4" edge="1">
          <mxGeometry relative="1" as="geometry" />
        </mxCell>
        <mxCell id="ExHl49rjy0cBEna2JtWI-59" value="PauseMenuController" style="swimlane;fontStyle=1;align=center;verticalAlign=top;childLayout=stackLayout;horizontal=1;startSize=26;horizontalStack=0;resizeParent=1;resizeParentMax=0;resizeLast=0;collapsible=1;marginBottom=0;whiteSpace=wrap;html=1;fillColor=#d5e8d4;strokeColor=#82b366;rounded=0;" parent="WIyWlLk6GJQsqaUBKTNV-1" vertex="1">
          <mxGeometry x="-210" y="-260" width="160" height="80" as="geometry" />
        </mxCell>
        <mxCell id="ExHl49rjy0cBEna2JtWI-60" value="&amp;nbsp;+ step(game : Game, action : GUI.ACTION, time : long)" style="text;strokeColor=#82b366;fillColor=#d5e8d4;align=left;verticalAlign=top;spacingLeft=4;spacingRight=4;overflow=hidden;rotatable=0;points=[[0,0.5],[1,0.5]];portConstraint=eastwest;whiteSpace=wrap;html=1;rounded=0;" parent="ExHl49rjy0cBEna2JtWI-59" vertex="1">
          <mxGeometry y="26" width="160" height="54" as="geometry" />
        </mxCell>
        <mxCell id="ExHl49rjy0cBEna2JtWI-75" style="edgeStyle=orthogonalEdgeStyle;rounded=0;orthogonalLoop=1;jettySize=auto;html=1;exitX=0.5;exitY=0;exitDx=0;exitDy=0;fillColor=#d5e8d4;strokeColor=#82b366;" parent="WIyWlLk6GJQsqaUBKTNV-1" source="ExHl49rjy0cBEna2JtWI-61" target="2D_pqOBESdX0pPicwGaX-4" edge="1">
          <mxGeometry relative="1" as="geometry" />
        </mxCell>
        <mxCell id="ExHl49rjy0cBEna2JtWI-61" value="LevelSelectMenuController" style="swimlane;fontStyle=1;align=center;verticalAlign=top;childLayout=stackLayout;horizontal=1;startSize=26;horizontalStack=0;resizeParent=1;resizeParentMax=0;resizeLast=0;collapsible=1;marginBottom=0;whiteSpace=wrap;html=1;fillColor=#d5e8d4;strokeColor=#82b366;rounded=0;" parent="WIyWlLk6GJQsqaUBKTNV-1" vertex="1">
          <mxGeometry x="-395" y="-260" width="160" height="80" as="geometry" />
        </mxCell>
        <mxCell id="ExHl49rjy0cBEna2JtWI-62" value="&amp;nbsp;+ step(game : Game, action : GUI.ACTION, time : long)" style="text;strokeColor=#82b366;fillColor=#d5e8d4;align=left;verticalAlign=top;spacingLeft=4;spacingRight=4;overflow=hidden;rotatable=0;points=[[0,0.5],[1,0.5]];portConstraint=eastwest;whiteSpace=wrap;html=1;rounded=0;" parent="ExHl49rjy0cBEna2JtWI-61" vertex="1">
          <mxGeometry y="26" width="160" height="54" as="geometry" />
        </mxCell>
        <mxCell id="ExHl49rjy0cBEna2JtWI-79" style="edgeStyle=orthogonalEdgeStyle;rounded=0;orthogonalLoop=1;jettySize=auto;html=1;fillColor=#d5e8d4;strokeColor=#82b366;" parent="WIyWlLk6GJQsqaUBKTNV-1" source="ExHl49rjy0cBEna2JtWI-65" target="2D_pqOBESdX0pPicwGaX-4" edge="1">
          <mxGeometry relative="1" as="geometry">
            <Array as="points">
              <mxPoint x="140" y="-280" />
              <mxPoint x="445" y="-280" />
            </Array>
          </mxGeometry>
        </mxCell>
        <mxCell id="ExHl49rjy0cBEna2JtWI-65" value="HiscoresMenuController" style="swimlane;fontStyle=1;align=center;verticalAlign=top;childLayout=stackLayout;horizontal=1;startSize=26;horizontalStack=0;resizeParent=1;resizeParentMax=0;resizeLast=0;collapsible=1;marginBottom=0;whiteSpace=wrap;html=1;fillColor=#d5e8d4;strokeColor=#82b366;rounded=0;" parent="WIyWlLk6GJQsqaUBKTNV-1" vertex="1">
          <mxGeometry x="60" y="-390" width="160" height="80" as="geometry" />
        </mxCell>
        <mxCell id="ExHl49rjy0cBEna2JtWI-66" value="&amp;nbsp;+ step(game : Game, action : GUI.ACTION, time : long)" style="text;strokeColor=#82b366;fillColor=#d5e8d4;align=left;verticalAlign=top;spacingLeft=4;spacingRight=4;overflow=hidden;rotatable=0;points=[[0,0.5],[1,0.5]];portConstraint=eastwest;whiteSpace=wrap;html=1;rounded=0;" parent="ExHl49rjy0cBEna2JtWI-65" vertex="1">
          <mxGeometry y="26" width="160" height="54" as="geometry" />
        </mxCell>
        <mxCell id="ExHl49rjy0cBEna2JtWI-78" style="edgeStyle=orthogonalEdgeStyle;rounded=0;orthogonalLoop=1;jettySize=auto;html=1;fillColor=#d5e8d4;strokeColor=#82b366;" parent="WIyWlLk6GJQsqaUBKTNV-1" source="ExHl49rjy0cBEna2JtWI-67" target="2D_pqOBESdX0pPicwGaX-4" edge="1">
          <mxGeometry relative="1" as="geometry">
            <Array as="points">
              <mxPoint x="-40" y="-280" />
              <mxPoint x="445" y="-280" />
            </Array>
          </mxGeometry>
        </mxCell>
        <mxCell id="ExHl49rjy0cBEna2JtWI-67" value="NewHiscoreMenuController" style="swimlane;fontStyle=1;align=center;verticalAlign=top;childLayout=stackLayout;horizontal=1;startSize=26;horizontalStack=0;resizeParent=1;resizeParentMax=0;resizeLast=0;collapsible=1;marginBottom=0;whiteSpace=wrap;html=1;fillColor=#d5e8d4;strokeColor=#82b366;rounded=0;" parent="WIyWlLk6GJQsqaUBKTNV-1" vertex="1">
          <mxGeometry x="-120" y="-390" width="160" height="80" as="geometry" />
        </mxCell>
        <mxCell id="ExHl49rjy0cBEna2JtWI-68" value="&amp;nbsp;+ step(game : Game, action : GUI.ACTION, time : long)" style="text;strokeColor=#82b366;fillColor=#d5e8d4;align=left;verticalAlign=top;spacingLeft=4;spacingRight=4;overflow=hidden;rotatable=0;points=[[0,0.5],[1,0.5]];portConstraint=eastwest;whiteSpace=wrap;html=1;rounded=0;" parent="ExHl49rjy0cBEna2JtWI-67" vertex="1">
          <mxGeometry y="26" width="160" height="54" as="geometry" />
        </mxCell>
        <mxCell id="ExHl49rjy0cBEna2JtWI-77" style="edgeStyle=orthogonalEdgeStyle;rounded=0;orthogonalLoop=1;jettySize=auto;html=1;fillColor=#d5e8d4;strokeColor=#82b366;" parent="WIyWlLk6GJQsqaUBKTNV-1" source="ExHl49rjy0cBEna2JtWI-69" target="2D_pqOBESdX0pPicwGaX-4" edge="1">
          <mxGeometry relative="1" as="geometry">
            <Array as="points">
              <mxPoint x="-230" y="-280" />
              <mxPoint x="445" y="-280" />
            </Array>
          </mxGeometry>
        </mxCell>
        <mxCell id="ExHl49rjy0cBEna2JtWI-69" value="OptionsMenuController" style="swimlane;fontStyle=1;align=center;verticalAlign=top;childLayout=stackLayout;horizontal=1;startSize=26;horizontalStack=0;resizeParent=1;resizeParentMax=0;resizeLast=0;collapsible=1;marginBottom=0;whiteSpace=wrap;html=1;fillColor=#d5e8d4;strokeColor=#82b366;rounded=0;" parent="WIyWlLk6GJQsqaUBKTNV-1" vertex="1">
          <mxGeometry x="-310" y="-390" width="160" height="80" as="geometry" />
        </mxCell>
        <mxCell id="ExHl49rjy0cBEna2JtWI-70" value="&amp;nbsp;+ step(game : Game, action : GUI.ACTION, time : long)" style="text;strokeColor=#82b366;fillColor=#d5e8d4;align=left;verticalAlign=top;spacingLeft=4;spacingRight=4;overflow=hidden;rotatable=0;points=[[0,0.5],[1,0.5]];portConstraint=eastwest;whiteSpace=wrap;html=1;rounded=0;" parent="ExHl49rjy0cBEna2JtWI-69" vertex="1">
          <mxGeometry y="26" width="160" height="54" as="geometry" />
        </mxCell>
        <mxCell id="ExHl49rjy0cBEna2JtWI-95" style="edgeStyle=orthogonalEdgeStyle;rounded=0;orthogonalLoop=1;jettySize=auto;html=1;exitX=0.5;exitY=0;exitDx=0;exitDy=0;fillColor=#dae8fc;strokeColor=#6c8ebf;" parent="WIyWlLk6GJQsqaUBKTNV-1" source="ExHl49rjy0cBEna2JtWI-80" target="2D_pqOBESdX0pPicwGaX-96" edge="1">
          <mxGeometry relative="1" as="geometry">
            <Array as="points">
              <mxPoint x="1255" y="253" />
              <mxPoint x="840" y="253" />
              <mxPoint x="840" y="157" />
            </Array>
          </mxGeometry>
        </mxCell>
        <mxCell id="ExHl49rjy0cBEna2JtWI-80" value="&lt;b&gt;InstructionsMenuView&lt;/b&gt;" style="swimlane;fontStyle=0;childLayout=stackLayout;horizontal=1;startSize=26;fillColor=#dae8fc;horizontalStack=0;resizeParent=1;resizeParentMax=0;resizeLast=0;collapsible=1;marginBottom=0;whiteSpace=wrap;html=1;strokeColor=#6c8ebf;rounded=0;" parent="WIyWlLk6GJQsqaUBKTNV-1" vertex="1">
          <mxGeometry x="1130" y="274" width="250" height="52" as="geometry" />
        </mxCell>
        <mxCell id="ExHl49rjy0cBEna2JtWI-81" value="+ drawElements(gui : GUI)" style="text;strokeColor=#6c8ebf;fillColor=#dae8fc;align=left;verticalAlign=top;spacingLeft=4;spacingRight=4;overflow=hidden;rotatable=0;points=[[0,0.5],[1,0.5]];portConstraint=eastwest;whiteSpace=wrap;html=1;rounded=0;" parent="ExHl49rjy0cBEna2JtWI-80" vertex="1">
          <mxGeometry y="26" width="250" height="26" as="geometry" />
        </mxCell>
        <mxCell id="ExHl49rjy0cBEna2JtWI-96" style="edgeStyle=orthogonalEdgeStyle;rounded=0;orthogonalLoop=1;jettySize=auto;html=1;exitX=0.5;exitY=0;exitDx=0;exitDy=0;fillColor=#dae8fc;strokeColor=#6c8ebf;" parent="WIyWlLk6GJQsqaUBKTNV-1" source="ExHl49rjy0cBEna2JtWI-82" target="2D_pqOBESdX0pPicwGaX-96" edge="1">
          <mxGeometry relative="1" as="geometry">
            <Array as="points">
              <mxPoint x="1515" y="253" />
              <mxPoint x="840" y="253" />
              <mxPoint x="840" y="157" />
            </Array>
          </mxGeometry>
        </mxCell>
        <mxCell id="ExHl49rjy0cBEna2JtWI-82" value="&lt;b&gt;PauseMenuView&lt;/b&gt;" style="swimlane;fontStyle=0;childLayout=stackLayout;horizontal=1;startSize=26;fillColor=#dae8fc;horizontalStack=0;resizeParent=1;resizeParentMax=0;resizeLast=0;collapsible=1;marginBottom=0;whiteSpace=wrap;html=1;strokeColor=#6c8ebf;rounded=0;" parent="WIyWlLk6GJQsqaUBKTNV-1" vertex="1">
          <mxGeometry x="1390" y="274" width="250" height="52" as="geometry" />
        </mxCell>
        <mxCell id="ExHl49rjy0cBEna2JtWI-83" value="+ drawElements(gui : GUI)" style="text;strokeColor=#6c8ebf;fillColor=#dae8fc;align=left;verticalAlign=top;spacingLeft=4;spacingRight=4;overflow=hidden;rotatable=0;points=[[0,0.5],[1,0.5]];portConstraint=eastwest;whiteSpace=wrap;html=1;rounded=0;" parent="ExHl49rjy0cBEna2JtWI-82" vertex="1">
          <mxGeometry y="26" width="250" height="26" as="geometry" />
        </mxCell>
        <mxCell id="ExHl49rjy0cBEna2JtWI-97" style="edgeStyle=orthogonalEdgeStyle;rounded=0;orthogonalLoop=1;jettySize=auto;html=1;exitX=0.25;exitY=0;exitDx=0;exitDy=0;fillColor=#dae8fc;strokeColor=#6c8ebf;" parent="WIyWlLk6GJQsqaUBKTNV-1" source="ExHl49rjy0cBEna2JtWI-84" target="2D_pqOBESdX0pPicwGaX-96" edge="1">
          <mxGeometry relative="1" as="geometry">
            <Array as="points">
              <mxPoint x="1717" y="253" />
              <mxPoint x="840" y="253" />
              <mxPoint x="840" y="157" />
            </Array>
          </mxGeometry>
        </mxCell>
        <mxCell id="ExHl49rjy0cBEna2JtWI-84" value="&lt;b&gt;Level&lt;/b&gt;&lt;b&gt;SelectmenuView&lt;/b&gt;" style="swimlane;fontStyle=0;childLayout=stackLayout;horizontal=1;startSize=26;fillColor=#dae8fc;horizontalStack=0;resizeParent=1;resizeParentMax=0;resizeLast=0;collapsible=1;marginBottom=0;whiteSpace=wrap;html=1;strokeColor=#6c8ebf;rounded=0;" parent="WIyWlLk6GJQsqaUBKTNV-1" vertex="1">
          <mxGeometry x="1654" y="274" width="250" height="52" as="geometry" />
        </mxCell>
        <mxCell id="ExHl49rjy0cBEna2JtWI-85" value="+ drawElements(gui : GUI)" style="text;strokeColor=#6c8ebf;fillColor=#dae8fc;align=left;verticalAlign=top;spacingLeft=4;spacingRight=4;overflow=hidden;rotatable=0;points=[[0,0.5],[1,0.5]];portConstraint=eastwest;whiteSpace=wrap;html=1;rounded=0;" parent="ExHl49rjy0cBEna2JtWI-84" vertex="1">
          <mxGeometry y="26" width="250" height="26" as="geometry" />
        </mxCell>
        <mxCell id="ExHl49rjy0cBEna2JtWI-86" value="&lt;b&gt;HiscoresMenuView&lt;/b&gt;" style="swimlane;fontStyle=0;childLayout=stackLayout;horizontal=1;startSize=26;fillColor=#dae8fc;horizontalStack=0;resizeParent=1;resizeParentMax=0;resizeLast=0;collapsible=1;marginBottom=0;whiteSpace=wrap;html=1;strokeColor=#6c8ebf;rounded=0;" parent="WIyWlLk6GJQsqaUBKTNV-1" vertex="1">
          <mxGeometry x="991" y="168" width="250" height="52" as="geometry" />
        </mxCell>
        <mxCell id="ExHl49rjy0cBEna2JtWI-87" value="+ drawElements(gui : GUI)" style="text;strokeColor=#6c8ebf;fillColor=#dae8fc;align=left;verticalAlign=top;spacingLeft=4;spacingRight=4;overflow=hidden;rotatable=0;points=[[0,0.5],[1,0.5]];portConstraint=eastwest;whiteSpace=wrap;html=1;rounded=0;" parent="ExHl49rjy0cBEna2JtWI-86" vertex="1">
          <mxGeometry y="26" width="250" height="26" as="geometry" />
        </mxCell>
        <mxCell id="ExHl49rjy0cBEna2JtWI-108" style="edgeStyle=orthogonalEdgeStyle;rounded=0;orthogonalLoop=1;jettySize=auto;html=1;exitX=0.25;exitY=1;exitDx=0;exitDy=0;fillColor=#dae8fc;strokeColor=#6c8ebf;" parent="WIyWlLk6GJQsqaUBKTNV-1" source="ExHl49rjy0cBEna2JtWI-88" target="2D_pqOBESdX0pPicwGaX-96" edge="1">
          <mxGeometry relative="1" as="geometry">
            <Array as="points">
              <mxPoint x="1312" y="250" />
              <mxPoint x="840" y="250" />
              <mxPoint x="840" y="157" />
            </Array>
          </mxGeometry>
        </mxCell>
        <mxCell id="ExHl49rjy0cBEna2JtWI-88" value="&lt;b&gt;NewHiscoreMenuView&lt;/b&gt;" style="swimlane;fontStyle=0;childLayout=stackLayout;horizontal=1;startSize=26;fillColor=#dae8fc;horizontalStack=0;resizeParent=1;resizeParentMax=0;resizeLast=0;collapsible=1;marginBottom=0;whiteSpace=wrap;html=1;strokeColor=#6c8ebf;rounded=0;" parent="WIyWlLk6GJQsqaUBKTNV-1" vertex="1">
          <mxGeometry x="1250" y="168" width="250" height="52" as="geometry" />
        </mxCell>
        <mxCell id="ExHl49rjy0cBEna2JtWI-89" value="+ drawElements(gui : GUI)" style="text;strokeColor=#6c8ebf;fillColor=#dae8fc;align=left;verticalAlign=top;spacingLeft=4;spacingRight=4;overflow=hidden;rotatable=0;points=[[0,0.5],[1,0.5]];portConstraint=eastwest;whiteSpace=wrap;html=1;rounded=0;" parent="ExHl49rjy0cBEna2JtWI-88" vertex="1">
          <mxGeometry y="26" width="250" height="26" as="geometry" />
        </mxCell>
        <mxCell id="ExHl49rjy0cBEna2JtWI-109" style="edgeStyle=orthogonalEdgeStyle;rounded=0;orthogonalLoop=1;jettySize=auto;html=1;exitX=0.25;exitY=1;exitDx=0;exitDy=0;fillColor=#dae8fc;strokeColor=#6c8ebf;" parent="WIyWlLk6GJQsqaUBKTNV-1" source="ExHl49rjy0cBEna2JtWI-90" target="2D_pqOBESdX0pPicwGaX-96" edge="1">
          <mxGeometry relative="1" as="geometry">
            <Array as="points">
              <mxPoint x="1573" y="250" />
              <mxPoint x="840" y="250" />
              <mxPoint x="840" y="157" />
            </Array>
          </mxGeometry>
        </mxCell>
        <mxCell id="ExHl49rjy0cBEna2JtWI-90" value="&lt;b&gt;OptionsMenuView&lt;/b&gt;" style="swimlane;fontStyle=0;childLayout=stackLayout;horizontal=1;startSize=26;fillColor=#dae8fc;horizontalStack=0;resizeParent=1;resizeParentMax=0;resizeLast=0;collapsible=1;marginBottom=0;whiteSpace=wrap;html=1;strokeColor=#6c8ebf;rounded=0;" parent="WIyWlLk6GJQsqaUBKTNV-1" vertex="1">
          <mxGeometry x="1510" y="168" width="250" height="52" as="geometry" />
        </mxCell>
        <mxCell id="ExHl49rjy0cBEna2JtWI-91" value="+ drawElements(gui : GUI)" style="text;strokeColor=#6c8ebf;fillColor=#dae8fc;align=left;verticalAlign=top;spacingLeft=4;spacingRight=4;overflow=hidden;rotatable=0;points=[[0,0.5],[1,0.5]];portConstraint=eastwest;whiteSpace=wrap;html=1;rounded=0;" parent="ExHl49rjy0cBEna2JtWI-90" vertex="1">
          <mxGeometry y="26" width="250" height="26" as="geometry" />
        </mxCell>
        <mxCell id="Sui0xf1oX-jlDOztc1R0-75" value="" style="endArrow=none;html=1;rounded=0;entryX=0.5;entryY=1;entryDx=0;entryDy=0;strokeColor=#6C8EBF;" parent="ExHl49rjy0cBEna2JtWI-90" target="Sui0xf1oX-jlDOztc1R0-76" edge="1">
          <mxGeometry width="50" height="50" relative="1" as="geometry">
            <mxPoint x="207" y="86" as="sourcePoint" />
            <mxPoint x="380" y="86" as="targetPoint" />
            <Array as="points">
              <mxPoint x="385" y="86" />
            </Array>
          </mxGeometry>
        </mxCell>
        <mxCell id="ExHl49rjy0cBEna2JtWI-93" style="edgeStyle=orthogonalEdgeStyle;rounded=0;orthogonalLoop=1;jettySize=auto;html=1;exitX=0;exitY=0.5;exitDx=0;exitDy=0;fillColor=#dae8fc;strokeColor=#6c8ebf;" parent="WIyWlLk6GJQsqaUBKTNV-1" source="2D_pqOBESdX0pPicwGaX-104" target="2D_pqOBESdX0pPicwGaX-96" edge="1">
          <mxGeometry relative="1" as="geometry">
            <Array as="points">
              <mxPoint x="840" y="27" />
              <mxPoint x="840" y="157" />
            </Array>
          </mxGeometry>
        </mxCell>
        <mxCell id="ExHl49rjy0cBEna2JtWI-102" style="edgeStyle=orthogonalEdgeStyle;rounded=0;orthogonalLoop=1;jettySize=auto;html=1;fillColor=#dae8fc;strokeColor=#6c8ebf;" parent="WIyWlLk6GJQsqaUBKTNV-1" source="ExHl49rjy0cBEna2JtWI-86" target="2D_pqOBESdX0pPicwGaX-96" edge="1">
          <mxGeometry relative="1" as="geometry">
            <Array as="points">
              <mxPoint x="1116" y="250" />
              <mxPoint x="840" y="250" />
              <mxPoint x="840" y="157" />
            </Array>
          </mxGeometry>
        </mxCell>
        <mxCell id="ExHl49rjy0cBEna2JtWI-111" value="&lt;b&gt;Singleton Pattern&lt;/b&gt;" style="html=1;whiteSpace=wrap;rounded=0;" parent="WIyWlLk6GJQsqaUBKTNV-1" vertex="1">
          <mxGeometry x="65" y="-70" width="110" height="50" as="geometry" />
        </mxCell>
        <mxCell id="ExHl49rjy0cBEna2JtWI-112" value="" style="shape=flexArrow;endArrow=classic;html=1;rounded=0;exitX=0.5;exitY=1;exitDx=0;exitDy=0;" parent="WIyWlLk6GJQsqaUBKTNV-1" source="ExHl49rjy0cBEna2JtWI-111" edge="1">
          <mxGeometry width="50" height="50" relative="1" as="geometry">
            <mxPoint x="180" y="22" as="sourcePoint" />
            <mxPoint x="120" y="10" as="targetPoint" />
          </mxGeometry>
        </mxCell>
        <mxCell id="ExHl49rjy0cBEna2JtWI-114" value="&lt;b&gt;MVC Architectural Pattern&lt;/b&gt;" style="whiteSpace=wrap;html=1;rounded=0;" parent="WIyWlLk6GJQsqaUBKTNV-1" vertex="1">
          <mxGeometry x="630" y="-140" width="120" height="60" as="geometry" />
        </mxCell>
        <mxCell id="ExHl49rjy0cBEna2JtWI-115" value="" style="shape=flexArrow;endArrow=classic;html=1;rounded=0;width=8.571428571428571;endSize=5.314285714285715;fillColor=#dae8fc;strokeColor=#6c8ebf;" parent="WIyWlLk6GJQsqaUBKTNV-1" source="ExHl49rjy0cBEna2JtWI-114" edge="1">
          <mxGeometry width="50" height="50" relative="1" as="geometry">
            <mxPoint x="750" y="-82" as="sourcePoint" />
            <mxPoint x="760" y="-40" as="targetPoint" />
          </mxGeometry>
        </mxCell>
        <mxCell id="ExHl49rjy0cBEna2JtWI-116" value="" style="shape=flexArrow;endArrow=classic;html=1;rounded=0;fillColor=#ffe6cc;strokeColor=#d79b00;" parent="WIyWlLk6GJQsqaUBKTNV-1" source="ExHl49rjy0cBEna2JtWI-114" edge="1">
          <mxGeometry width="50" height="50" relative="1" as="geometry">
            <mxPoint x="680" y="120" as="sourcePoint" />
            <mxPoint x="620" y="-40" as="targetPoint" />
          </mxGeometry>
        </mxCell>
        <mxCell id="ExHl49rjy0cBEna2JtWI-117" value="" style="shape=flexArrow;endArrow=classic;html=1;rounded=0;fillColor=#d5e8d4;strokeColor=#82b366;" parent="WIyWlLk6GJQsqaUBKTNV-1" source="ExHl49rjy0cBEna2JtWI-114" edge="1">
          <mxGeometry width="50" height="50" relative="1" as="geometry">
            <mxPoint x="710" y="80" as="sourcePoint" />
            <mxPoint x="660" y="-190" as="targetPoint" />
          </mxGeometry>
        </mxCell>
        <mxCell id="ExHl49rjy0cBEna2JtWI-118" value="&lt;b&gt;Composite Pattern&lt;/b&gt;" style="whiteSpace=wrap;html=1;rounded=0;" parent="WIyWlLk6GJQsqaUBKTNV-1" vertex="1">
          <mxGeometry x="-450" y="940" width="120" height="60" as="geometry" />
        </mxCell>
        <mxCell id="ExHl49rjy0cBEna2JtWI-119" value="" style="shape=flexArrow;endArrow=classic;html=1;rounded=0;" parent="WIyWlLk6GJQsqaUBKTNV-1" source="ExHl49rjy0cBEna2JtWI-118" edge="1">
          <mxGeometry width="50" height="50" relative="1" as="geometry">
            <mxPoint x="-20" y="750" as="sourcePoint" />
            <mxPoint x="-390" y="910" as="targetPoint" />
          </mxGeometry>
        </mxCell>
        <mxCell id="ExHl49rjy0cBEna2JtWI-120" value="&lt;b&gt;Composite Pattern&lt;/b&gt;" style="whiteSpace=wrap;html=1;rounded=0;" parent="WIyWlLk6GJQsqaUBKTNV-1" vertex="1">
          <mxGeometry x="1610" y="650" width="120" height="60" as="geometry" />
        </mxCell>
        <mxCell id="ExHl49rjy0cBEna2JtWI-121" value="" style="shape=flexArrow;endArrow=classic;html=1;exitX=0;exitY=0.5;exitDx=0;exitDy=0;" parent="WIyWlLk6GJQsqaUBKTNV-1" source="ExHl49rjy0cBEna2JtWI-120" edge="1">
          <mxGeometry width="50" height="50" relative="1" as="geometry">
            <mxPoint x="1560" y="800" as="sourcePoint" />
            <mxPoint x="1570" y="680" as="targetPoint" />
          </mxGeometry>
        </mxCell>
        <mxCell id="ExHl49rjy0cBEna2JtWI-122" value="&lt;b&gt;State Pattern&lt;/b&gt;" style="whiteSpace=wrap;html=1;" parent="WIyWlLk6GJQsqaUBKTNV-1" vertex="1">
          <mxGeometry x="80" y="250" width="120" height="60" as="geometry" />
        </mxCell>
        <mxCell id="ExHl49rjy0cBEna2JtWI-123" value="" style="shape=flexArrow;endArrow=classic;html=1;fillColor=#fff2cc;strokeColor=#d6b656;" parent="WIyWlLk6GJQsqaUBKTNV-1" source="ExHl49rjy0cBEna2JtWI-122" edge="1">
          <mxGeometry width="50" height="50" relative="1" as="geometry">
            <mxPoint x="175" y="284" as="sourcePoint" />
            <mxPoint x="245" y="274" as="targetPoint" />
          </mxGeometry>
        </mxCell>
        <mxCell id="ExHl49rjy0cBEna2JtWI-124" value="&lt;b&gt;Observer Pattern&lt;/b&gt;" style="whiteSpace=wrap;html=1;" parent="WIyWlLk6GJQsqaUBKTNV-1" vertex="1">
          <mxGeometry x="1030" y="-300" width="120" height="60" as="geometry" />
        </mxCell>
        <mxCell id="ExHl49rjy0cBEna2JtWI-125" value="" style="shape=flexArrow;endArrow=classic;html=1;fillColor=#e1d5e7;strokeColor=#9673a6;" parent="WIyWlLk6GJQsqaUBKTNV-1" source="ExHl49rjy0cBEna2JtWI-124" edge="1">
          <mxGeometry width="50" height="50" relative="1" as="geometry">
            <mxPoint x="530" y="270" as="sourcePoint" />
            <mxPoint x="1040" y="-200" as="targetPoint" />
          </mxGeometry>
        </mxCell>
        <mxCell id="ExHl49rjy0cBEna2JtWI-126" value="" style="shape=flexArrow;endArrow=classic;html=1;fillColor=#647687;strokeColor=#314354;" parent="WIyWlLk6GJQsqaUBKTNV-1" source="ExHl49rjy0cBEna2JtWI-127" edge="1">
          <mxGeometry width="50" height="50" relative="1" as="geometry">
            <mxPoint x="1610" y="-490" as="sourcePoint" />
            <mxPoint x="1550" y="-485" as="targetPoint" />
          </mxGeometry>
        </mxCell>
        <mxCell id="ExHl49rjy0cBEna2JtWI-127" value="&lt;b&gt;Strategy Pattern&lt;/b&gt;" style="whiteSpace=wrap;html=1;" parent="WIyWlLk6GJQsqaUBKTNV-1" vertex="1">
          <mxGeometry x="1610" y="-515" width="120" height="60" as="geometry" />
        </mxCell>
        <mxCell id="ExHl49rjy0cBEna2JtWI-128" value="&lt;b&gt;Factory Method Pattern&lt;/b&gt;" style="whiteSpace=wrap;html=1;" parent="WIyWlLk6GJQsqaUBKTNV-1" vertex="1">
          <mxGeometry x="590" y="290" width="120" height="60" as="geometry" />
        </mxCell>
        <mxCell id="ExHl49rjy0cBEna2JtWI-129" value="" style="shape=flexArrow;endArrow=classic;html=1;fillColor=#f8cecc;strokeColor=#b85450;" parent="WIyWlLk6GJQsqaUBKTNV-1" source="ExHl49rjy0cBEna2JtWI-128" edge="1">
          <mxGeometry width="50" height="50" relative="1" as="geometry">
            <mxPoint x="490" y="500" as="sourcePoint" />
            <mxPoint x="570" y="250" as="targetPoint" />
          </mxGeometry>
        </mxCell>
        <mxCell id="ExHl49rjy0cBEna2JtWI-130" value="1" style="text;html=1;align=center;verticalAlign=middle;resizable=0;points=[];autosize=1;strokeColor=none;fillColor=none;" parent="WIyWlLk6GJQsqaUBKTNV-1" vertex="1">
          <mxGeometry x="445" y="-52" width="30" height="30" as="geometry" />
        </mxCell>
        <mxCell id="ExHl49rjy0cBEna2JtWI-131" value="1" style="text;html=1;align=center;verticalAlign=middle;resizable=0;points=[];autosize=1;strokeColor=none;fillColor=none;" parent="WIyWlLk6GJQsqaUBKTNV-1" vertex="1">
          <mxGeometry x="620" y="138" width="30" height="30" as="geometry" />
        </mxCell>
        <mxCell id="ExHl49rjy0cBEna2JtWI-132" value="1" style="text;html=1;align=center;verticalAlign=middle;resizable=0;points=[];autosize=1;strokeColor=none;fillColor=none;" parent="WIyWlLk6GJQsqaUBKTNV-1" vertex="1">
          <mxGeometry x="836" y="412" width="30" height="30" as="geometry" />
        </mxCell>
        <mxCell id="ExHl49rjy0cBEna2JtWI-133" value="1" style="text;html=1;align=center;verticalAlign=middle;resizable=0;points=[];autosize=1;strokeColor=none;fillColor=none;" parent="WIyWlLk6GJQsqaUBKTNV-1" vertex="1">
          <mxGeometry x="831" y="539" width="30" height="30" as="geometry" />
        </mxCell>
        <mxCell id="ExHl49rjy0cBEna2JtWI-134" value="1" style="text;html=1;align=center;verticalAlign=middle;resizable=0;points=[];autosize=1;strokeColor=none;fillColor=none;" parent="WIyWlLk6GJQsqaUBKTNV-1" vertex="1">
          <mxGeometry x="825" y="655" width="30" height="30" as="geometry" />
        </mxCell>
        <mxCell id="ExHl49rjy0cBEna2JtWI-136" value="1" style="text;html=1;align=center;verticalAlign=middle;resizable=0;points=[];autosize=1;strokeColor=none;fillColor=none;" parent="WIyWlLk6GJQsqaUBKTNV-1" vertex="1">
          <mxGeometry x="829" y="753" width="30" height="30" as="geometry" />
        </mxCell>
        <mxCell id="ExHl49rjy0cBEna2JtWI-137" value="1" style="text;html=1;align=center;verticalAlign=middle;resizable=0;points=[];autosize=1;strokeColor=none;fillColor=none;" parent="WIyWlLk6GJQsqaUBKTNV-1" vertex="1">
          <mxGeometry x="836" y="854" width="30" height="30" as="geometry" />
        </mxCell>
        <mxCell id="ExHl49rjy0cBEna2JtWI-139" value="1" style="text;html=1;align=center;verticalAlign=middle;resizable=0;points=[];autosize=1;strokeColor=none;fillColor=none;" parent="WIyWlLk6GJQsqaUBKTNV-1" vertex="1">
          <mxGeometry x="832" y="946" width="30" height="30" as="geometry" />
        </mxCell>
        <mxCell id="ExHl49rjy0cBEna2JtWI-140" value="1" style="text;html=1;align=center;verticalAlign=middle;resizable=0;points=[];autosize=1;strokeColor=none;fillColor=none;" parent="WIyWlLk6GJQsqaUBKTNV-1" vertex="1">
          <mxGeometry x="235" y="518" width="30" height="30" as="geometry" />
        </mxCell>
        <mxCell id="ExHl49rjy0cBEna2JtWI-141" value="1" style="text;html=1;align=center;verticalAlign=middle;resizable=0;points=[];autosize=1;strokeColor=none;fillColor=none;" parent="WIyWlLk6GJQsqaUBKTNV-1" vertex="1">
          <mxGeometry x="85" y="528" width="30" height="30" as="geometry" />
        </mxCell>
        <mxCell id="ExHl49rjy0cBEna2JtWI-142" value="*" style="text;html=1;align=center;verticalAlign=middle;resizable=0;points=[];autosize=1;strokeColor=none;fillColor=none;" parent="WIyWlLk6GJQsqaUBKTNV-1" vertex="1">
          <mxGeometry x="-95" y="528" width="30" height="30" as="geometry" />
        </mxCell>
        <mxCell id="ExHl49rjy0cBEna2JtWI-143" value="*" style="text;html=1;align=center;verticalAlign=middle;resizable=0;points=[];autosize=1;strokeColor=none;fillColor=none;" parent="WIyWlLk6GJQsqaUBKTNV-1" vertex="1">
          <mxGeometry x="-275" y="528" width="30" height="30" as="geometry" />
        </mxCell>
        <mxCell id="ExHl49rjy0cBEna2JtWI-144" value="*" style="text;html=1;align=center;verticalAlign=middle;resizable=0;points=[];autosize=1;strokeColor=none;fillColor=none;" parent="WIyWlLk6GJQsqaUBKTNV-1" vertex="1">
          <mxGeometry x="-450" y="528" width="30" height="30" as="geometry" />
        </mxCell>
        <mxCell id="ExHl49rjy0cBEna2JtWI-145" value="*" style="text;html=1;align=center;verticalAlign=middle;resizable=0;points=[];autosize=1;strokeColor=none;fillColor=none;" parent="WIyWlLk6GJQsqaUBKTNV-1" vertex="1">
          <mxGeometry x="-635" y="528" width="30" height="30" as="geometry" />
        </mxCell>
        <mxCell id="ExHl49rjy0cBEna2JtWI-146" value="1..2" style="text;html=1;align=center;verticalAlign=middle;resizable=0;points=[];autosize=1;strokeColor=none;fillColor=none;" parent="WIyWlLk6GJQsqaUBKTNV-1" vertex="1">
          <mxGeometry x="-880" y="528" width="40" height="30" as="geometry" />
        </mxCell>
        <mxCell id="ExHl49rjy0cBEna2JtWI-147" value="1" style="text;html=1;align=center;verticalAlign=middle;resizable=0;points=[];autosize=1;strokeColor=none;fillColor=none;" parent="WIyWlLk6GJQsqaUBKTNV-1" vertex="1">
          <mxGeometry x="-715" y="758" width="30" height="30" as="geometry" />
        </mxCell>
        <mxCell id="ExHl49rjy0cBEna2JtWI-148" value="1" style="text;html=1;align=center;verticalAlign=middle;resizable=0;points=[];autosize=1;strokeColor=none;fillColor=none;" parent="WIyWlLk6GJQsqaUBKTNV-1" vertex="1">
          <mxGeometry x="-265" y="818" width="30" height="30" as="geometry" />
        </mxCell>
        <mxCell id="ExHl49rjy0cBEna2JtWI-149" value="*" style="text;html=1;align=center;verticalAlign=middle;resizable=0;points=[];autosize=1;strokeColor=none;fillColor=none;" parent="WIyWlLk6GJQsqaUBKTNV-1" vertex="1">
          <mxGeometry x="915" y="1158" width="30" height="30" as="geometry" />
        </mxCell>
        <mxCell id="Sui0xf1oX-jlDOztc1R0-0" value="" style="endArrow=none;html=1;rounded=0;strokeColor=#82B366;" parent="WIyWlLk6GJQsqaUBKTNV-1" source="Sui0xf1oX-jlDOztc1R0-2" edge="1">
          <mxGeometry width="50" height="50" relative="1" as="geometry">
            <mxPoint x="-410" y="-320" as="sourcePoint" />
            <mxPoint x="-315" y="-280" as="targetPoint" />
            <Array as="points">
              <mxPoint x="-420" y="-280" />
            </Array>
          </mxGeometry>
        </mxCell>
        <mxCell id="Sui0xf1oX-jlDOztc1R0-1" value="NewHiscoreMenuController" style="swimlane;fontStyle=1;align=center;verticalAlign=top;childLayout=stackLayout;horizontal=1;startSize=26;horizontalStack=0;resizeParent=1;resizeParentMax=0;resizeLast=0;collapsible=1;marginBottom=0;whiteSpace=wrap;html=1;fillColor=#d5e8d4;strokeColor=#82b366;rounded=0;" parent="WIyWlLk6GJQsqaUBKTNV-1" vertex="1">
          <mxGeometry x="-500" y="-420" width="160" height="110" as="geometry" />
        </mxCell>
        <mxCell id="Sui0xf1oX-jlDOztc1R0-2" value="&lt;div&gt;&amp;nbsp;+ step(game : Game, action : GUI.ACTION, time : long)&lt;/div&gt;&lt;div&gt;+ handleInputCharacter(inputChar : char)&lt;br&gt;&lt;/div&gt;" style="text;strokeColor=#82b366;fillColor=#d5e8d4;align=left;verticalAlign=top;spacingLeft=4;spacingRight=4;overflow=hidden;rotatable=0;points=[[0,0.5],[1,0.5]];portConstraint=eastwest;whiteSpace=wrap;html=1;rounded=0;" parent="Sui0xf1oX-jlDOztc1R0-1" vertex="1">
          <mxGeometry y="26" width="160" height="84" as="geometry" />
        </mxCell>
        <mxCell id="Sui0xf1oX-jlDOztc1R0-5" value="" style="endArrow=none;html=1;rounded=0;strokeColor=#82B366;exitX=0.5;exitY=0;exitDx=0;exitDy=0;" parent="WIyWlLk6GJQsqaUBKTNV-1" source="Sui0xf1oX-jlDOztc1R0-6" edge="1">
          <mxGeometry width="50" height="50" relative="1" as="geometry">
            <mxPoint x="-525" y="-260" as="sourcePoint" />
            <mxPoint x="-420" y="-280" as="targetPoint" />
            <Array as="points">
              <mxPoint x="-515" y="-280" />
            </Array>
          </mxGeometry>
        </mxCell>
        <mxCell id="Sui0xf1oX-jlDOztc1R0-6" value="LevelCompletedMenuController" style="swimlane;fontStyle=1;align=center;verticalAlign=top;childLayout=stackLayout;horizontal=1;startSize=26;horizontalStack=0;resizeParent=1;resizeParentMax=0;resizeLast=0;collapsible=1;marginBottom=0;whiteSpace=wrap;html=1;fillColor=#d5e8d4;strokeColor=#82b366;rounded=0;" parent="WIyWlLk6GJQsqaUBKTNV-1" vertex="1">
          <mxGeometry x="-600" y="-260" width="170" height="80" as="geometry" />
        </mxCell>
        <mxCell id="Sui0xf1oX-jlDOztc1R0-7" value="&amp;nbsp;+ step(game : Game, action : GUI.ACTION, time : long)" style="text;strokeColor=#82b366;fillColor=#d5e8d4;align=left;verticalAlign=top;spacingLeft=4;spacingRight=4;overflow=hidden;rotatable=0;points=[[0,0.5],[1,0.5]];portConstraint=eastwest;whiteSpace=wrap;html=1;rounded=0;" parent="Sui0xf1oX-jlDOztc1R0-6" vertex="1">
          <mxGeometry y="26" width="170" height="54" as="geometry" />
        </mxCell>
        <mxCell id="Sui0xf1oX-jlDOztc1R0-9" value="" style="endArrow=none;html=1;rounded=0;strokeColor=#82B366;" parent="WIyWlLk6GJQsqaUBKTNV-1" edge="1">
          <mxGeometry width="50" height="50" relative="1" as="geometry">
            <mxPoint x="-620" y="-310" as="sourcePoint" />
            <mxPoint x="-515" y="-280" as="targetPoint" />
            <Array as="points">
              <mxPoint x="-620" y="-280" />
            </Array>
          </mxGeometry>
        </mxCell>
        <mxCell id="Sui0xf1oX-jlDOztc1R0-10" value="GameSavedMenuController" style="swimlane;fontStyle=1;align=center;verticalAlign=top;childLayout=stackLayout;horizontal=1;startSize=26;horizontalStack=0;resizeParent=1;resizeParentMax=0;resizeLast=0;collapsible=1;marginBottom=0;whiteSpace=wrap;html=1;fillColor=#d5e8d4;strokeColor=#82b366;rounded=0;" parent="WIyWlLk6GJQsqaUBKTNV-1" vertex="1">
          <mxGeometry x="-700" y="-390" width="160" height="80" as="geometry" />
        </mxCell>
        <mxCell id="Sui0xf1oX-jlDOztc1R0-11" value="&amp;nbsp;+ step(game : Game, action : GUI.ACTION, time : long)" style="text;strokeColor=#82b366;fillColor=#d5e8d4;align=left;verticalAlign=top;spacingLeft=4;spacingRight=4;overflow=hidden;rotatable=0;points=[[0,0.5],[1,0.5]];portConstraint=eastwest;whiteSpace=wrap;html=1;rounded=0;" parent="Sui0xf1oX-jlDOztc1R0-10" vertex="1">
          <mxGeometry y="26" width="160" height="54" as="geometry" />
        </mxCell>
        <mxCell id="Sui0xf1oX-jlDOztc1R0-12" value="" style="endArrow=none;html=1;rounded=0;strokeColor=#82B366;exitX=0.5;exitY=0;exitDx=0;exitDy=0;" parent="WIyWlLk6GJQsqaUBKTNV-1" edge="1">
          <mxGeometry width="50" height="50" relative="1" as="geometry">
            <mxPoint x="-715" y="-260" as="sourcePoint" />
            <mxPoint x="-620" y="-280" as="targetPoint" />
            <Array as="points">
              <mxPoint x="-715" y="-280" />
            </Array>
          </mxGeometry>
        </mxCell>
        <mxCell id="Sui0xf1oX-jlDOztc1R0-13" value="GameOverMenuController" style="swimlane;fontStyle=1;align=center;verticalAlign=top;childLayout=stackLayout;horizontal=1;startSize=26;horizontalStack=0;resizeParent=1;resizeParentMax=0;resizeLast=0;collapsible=1;marginBottom=0;whiteSpace=wrap;html=1;fillColor=#d5e8d4;strokeColor=#82b366;rounded=0;" parent="WIyWlLk6GJQsqaUBKTNV-1" vertex="1">
          <mxGeometry x="-794" y="-260" width="160" height="80" as="geometry" />
        </mxCell>
        <mxCell id="Sui0xf1oX-jlDOztc1R0-14" value="&amp;nbsp;+ step(game : Game, action : GUI.ACTION, time : long)" style="text;strokeColor=#82b366;fillColor=#d5e8d4;align=left;verticalAlign=top;spacingLeft=4;spacingRight=4;overflow=hidden;rotatable=0;points=[[0,0.5],[1,0.5]];portConstraint=eastwest;whiteSpace=wrap;html=1;rounded=0;" parent="Sui0xf1oX-jlDOztc1R0-13" vertex="1">
          <mxGeometry y="26" width="160" height="54" as="geometry" />
        </mxCell>
        <mxCell id="Sui0xf1oX-jlDOztc1R0-15" value="" style="endArrow=none;html=1;rounded=0;strokeColor=#82B366;" parent="WIyWlLk6GJQsqaUBKTNV-1" edge="1">
          <mxGeometry width="50" height="50" relative="1" as="geometry">
            <mxPoint x="-820" y="-310" as="sourcePoint" />
            <mxPoint x="-715" y="-280" as="targetPoint" />
            <Array as="points">
              <mxPoint x="-820" y="-280" />
            </Array>
          </mxGeometry>
        </mxCell>
        <mxCell id="Sui0xf1oX-jlDOztc1R0-16" value="GameLoadedMenuController" style="swimlane;fontStyle=1;align=center;verticalAlign=top;childLayout=stackLayout;horizontal=1;startSize=26;horizontalStack=0;resizeParent=1;resizeParentMax=0;resizeLast=0;collapsible=1;marginBottom=0;whiteSpace=wrap;html=1;fillColor=#d5e8d4;strokeColor=#82b366;rounded=0;" parent="WIyWlLk6GJQsqaUBKTNV-1" vertex="1">
          <mxGeometry x="-900" y="-390" width="160" height="80" as="geometry" />
        </mxCell>
        <mxCell id="Sui0xf1oX-jlDOztc1R0-17" value="&amp;nbsp;+ step(game : Game, action : GUI.ACTION, time : long)" style="text;strokeColor=#82b366;fillColor=#d5e8d4;align=left;verticalAlign=top;spacingLeft=4;spacingRight=4;overflow=hidden;rotatable=0;points=[[0,0.5],[1,0.5]];portConstraint=eastwest;whiteSpace=wrap;html=1;rounded=0;" parent="Sui0xf1oX-jlDOztc1R0-16" vertex="1">
          <mxGeometry y="26" width="160" height="54" as="geometry" />
        </mxCell>
        <mxCell id="Sui0xf1oX-jlDOztc1R0-19" value="FruitInIce" style="swimlane;fontStyle=1;align=center;verticalAlign=top;childLayout=stackLayout;horizontal=1;startSize=26;horizontalStack=0;resizeParent=1;resizeParentMax=0;resizeLast=0;collapsible=1;marginBottom=0;whiteSpace=wrap;html=1;fillColor=#ffe6cc;strokeColor=#d79b00;rounded=0;" parent="WIyWlLk6GJQsqaUBKTNV-1" vertex="1">
          <mxGeometry x="-30" y="735" width="160" height="34" as="geometry" />
        </mxCell>
        <mxCell id="Sui0xf1oX-jlDOztc1R0-20" value="" style="line;strokeWidth=1;fillColor=#ffe6cc;align=left;verticalAlign=middle;spacingTop=-1;spacingLeft=3;spacingRight=3;rotatable=0;labelPosition=right;points=[];portConstraint=eastwest;strokeColor=#d79b00;rounded=0;" parent="Sui0xf1oX-jlDOztc1R0-19" vertex="1">
          <mxGeometry y="26" width="160" height="8" as="geometry" />
        </mxCell>
        <mxCell id="Sui0xf1oX-jlDOztc1R0-21" value="" style="endArrow=none;html=1;rounded=0;strokeColor=#D79B00;" parent="WIyWlLk6GJQsqaUBKTNV-1" edge="1">
          <mxGeometry width="50" height="50" relative="1" as="geometry">
            <mxPoint x="50" y="735" as="sourcePoint" />
            <mxPoint x="50" y="690" as="targetPoint" />
          </mxGeometry>
        </mxCell>
        <mxCell id="Sui0xf1oX-jlDOztc1R0-23" value="" style="endArrow=open;endFill=1;endSize=12;html=1;rounded=0;entryX=0.002;entryY=0.24;entryDx=0;entryDy=0;entryPerimeter=0;exitX=0.996;exitY=0.197;exitDx=0;exitDy=0;exitPerimeter=0;" parent="WIyWlLk6GJQsqaUBKTNV-1" edge="1">
          <mxGeometry width="160" relative="1" as="geometry">
            <mxPoint x="800" y="624" as="sourcePoint" />
            <mxPoint x="863" y="570" as="targetPoint" />
            <Array as="points">
              <mxPoint x="821" y="624" />
              <mxPoint x="821" y="570" />
              <mxPoint x="842" y="569" />
            </Array>
          </mxGeometry>
        </mxCell>
        <mxCell id="Sui0xf1oX-jlDOztc1R0-24" value="" style="endArrow=open;endFill=1;endSize=12;html=1;rounded=0;entryX=0.002;entryY=0.24;entryDx=0;entryDy=0;entryPerimeter=0;exitX=0.996;exitY=0.197;exitDx=0;exitDy=0;exitPerimeter=0;" parent="WIyWlLk6GJQsqaUBKTNV-1" edge="1">
          <mxGeometry width="160" relative="1" as="geometry">
            <mxPoint x="798" y="735" as="sourcePoint" />
            <mxPoint x="861" y="681" as="targetPoint" />
            <Array as="points">
              <mxPoint x="819" y="735" />
              <mxPoint x="819" y="681" />
              <mxPoint x="840" y="680" />
            </Array>
          </mxGeometry>
        </mxCell>
        <mxCell id="Sui0xf1oX-jlDOztc1R0-25" value="" style="endArrow=open;endFill=1;endSize=12;html=1;rounded=0;entryX=0.002;entryY=0.24;entryDx=0;entryDy=0;entryPerimeter=0;exitX=0.996;exitY=0.197;exitDx=0;exitDy=0;exitPerimeter=0;" parent="WIyWlLk6GJQsqaUBKTNV-1" edge="1">
          <mxGeometry width="160" relative="1" as="geometry">
            <mxPoint x="800" y="835" as="sourcePoint" />
            <mxPoint x="863" y="781" as="targetPoint" />
            <Array as="points">
              <mxPoint x="821" y="835" />
              <mxPoint x="821" y="781" />
              <mxPoint x="842" y="780" />
            </Array>
          </mxGeometry>
        </mxCell>
        <mxCell id="Sui0xf1oX-jlDOztc1R0-26" value="" style="endArrow=open;endFill=1;endSize=12;html=1;rounded=0;entryX=0.002;entryY=0.24;entryDx=0;entryDy=0;entryPerimeter=0;exitX=0.996;exitY=0.197;exitDx=0;exitDy=0;exitPerimeter=0;" parent="WIyWlLk6GJQsqaUBKTNV-1" edge="1">
          <mxGeometry width="160" relative="1" as="geometry">
            <mxPoint x="799" y="937" as="sourcePoint" />
            <mxPoint x="862" y="883" as="targetPoint" />
            <Array as="points">
              <mxPoint x="820" y="937" />
              <mxPoint x="820" y="883" />
              <mxPoint x="841" y="882" />
            </Array>
          </mxGeometry>
        </mxCell>
        <mxCell id="Sui0xf1oX-jlDOztc1R0-29" value="" style="endArrow=open;endFill=1;endSize=12;html=1;rounded=0;entryX=0.002;entryY=0.24;entryDx=0;entryDy=0;entryPerimeter=0;exitX=0.996;exitY=0.197;exitDx=0;exitDy=0;exitPerimeter=0;" parent="WIyWlLk6GJQsqaUBKTNV-1" edge="1">
          <mxGeometry width="160" relative="1" as="geometry">
            <mxPoint x="798.5" y="1030" as="sourcePoint" />
            <mxPoint x="861.5" y="976" as="targetPoint" />
            <Array as="points">
              <mxPoint x="819.5" y="1030" />
              <mxPoint x="819.5" y="976" />
              <mxPoint x="840.5" y="975" />
            </Array>
          </mxGeometry>
        </mxCell>
        <mxCell id="Sui0xf1oX-jlDOztc1R0-34" value="" style="line;strokeWidth=1;fillColor=#ffe6cc;align=left;verticalAlign=middle;spacingTop=-1;spacingLeft=3;spacingRight=3;rotatable=0;labelPosition=right;points=[];portConstraint=eastwest;strokeColor=#d79b00;rounded=0;" parent="WIyWlLk6GJQsqaUBKTNV-1" vertex="1">
          <mxGeometry x="860" y="1002" width="210" height="8" as="geometry" />
        </mxCell>
        <mxCell id="Sui0xf1oX-jlDOztc1R0-36" value="&lt;div&gt;+ setNewName(newName : string)&lt;/div&gt;&lt;div&gt;+ getNewName() : string&lt;/div&gt;&lt;div&gt;+ getNewRank() : int&lt;/div&gt;&lt;div&gt;+ getNewScore() : int&lt;/div&gt;&lt;div&gt;+ getNewTime() : string&lt;/div&gt;&lt;div&gt;+ isSelectedInsertName() : boolean&lt;br&gt;&lt;/div&gt;" style="text;strokeColor=#d79b00;fillColor=#ffe6cc;align=left;verticalAlign=top;spacingLeft=4;spacingRight=4;overflow=hidden;rotatable=0;points=[[0,0.5],[1,0.5]];portConstraint=eastwest;whiteSpace=wrap;html=1;rounded=0;" parent="WIyWlLk6GJQsqaUBKTNV-1" vertex="1">
          <mxGeometry x="860" y="1010" width="210" height="100" as="geometry" />
        </mxCell>
        <mxCell id="Sui0xf1oX-jlDOztc1R0-37" value="" style="endArrow=none;html=1;rounded=0;exitX=1;exitY=0;exitDx=0;exitDy=0;exitPerimeter=0;strokeColor=#D79B00;" parent="WIyWlLk6GJQsqaUBKTNV-1" edge="1">
          <mxGeometry width="50" height="50" relative="1" as="geometry">
            <mxPoint x="1070" y="1010" as="sourcePoint" />
            <mxPoint x="1070" y="1000" as="targetPoint" />
          </mxGeometry>
        </mxCell>
        <mxCell id="Sui0xf1oX-jlDOztc1R0-38" value="" style="endArrow=none;html=1;rounded=0;exitX=1;exitY=0;exitDx=0;exitDy=0;exitPerimeter=0;strokeColor=#D79B00;" parent="WIyWlLk6GJQsqaUBKTNV-1" edge="1">
          <mxGeometry width="50" height="50" relative="1" as="geometry">
            <mxPoint x="859.67" y="1012" as="sourcePoint" />
            <mxPoint x="859.67" y="1002" as="targetPoint" />
          </mxGeometry>
        </mxCell>
        <mxCell id="Sui0xf1oX-jlDOztc1R0-39" value="LevelCompletedMenuState" style="swimlane;fontStyle=1;align=center;verticalAlign=top;childLayout=stackLayout;horizontal=1;startSize=26;horizontalStack=0;resizeParent=1;resizeParentMax=0;resizeLast=0;collapsible=1;marginBottom=0;whiteSpace=wrap;html=1;rounded=0;fillColor=#fff2cc;strokeColor=#d6b656;" parent="WIyWlLk6GJQsqaUBKTNV-1" vertex="1">
          <mxGeometry x="550" y="1150" width="250" height="70" as="geometry" />
        </mxCell>
        <mxCell id="Sui0xf1oX-jlDOztc1R0-40" value="#getViewer() : Viewer&amp;lt;Menu&amp;gt;&lt;br&gt;#getController() Controller&amp;lt;Menu&amp;gt;" style="text;align=left;verticalAlign=top;spacingLeft=4;spacingRight=4;overflow=hidden;rotatable=0;points=[[0,0.5],[1,0.5]];portConstraint=eastwest;whiteSpace=wrap;html=1;rounded=0;fillColor=#f8cecc;strokeColor=#b85450;" parent="Sui0xf1oX-jlDOztc1R0-39" vertex="1">
          <mxGeometry y="26" width="250" height="44" as="geometry" />
        </mxCell>
        <mxCell id="Sui0xf1oX-jlDOztc1R0-42" value="" style="endArrow=open;endFill=1;endSize=12;html=1;rounded=0;" parent="WIyWlLk6GJQsqaUBKTNV-1" edge="1">
          <mxGeometry width="160" relative="1" as="geometry">
            <mxPoint x="800" y="1102" as="sourcePoint" />
            <mxPoint x="866" y="1161" as="targetPoint" />
            <Array as="points">
              <mxPoint x="826" y="1102" />
              <mxPoint x="826" y="1161" />
            </Array>
          </mxGeometry>
        </mxCell>
        <mxCell id="Sui0xf1oX-jlDOztc1R0-43" value="1" style="text;html=1;align=center;verticalAlign=middle;resizable=0;points=[];autosize=1;strokeColor=none;fillColor=none;" parent="WIyWlLk6GJQsqaUBKTNV-1" vertex="1">
          <mxGeometry x="833" y="1125" width="30" height="30" as="geometry" />
        </mxCell>
        <mxCell id="Sui0xf1oX-jlDOztc1R0-45" value="" style="endArrow=open;endFill=1;endSize=12;html=1;rounded=0;" parent="WIyWlLk6GJQsqaUBKTNV-1" edge="1">
          <mxGeometry width="160" relative="1" as="geometry">
            <mxPoint x="799" y="1200" as="sourcePoint" />
            <mxPoint x="865" y="1259" as="targetPoint" />
            <Array as="points">
              <mxPoint x="825" y="1200" />
              <mxPoint x="825" y="1259" />
            </Array>
          </mxGeometry>
        </mxCell>
        <mxCell id="Sui0xf1oX-jlDOztc1R0-46" value="&lt;b&gt;Level&lt;/b&gt;&lt;b&gt;CompletedMenu&lt;/b&gt;" style="swimlane;fontStyle=0;childLayout=stackLayout;horizontal=1;startSize=26;fillColor=#ffe6cc;horizontalStack=0;resizeParent=1;resizeParentMax=0;resizeLast=0;collapsible=1;marginBottom=0;whiteSpace=wrap;html=1;strokeColor=#d79b00;rounded=0;" parent="WIyWlLk6GJQsqaUBKTNV-1" vertex="1">
          <mxGeometry x="863" y="1230" width="210" height="150" as="geometry" />
        </mxCell>
        <mxCell id="Sui0xf1oX-jlDOztc1R0-47" value="+ isSelectedTryAgain() : boolean&lt;br&gt;+ isSelectedNextLevel() : boolean&lt;br&gt;+ isSelectedChooseLevel(): boolean&lt;br&gt;&lt;div&gt;+ isSelectedMainMenu() : boolean&lt;/div&gt;&lt;div&gt;+ isSelectedQuit() : boolean&lt;/div&gt;&lt;div&gt;+ getLevel() : int&lt;/div&gt;&lt;div&gt;+ getTime() : string&lt;/div&gt;&lt;div&gt;+ getScore() : int&lt;br&gt;&lt;/div&gt;" style="text;strokeColor=#d79b00;fillColor=#ffe6cc;align=left;verticalAlign=top;spacingLeft=4;spacingRight=4;overflow=hidden;rotatable=0;points=[[0,0.5],[1,0.5]];portConstraint=eastwest;whiteSpace=wrap;html=1;rounded=0;" parent="Sui0xf1oX-jlDOztc1R0-46" vertex="1">
          <mxGeometry y="26" width="210" height="124" as="geometry" />
        </mxCell>
        <mxCell id="Sui0xf1oX-jlDOztc1R0-48" value="1" style="text;html=1;align=center;verticalAlign=middle;resizable=0;points=[];autosize=1;strokeColor=none;fillColor=none;" parent="WIyWlLk6GJQsqaUBKTNV-1" vertex="1">
          <mxGeometry x="833" y="1230" width="30" height="30" as="geometry" />
        </mxCell>
        <mxCell id="Sui0xf1oX-jlDOztc1R0-49" value="GameSavedMenuState" style="swimlane;fontStyle=1;align=center;verticalAlign=top;childLayout=stackLayout;horizontal=1;startSize=26;horizontalStack=0;resizeParent=1;resizeParentMax=0;resizeLast=0;collapsible=1;marginBottom=0;whiteSpace=wrap;html=1;rounded=0;fillColor=#fff2cc;strokeColor=#d6b656;" parent="WIyWlLk6GJQsqaUBKTNV-1" vertex="1">
          <mxGeometry x="550" y="1280" width="250" height="70" as="geometry" />
        </mxCell>
        <mxCell id="Sui0xf1oX-jlDOztc1R0-50" value="#getViewer() : Viewer&amp;lt;Menu&amp;gt;&lt;br&gt;#getController() Controller&amp;lt;Menu&amp;gt;" style="text;align=left;verticalAlign=top;spacingLeft=4;spacingRight=4;overflow=hidden;rotatable=0;points=[[0,0.5],[1,0.5]];portConstraint=eastwest;whiteSpace=wrap;html=1;rounded=0;fillColor=#f8cecc;strokeColor=#b85450;" parent="Sui0xf1oX-jlDOztc1R0-49" vertex="1">
          <mxGeometry y="26" width="250" height="44" as="geometry" />
        </mxCell>
        <mxCell id="Sui0xf1oX-jlDOztc1R0-51" value="GameOverMenuState" style="swimlane;fontStyle=1;align=center;verticalAlign=top;childLayout=stackLayout;horizontal=1;startSize=26;horizontalStack=0;resizeParent=1;resizeParentMax=0;resizeLast=0;collapsible=1;marginBottom=0;whiteSpace=wrap;html=1;rounded=0;fillColor=#fff2cc;strokeColor=#d6b656;" parent="WIyWlLk6GJQsqaUBKTNV-1" vertex="1">
          <mxGeometry x="550" y="1380" width="250" height="70" as="geometry" />
        </mxCell>
        <mxCell id="Sui0xf1oX-jlDOztc1R0-52" value="#getViewer() : Viewer&amp;lt;Menu&amp;gt;&lt;br&gt;#getController() Controller&amp;lt;Menu&amp;gt;" style="text;align=left;verticalAlign=top;spacingLeft=4;spacingRight=4;overflow=hidden;rotatable=0;points=[[0,0.5],[1,0.5]];portConstraint=eastwest;whiteSpace=wrap;html=1;rounded=0;fillColor=#f8cecc;strokeColor=#b85450;" parent="Sui0xf1oX-jlDOztc1R0-51" vertex="1">
          <mxGeometry y="26" width="250" height="44" as="geometry" />
        </mxCell>
        <mxCell id="Sui0xf1oX-jlDOztc1R0-53" value="GameLoadedMenuState" style="swimlane;fontStyle=1;align=center;verticalAlign=top;childLayout=stackLayout;horizontal=1;startSize=26;horizontalStack=0;resizeParent=1;resizeParentMax=0;resizeLast=0;collapsible=1;marginBottom=0;whiteSpace=wrap;html=1;rounded=0;fillColor=#fff2cc;strokeColor=#d6b656;" parent="WIyWlLk6GJQsqaUBKTNV-1" vertex="1">
          <mxGeometry x="550" y="1480" width="250" height="70" as="geometry" />
        </mxCell>
        <mxCell id="Sui0xf1oX-jlDOztc1R0-54" value="#getViewer() : Viewer&amp;lt;Menu&amp;gt;&lt;br&gt;#getController() Controller&amp;lt;Menu&amp;gt;" style="text;align=left;verticalAlign=top;spacingLeft=4;spacingRight=4;overflow=hidden;rotatable=0;points=[[0,0.5],[1,0.5]];portConstraint=eastwest;whiteSpace=wrap;html=1;rounded=0;fillColor=#f8cecc;strokeColor=#b85450;" parent="Sui0xf1oX-jlDOztc1R0-53" vertex="1">
          <mxGeometry y="26" width="250" height="44" as="geometry" />
        </mxCell>
        <mxCell id="Sui0xf1oX-jlDOztc1R0-56" value="" style="endArrow=none;html=1;rounded=0;exitX=0.001;exitY=0.182;exitDx=0;exitDy=0;exitPerimeter=0;" parent="WIyWlLk6GJQsqaUBKTNV-1" source="Sui0xf1oX-jlDOztc1R0-50" edge="1">
          <mxGeometry width="50" height="50" relative="1" as="geometry">
            <mxPoint x="550" y="1265" as="sourcePoint" />
            <mxPoint x="520" y="1180" as="targetPoint" />
            <Array as="points">
              <mxPoint x="520" y="1314" />
            </Array>
          </mxGeometry>
        </mxCell>
        <mxCell id="Sui0xf1oX-jlDOztc1R0-57" value="" style="endArrow=none;html=1;rounded=0;exitX=0.001;exitY=0.197;exitDx=0;exitDy=0;exitPerimeter=0;" parent="WIyWlLk6GJQsqaUBKTNV-1" edge="1">
          <mxGeometry width="50" height="50" relative="1" as="geometry">
            <mxPoint x="550" y="1395" as="sourcePoint" />
            <mxPoint x="520" y="1310" as="targetPoint" />
            <Array as="points">
              <mxPoint x="520" y="1395" />
            </Array>
          </mxGeometry>
        </mxCell>
        <mxCell id="Sui0xf1oX-jlDOztc1R0-58" value="" style="endArrow=none;html=1;rounded=0;exitX=0.007;exitY=0.03;exitDx=0;exitDy=0;exitPerimeter=0;" parent="WIyWlLk6GJQsqaUBKTNV-1" source="Sui0xf1oX-jlDOztc1R0-54" edge="1">
          <mxGeometry width="50" height="50" relative="1" as="geometry">
            <mxPoint x="550" y="1480" as="sourcePoint" />
            <mxPoint x="520" y="1395" as="targetPoint" />
            <Array as="points">
              <mxPoint x="520" y="1507" />
            </Array>
          </mxGeometry>
        </mxCell>
        <mxCell id="Sui0xf1oX-jlDOztc1R0-59" value="&lt;b&gt;GameSavedMenu&lt;/b&gt;" style="swimlane;fontStyle=0;childLayout=stackLayout;horizontal=1;startSize=26;fillColor=#ffe6cc;horizontalStack=0;resizeParent=1;resizeParentMax=0;resizeLast=0;collapsible=1;marginBottom=0;whiteSpace=wrap;html=1;strokeColor=#d79b00;rounded=0;" parent="WIyWlLk6GJQsqaUBKTNV-1" vertex="1">
          <mxGeometry x="863" y="1390" width="210" height="60" as="geometry" />
        </mxCell>
        <mxCell id="Sui0xf1oX-jlDOztc1R0-60" value="+ isSelectedConfirm() : boolean" style="text;strokeColor=#d79b00;fillColor=#ffe6cc;align=left;verticalAlign=top;spacingLeft=4;spacingRight=4;overflow=hidden;rotatable=0;points=[[0,0.5],[1,0.5]];portConstraint=eastwest;whiteSpace=wrap;html=1;rounded=0;" parent="Sui0xf1oX-jlDOztc1R0-59" vertex="1">
          <mxGeometry y="26" width="210" height="34" as="geometry" />
        </mxCell>
        <mxCell id="Sui0xf1oX-jlDOztc1R0-61" value="" style="endArrow=open;endFill=1;endSize=12;html=1;rounded=0;" parent="WIyWlLk6GJQsqaUBKTNV-1" edge="1">
          <mxGeometry width="160" relative="1" as="geometry">
            <mxPoint x="800" y="1340" as="sourcePoint" />
            <mxPoint x="866" y="1399" as="targetPoint" />
            <Array as="points">
              <mxPoint x="826" y="1340" />
              <mxPoint x="826" y="1399" />
            </Array>
          </mxGeometry>
        </mxCell>
        <mxCell id="Sui0xf1oX-jlDOztc1R0-62" value="1" style="text;html=1;align=center;verticalAlign=middle;resizable=0;points=[];autosize=1;strokeColor=none;fillColor=none;" parent="WIyWlLk6GJQsqaUBKTNV-1" vertex="1">
          <mxGeometry x="840" y="1400" width="30" height="30" as="geometry" />
        </mxCell>
        <mxCell id="Sui0xf1oX-jlDOztc1R0-63" value="&lt;b&gt;GameOver&lt;/b&gt;&lt;b&gt;Menu&lt;/b&gt;" style="swimlane;fontStyle=0;childLayout=stackLayout;horizontal=1;startSize=26;fillColor=#ffe6cc;horizontalStack=0;resizeParent=1;resizeParentMax=0;resizeLast=0;collapsible=1;marginBottom=0;whiteSpace=wrap;html=1;strokeColor=#d79b00;rounded=0;" parent="WIyWlLk6GJQsqaUBKTNV-1" vertex="1">
          <mxGeometry x="864" y="1460" width="210" height="140" as="geometry" />
        </mxCell>
        <mxCell id="Sui0xf1oX-jlDOztc1R0-64" value="+ isSelectedTryAgain() : boolean&lt;br&gt;+ isSelectedChooseLevel(): boolean&lt;br&gt;&lt;div&gt;+ isSelectedMainMenu() : boolean&lt;/div&gt;&lt;div&gt;+ isSelectedQuit() : boolean&lt;/div&gt;&lt;div&gt;+ getLevel() : int&lt;/div&gt;&lt;div&gt;+ getTime() : string&lt;/div&gt;&lt;div&gt;+ getScore() : int&lt;br&gt;&lt;/div&gt;" style="text;strokeColor=#d79b00;fillColor=#ffe6cc;align=left;verticalAlign=top;spacingLeft=4;spacingRight=4;overflow=hidden;rotatable=0;points=[[0,0.5],[1,0.5]];portConstraint=eastwest;whiteSpace=wrap;html=1;rounded=0;" parent="Sui0xf1oX-jlDOztc1R0-63" vertex="1">
          <mxGeometry y="26" width="210" height="114" as="geometry" />
        </mxCell>
        <mxCell id="Sui0xf1oX-jlDOztc1R0-65" value="" style="endArrow=open;endFill=1;endSize=12;html=1;rounded=0;" parent="WIyWlLk6GJQsqaUBKTNV-1" edge="1">
          <mxGeometry width="160" relative="1" as="geometry">
            <mxPoint x="799" y="1430" as="sourcePoint" />
            <mxPoint x="865" y="1489" as="targetPoint" />
            <Array as="points">
              <mxPoint x="825" y="1430" />
              <mxPoint x="825" y="1489" />
            </Array>
          </mxGeometry>
        </mxCell>
        <mxCell id="Sui0xf1oX-jlDOztc1R0-66" value="1" style="text;html=1;align=center;verticalAlign=middle;resizable=0;points=[];autosize=1;strokeColor=none;fillColor=none;" parent="WIyWlLk6GJQsqaUBKTNV-1" vertex="1">
          <mxGeometry x="840" y="1460" width="30" height="30" as="geometry" />
        </mxCell>
        <mxCell id="Sui0xf1oX-jlDOztc1R0-67" value="&lt;b&gt;GameLoadedMenu&lt;/b&gt;" style="swimlane;fontStyle=0;childLayout=stackLayout;horizontal=1;startSize=26;fillColor=#ffe6cc;horizontalStack=0;resizeParent=1;resizeParentMax=0;resizeLast=0;collapsible=1;marginBottom=0;whiteSpace=wrap;html=1;strokeColor=#d79b00;rounded=0;" parent="WIyWlLk6GJQsqaUBKTNV-1" vertex="1">
          <mxGeometry x="865" y="1620" width="210" height="60" as="geometry" />
        </mxCell>
        <mxCell id="Sui0xf1oX-jlDOztc1R0-68" value="+ isSelectedConfirm() : boolean" style="text;strokeColor=#d79b00;fillColor=#ffe6cc;align=left;verticalAlign=top;spacingLeft=4;spacingRight=4;overflow=hidden;rotatable=0;points=[[0,0.5],[1,0.5]];portConstraint=eastwest;whiteSpace=wrap;html=1;rounded=0;" parent="Sui0xf1oX-jlDOztc1R0-67" vertex="1">
          <mxGeometry y="26" width="210" height="34" as="geometry" />
        </mxCell>
        <mxCell id="Sui0xf1oX-jlDOztc1R0-69" value="" style="endArrow=open;endFill=1;endSize=12;html=1;rounded=0;entryX=0;entryY=0.5;entryDx=0;entryDy=0;" parent="WIyWlLk6GJQsqaUBKTNV-1" target="Sui0xf1oX-jlDOztc1R0-67" edge="1">
          <mxGeometry width="160" relative="1" as="geometry">
            <mxPoint x="800" y="1530" as="sourcePoint" />
            <mxPoint x="866" y="1589" as="targetPoint" />
            <Array as="points">
              <mxPoint x="826" y="1530" />
              <mxPoint x="826" y="1650" />
            </Array>
          </mxGeometry>
        </mxCell>
        <mxCell id="Sui0xf1oX-jlDOztc1R0-70" value="1" style="text;html=1;align=center;verticalAlign=middle;resizable=0;points=[];autosize=1;strokeColor=none;fillColor=none;" parent="WIyWlLk6GJQsqaUBKTNV-1" vertex="1">
          <mxGeometry x="840" y="1620" width="30" height="30" as="geometry" />
        </mxCell>
        <mxCell id="Sui0xf1oX-jlDOztc1R0-72" value="&lt;b&gt;FruitInIceViewer&lt;/b&gt;" style="swimlane;fontStyle=0;childLayout=stackLayout;horizontal=1;startSize=26;fillColor=#dae8fc;horizontalStack=0;resizeParent=1;resizeParentMax=0;resizeLast=0;collapsible=1;marginBottom=0;whiteSpace=wrap;html=1;strokeColor=#6c8ebf;rounded=0;" parent="WIyWlLk6GJQsqaUBKTNV-1" vertex="1">
          <mxGeometry x="2210" y="-187" width="140" height="70" as="geometry" />
        </mxCell>
        <mxCell id="Sui0xf1oX-jlDOztc1R0-73" value="+draw(fruit : Fruit, gui : GUI, type : String)" style="text;strokeColor=#6c8ebf;fillColor=#dae8fc;align=left;verticalAlign=top;spacingLeft=4;spacingRight=4;overflow=hidden;rotatable=0;points=[[0,0.5],[1,0.5]];portConstraint=eastwest;whiteSpace=wrap;html=1;rounded=0;" parent="Sui0xf1oX-jlDOztc1R0-72" vertex="1">
          <mxGeometry y="26" width="140" height="44" as="geometry" />
        </mxCell>
        <mxCell id="Sui0xf1oX-jlDOztc1R0-74" value="" style="endArrow=none;dashed=1;html=1;dashPattern=1 3;strokeWidth=2;rounded=0;fillColor=#dae8fc;strokeColor=#6c8ebf;entryX=0.5;entryY=1;entryDx=0;entryDy=0;" parent="WIyWlLk6GJQsqaUBKTNV-1" target="Sui0xf1oX-jlDOztc1R0-72" edge="1">
          <mxGeometry width="50" height="50" relative="1" as="geometry">
            <mxPoint x="2280" y="-64" as="sourcePoint" />
            <mxPoint x="2280" y="-100" as="targetPoint" />
          </mxGeometry>
        </mxCell>
        <mxCell id="Sui0xf1oX-jlDOztc1R0-76" value="&lt;b&gt;NewHiscoreMenuView&lt;/b&gt;" style="swimlane;fontStyle=0;childLayout=stackLayout;horizontal=1;startSize=26;fillColor=#dae8fc;horizontalStack=0;resizeParent=1;resizeParentMax=0;resizeLast=0;collapsible=1;marginBottom=0;whiteSpace=wrap;html=1;strokeColor=#6c8ebf;rounded=0;" parent="WIyWlLk6GJQsqaUBKTNV-1" vertex="1">
          <mxGeometry x="1770" y="168" width="250" height="52" as="geometry" />
        </mxCell>
        <mxCell id="Sui0xf1oX-jlDOztc1R0-77" value="+ drawElements(gui : GUI)" style="text;strokeColor=#6c8ebf;fillColor=#dae8fc;align=left;verticalAlign=top;spacingLeft=4;spacingRight=4;overflow=hidden;rotatable=0;points=[[0,0.5],[1,0.5]];portConstraint=eastwest;whiteSpace=wrap;html=1;rounded=0;" parent="Sui0xf1oX-jlDOztc1R0-76" vertex="1">
          <mxGeometry y="26" width="250" height="26" as="geometry" />
        </mxCell>
        <mxCell id="Sui0xf1oX-jlDOztc1R0-79" value="&lt;b&gt;LevelCompleted&lt;/b&gt;&lt;b&gt;MenuView&lt;/b&gt;" style="swimlane;fontStyle=0;childLayout=stackLayout;horizontal=1;startSize=26;fillColor=#dae8fc;horizontalStack=0;resizeParent=1;resizeParentMax=0;resizeLast=0;collapsible=1;marginBottom=0;whiteSpace=wrap;html=1;strokeColor=#6c8ebf;rounded=0;" parent="WIyWlLk6GJQsqaUBKTNV-1" vertex="1">
          <mxGeometry x="1919" y="274" width="250" height="52" as="geometry" />
        </mxCell>
        <mxCell id="Sui0xf1oX-jlDOztc1R0-80" value="+ drawElements(gui : GUI)" style="text;strokeColor=#6c8ebf;fillColor=#dae8fc;align=left;verticalAlign=top;spacingLeft=4;spacingRight=4;overflow=hidden;rotatable=0;points=[[0,0.5],[1,0.5]];portConstraint=eastwest;whiteSpace=wrap;html=1;rounded=0;" parent="Sui0xf1oX-jlDOztc1R0-79" vertex="1">
          <mxGeometry y="26" width="250" height="26" as="geometry" />
        </mxCell>
        <mxCell id="Sui0xf1oX-jlDOztc1R0-81" value="" style="endArrow=none;html=1;rounded=0;strokeColor=#6C8EBF;" parent="WIyWlLk6GJQsqaUBKTNV-1" edge="1">
          <mxGeometry width="50" height="50" relative="1" as="geometry">
            <mxPoint x="1896" y="254" as="sourcePoint" />
            <mxPoint x="2074" y="270" as="targetPoint" />
            <Array as="points">
              <mxPoint x="2074" y="254" />
            </Array>
          </mxGeometry>
        </mxCell>
        <mxCell id="Sui0xf1oX-jlDOztc1R0-82" value="&lt;b&gt;GameSavedMenuView&lt;/b&gt;" style="swimlane;fontStyle=0;childLayout=stackLayout;horizontal=1;startSize=26;fillColor=#dae8fc;horizontalStack=0;resizeParent=1;resizeParentMax=0;resizeLast=0;collapsible=1;marginBottom=0;whiteSpace=wrap;html=1;strokeColor=#6c8ebf;rounded=0;" parent="WIyWlLk6GJQsqaUBKTNV-1" vertex="1">
          <mxGeometry x="2035" y="168" width="250" height="52" as="geometry" />
        </mxCell>
        <mxCell id="Sui0xf1oX-jlDOztc1R0-83" value="+ drawElements(gui : GUI)" style="text;strokeColor=#6c8ebf;fillColor=#dae8fc;align=left;verticalAlign=top;spacingLeft=4;spacingRight=4;overflow=hidden;rotatable=0;points=[[0,0.5],[1,0.5]];portConstraint=eastwest;whiteSpace=wrap;html=1;rounded=0;" parent="Sui0xf1oX-jlDOztc1R0-82" vertex="1">
          <mxGeometry y="26" width="250" height="26" as="geometry" />
        </mxCell>
        <mxCell id="Sui0xf1oX-jlDOztc1R0-84" value="" style="endArrow=none;html=1;rounded=0;entryX=0.5;entryY=1;entryDx=0;entryDy=0;strokeColor=#6C8EBF;" parent="WIyWlLk6GJQsqaUBKTNV-1" target="Sui0xf1oX-jlDOztc1R0-82" edge="1">
          <mxGeometry width="50" height="50" relative="1" as="geometry">
            <mxPoint x="2068" y="254" as="sourcePoint" />
            <mxPoint x="2246" y="220" as="targetPoint" />
            <Array as="points">
              <mxPoint x="2160" y="254" />
            </Array>
          </mxGeometry>
        </mxCell>
        <mxCell id="Sui0xf1oX-jlDOztc1R0-85" value="" style="endArrow=none;html=1;rounded=0;strokeColor=#6C8EBF;" parent="WIyWlLk6GJQsqaUBKTNV-1" edge="1">
          <mxGeometry width="50" height="50" relative="1" as="geometry">
            <mxPoint x="2159" y="254" as="sourcePoint" />
            <mxPoint x="2270" y="280" as="targetPoint" />
            <Array as="points">
              <mxPoint x="2270" y="254" />
            </Array>
          </mxGeometry>
        </mxCell>
        <mxCell id="Sui0xf1oX-jlDOztc1R0-86" value="&lt;b&gt;GameOverMenuView&lt;/b&gt;" style="swimlane;fontStyle=0;childLayout=stackLayout;horizontal=1;startSize=26;fillColor=#dae8fc;horizontalStack=0;resizeParent=1;resizeParentMax=0;resizeLast=0;collapsible=1;marginBottom=0;whiteSpace=wrap;html=1;strokeColor=#6c8ebf;rounded=0;" parent="WIyWlLk6GJQsqaUBKTNV-1" vertex="1">
          <mxGeometry x="2179" y="276" width="250" height="52" as="geometry" />
        </mxCell>
        <mxCell id="Sui0xf1oX-jlDOztc1R0-87" value="+ drawElements(gui : GUI)" style="text;strokeColor=#6c8ebf;fillColor=#dae8fc;align=left;verticalAlign=top;spacingLeft=4;spacingRight=4;overflow=hidden;rotatable=0;points=[[0,0.5],[1,0.5]];portConstraint=eastwest;whiteSpace=wrap;html=1;rounded=0;" parent="Sui0xf1oX-jlDOztc1R0-86" vertex="1">
          <mxGeometry y="26" width="250" height="26" as="geometry" />
        </mxCell>
        <mxCell id="Sui0xf1oX-jlDOztc1R0-88" value="" style="endArrow=none;html=1;rounded=0;entryX=0.5;entryY=1;entryDx=0;entryDy=0;strokeColor=#6C8EBF;" parent="WIyWlLk6GJQsqaUBKTNV-1" edge="1">
          <mxGeometry width="50" height="50" relative="1" as="geometry">
            <mxPoint x="2270" y="254" as="sourcePoint" />
            <mxPoint x="2362" y="220" as="targetPoint" />
            <Array as="points">
              <mxPoint x="2362" y="254" />
            </Array>
          </mxGeometry>
        </mxCell>
        <mxCell id="Sui0xf1oX-jlDOztc1R0-89" value="&lt;b&gt;GameLoadedMenuView&lt;/b&gt;" style="swimlane;fontStyle=0;childLayout=stackLayout;horizontal=1;startSize=26;fillColor=#dae8fc;horizontalStack=0;resizeParent=1;resizeParentMax=0;resizeLast=0;collapsible=1;marginBottom=0;whiteSpace=wrap;html=1;strokeColor=#6c8ebf;rounded=0;" parent="WIyWlLk6GJQsqaUBKTNV-1" vertex="1">
          <mxGeometry x="2297" y="168" width="250" height="52" as="geometry" />
        </mxCell>
        <mxCell id="Sui0xf1oX-jlDOztc1R0-90" value="+ drawElements(gui : GUI)" style="text;strokeColor=#6c8ebf;fillColor=#dae8fc;align=left;verticalAlign=top;spacingLeft=4;spacingRight=4;overflow=hidden;rotatable=0;points=[[0,0.5],[1,0.5]];portConstraint=eastwest;whiteSpace=wrap;html=1;rounded=0;" parent="Sui0xf1oX-jlDOztc1R0-89" vertex="1">
          <mxGeometry y="26" width="250" height="26" as="geometry" />
        </mxCell>
        <mxCell id="WoGTWq5R3tID_yFoeVhm-0" value="" style="endArrow=none;html=1;rounded=0;fillColor=#ffe6cc;strokeColor=#d79b00;" edge="1" parent="WIyWlLk6GJQsqaUBKTNV-1">
          <mxGeometry width="50" height="50" relative="1" as="geometry">
            <mxPoint x="1065" y="1165" as="sourcePoint" />
            <mxPoint x="1240" y="980" as="targetPoint" />
            <Array as="points">
              <mxPoint x="1240" y="1165" />
            </Array>
          </mxGeometry>
        </mxCell>
        <mxCell id="WoGTWq5R3tID_yFoeVhm-1" value="" style="endArrow=none;html=1;rounded=0;fillColor=#ffe6cc;strokeColor=#d79b00;" edge="1" parent="WIyWlLk6GJQsqaUBKTNV-1">
          <mxGeometry width="50" height="50" relative="1" as="geometry">
            <mxPoint x="1072" y="1325" as="sourcePoint" />
            <mxPoint x="1240" y="1160" as="targetPoint" />
            <Array as="points">
              <mxPoint x="1240" y="1325" />
            </Array>
          </mxGeometry>
        </mxCell>
        <mxCell id="WoGTWq5R3tID_yFoeVhm-2" value="" style="endArrow=none;html=1;rounded=0;fillColor=#ffe6cc;strokeColor=#d79b00;" edge="1" parent="WIyWlLk6GJQsqaUBKTNV-1">
          <mxGeometry width="50" height="50" relative="1" as="geometry">
            <mxPoint x="1072" y="1425" as="sourcePoint" />
            <mxPoint x="1240" y="1320" as="targetPoint" />
            <Array as="points">
              <mxPoint x="1240" y="1425" />
            </Array>
          </mxGeometry>
        </mxCell>
        <mxCell id="WoGTWq5R3tID_yFoeVhm-3" value="" style="endArrow=none;html=1;rounded=0;fillColor=#ffe6cc;strokeColor=#d79b00;" edge="1" parent="WIyWlLk6GJQsqaUBKTNV-1">
          <mxGeometry width="50" height="50" relative="1" as="geometry">
            <mxPoint x="1072" y="1530.5" as="sourcePoint" />
            <mxPoint x="1240" y="1425.5" as="targetPoint" />
            <Array as="points">
              <mxPoint x="1240" y="1530.5" />
            </Array>
          </mxGeometry>
        </mxCell>
        <mxCell id="WoGTWq5R3tID_yFoeVhm-4" value="" style="endArrow=none;html=1;rounded=0;fillColor=#ffe6cc;strokeColor=#d79b00;" edge="1" parent="WIyWlLk6GJQsqaUBKTNV-1">
          <mxGeometry width="50" height="50" relative="1" as="geometry">
            <mxPoint x="1072" y="1645" as="sourcePoint" />
            <mxPoint x="1240" y="1530" as="targetPoint" />
            <Array as="points">
              <mxPoint x="1240" y="1645" />
            </Array>
          </mxGeometry>
        </mxCell>
      </root>
    </mxGraphModel>
  </diagram>
</mxfile>
